<?xml version="1.0" encoding="UTF-8"?>
<svg width="72px"
     height="72px"
     viewBox="0 0 72 72"
     version="1.1"
     xmlns="http://www.w3.org/2000/svg">
    <!-- Generator: Sketch 64 (93537) - https://sketch.com -->
    <title>How to 2</title>
    <desc>Created with Sketch.</desc>
    <g id="Kelrisks"
       stroke="none"
       stroke-width="1"
       fill="none"
       fill-rule="evenodd"
       stroke-linecap="round"
       stroke-linejoin="round">
        <g id="Accueil-horizontal"
           transform="translate(-507.000000, -1586.000000)"
           stroke="#000000"
           stroke-width="4.5">
            <g id="explication"
               transform="translate(0.000000, 1448.000000)">
                <g id="explication-2"
                   transform="translate(413.000000, 108.000000)">
                    <g id="How-to-2"
                       transform="translate(96.000000, 32.000000)">
                        <g id="Regular">
                            <path d="M65.419,34 C66.0418537,34 66.6367807,34.2584963 67.0624735,34.7131748 C67.4881662,35.1678533 67.706639,35.7784734 67.666,36.4 C66.3958661,54.0559156 51.7015422,67.7311303 34,67.7311303 C16.2984578,67.7311303 1.60413389,54.0559156 0.334,36.4 C0.293393969,35.7789931 0.511466398,35.1688495 0.936500315,34.7142678 C1.36153423,34.2596861 1.95566807,34.0011599 2.578,34 L65.419,34 Z"
                                  id="Shape"></path>
                            <path d="M12.976,60.376 L16,45.25 L19.237,45.25 C20.6227289,45.2498479 21.9311089,44.6112642 22.7837697,43.5189208 C23.6364304,42.4265774 23.9382702,41.0023091 23.602,39.658 L22.183,34"
                                  id="Shape"></path>
                            <path d="M51.625,34 L53.623,46 C53.9852426,48.169825 55.8631455,49.7596982 58.063,49.7590002 L63.838,49.7590002"
                                  id="Shape"></path>
                            <line x1="49.75"
                                  y1="34"
                                  x2="49.75"
                                  y2="12.871"
                                  id="Shape"></line>
                            <line x1="18.25"
                                  y1="12.871"
                                  x2="18.25"
                                  y2="34"
                                  id="Shape"></line>
                            <path d="M56.5,18.946 L37,1.405 C35.2885793,-0.135425581 32.6904207,-0.135425581 30.979,1.405 L11.5,18.946"
                                  id="Shape"></path>
                            <line x1="52"
                                  y1="14.896"
                                  x2="52"
                                  y2="2.5"
                                  id="Shape"></line>
                            <path d="M27.25,34 L27.25,27.25 C27.25,23.5220779 30.2720779,20.5 34,20.5 C37.7279221,20.5 40.75,23.5220779 40.75,27.25 L40.75,34"
                                  id="Shape"></path>
                        </g>
                    </g>
                </g>
            </g>
        </g>
    </g>
</svg>