<svg height="130"
     viewBox="0 0 130 130"
     width="130"
     xmlns="http://www.w3.org/2000/svg">
    <mask id="a"
          fill="#fff">
        <path d="m64.64289 1.42857c35.3067 0 63.92854 28.62171 63.92854 63.92854s-28.62184 63.92854-63.92854 63.92854-63.92854-28.62171-63.92854-63.92854 28.62184-63.92854 63.92854-63.92854z"
              fill="#fff"
              fill-rule="evenodd"/>
    </mask>
    <g fill="#fff"
       fill-rule="evenodd">
        <g mask="url(#a)">
            <g transform="translate(-1 30)">
                <path d="m34.20185 13.232807c6.34265 4.10346 5.23575 10.533618 5.2218 10.598742l-.1601.760482-2.0184-.396279.17235-.782325c.0333-.188487.81185-5.135643-4.33365-8.466147-3.907-2.529198-4.0639-6.782508-3.58385-9.737604l-4.29195 4.283847-1.44255-1.450575 7.61225-7.601607 7.61675 7.601607-1.4501 1.444662-5.6442-5.62977c-.68095 2.410506-1.36355 6.999993 2.30165 9.374967zm3.2661635 10.1798315-.1615638.7673752 1.9019167.4003998.1622975-.736695c.0638409-.3520309.1034213-.7624687.107156-1.2478015l-1.8473594-.362698-.1286859.6554463c-.0095246.2955822-.0318936.515255-.0337611.5239732zm26.5290865-10.1798315c6.3297 4.096926 5.27835 10.320831 5.2305 10.581894l-.14395.782325-2.0407-.401274.17005-.782325c.034-.188487.8132-5.135643-4.3292-8.466147-3.9023-2.52639-4.0647-6.782508-3.5837-9.737604l-4.2921 4.283847-1.4494-1.450575 7.61685-7.601607 7.61605 7.601607-1.4533 1.450575-5.6448-5.638491c-.68025 2.403945-1.36995 6.99813 2.3037 9.377775zm3.4317315 9.0005242 1.8449968.3627918c-.0039541.4877602-.0441731.9033535-.1064649 1.242114l-.1618105.7444189-1.1898858-.2189423-.6948703-.1510404.1395746-.7585437c.0215182-.1174.0464042-.3433167.0563282-.6505456z"
                      fill-rule="nonzero"/>
                <g fill-rule="evenodd">
                    <path d="m43.3823698 63.3019374.1112732.0121296c.840008.144585 1.726223.267954 2.634209.366384.488884.052989.842755.49572.790111.988278-.049118.460479-.435256.801924-.884288.801924-.031816 0-.063878-.001887-.096268-.005304-.944599-.102153-1.867796-.230826-2.74372-.381633-.484784-.083487-.81057-.547383-.727709-1.036218.082861-.488529.542881-.817224 1.027665-.733431zm.0618272-27.3796134c2.918134 0 5.203761 1.555551 5.203761 3.541746 0 1.986144-2.285627 3.542001-5.203761 3.542001-2.918011 0-5.20372-1.555857-5.20372-3.542001 0-1.986195 2.285586-3.541746 5.20372-3.541746zm0 1.795149c-1.95898 0-3.423049.922182-3.423049 1.746597 0 .82467 1.463946 1.746546 3.423049 1.746546 1.959226 0 3.423049-.921876 3.423049-1.746546 0-.824415-1.463823-1.746597-3.423049-1.746597zm12.5335342-5.5221529.1118498.0026779c.906961.079764 1.806337.184416 2.673323.311559.486629.071655.823649.527136.752924 1.017501-.064411.446811-.445055.768621-.880065.768621-.042558 0-.08569-.003111-.129191-.009333-.833243-.122451-1.698548-.22338-2.571602-.300033-.489909-.042993-.852472-.478227-.809791-.97206.042681-.493782.474616-.858636.964402-.816255zm2.6473941 12.4766463c-2.3601347.3455963-4.7622257.4611106-7.1252893.4611106-3.569419 0-7.177747-.321198-10.644297-1.205079-1.259643-.320892-2.50797-.718131-3.69369-1.256844-1.210771-.550494-3.381147-1.598238-3.381147-3.206778 0-1.304478 1.814783-2.72391 4.854359-3.796287 3.422926-1.207578 7.991761-1.872771 12.864857-1.872771.312092 0 .626562.002805.934759.008109.491754.014331.897326-.385713.906018-.881382.00861-.495669-.382899-.90474-.87453-.913461-.318488-.005916-.643618-.008721-.966247-.008721-5.068461 0-9.846273.700689-13.453207 1.9737-4.997531 1.763682-6.046721 3.959181-6.046721 5.490507v3.590604 11.64993 3.590349 13.650099.590376c0 1.531326 1.049108 3.727131 6.046844 5.490507 3.607057 1.273011 8.384746 1.9737001 13.453084 1.9737001 3.3058237 0 6.4879697-.2979362 9.3022553-.8584509m-2.1476925-30.9276739c-2.2285353.3343953-4.6514483.5099157-7.1546448.5099157-4.873137 0-9.441972-.665193-12.864652-1.872771-3.039781-1.072683-4.854359-2.491809-4.854359-3.796287v-.335223c.001353.226797 1.085024.777342 1.26444.881688.38417.224043.780148.428094 1.18285.615672.792735.370107 1.613063.681666 2.444379.95115 1.713513.555798 3.480941.932178 5.259931 1.197633 2.508749.374136 5.030905.562938 7.567493.562938 2.3500703 0 4.7689052-.1176959 7.1523461-.440822m.0689001 13.3661296c-2.2467901.3408753-4.6930068.5198224-7.2211232.5198224-4.873219 0-9.442054-.665193-12.864857-1.872771-3.039699-1.072377-4.854236-2.491503-4.854236-3.795981v-8.396334c.920532.767958 2.281035 1.536579 4.265886 2.236911 3.606934 1.272705 8.384746 1.9737 13.453084 1.9737 2.5019311 0 4.9330481-.1708156 7.1874609-.4968954m.5575222 27.5797732c-2.3882389.394874-5.0190457.6030332-7.7450651.6030332-4.873137 0-9.441972-.665193-12.864652-1.873077-3.039576-1.072377-4.854236-2.491809-4.854236-3.795981v-.335529c0 .036159.211806.168555.23903.189771.097867.074766.197087.147645.297783.218688.200982.141729.407089.276012.617419.403461.420906.255459.85772.483531 1.303349.691356.86838.404991 1.770421.738072 2.684229 1.023111.926395.289119 1.870748.539325 2.821866.730932 2.923751.620619 6.270909.952068 9.755417.952068 1.742131 0 3.450068-.082875 5.087813-.243321.74456-.072879 1.474483-.161976 2.186612-.266373m-.297988-1.769292c-2.179191.317475-4.539766.483531-6.976191.483531-2.131918 0-4.205821-.127143-6.150738-.371382-.555755-.069768-1.100932-.149226-1.634137-.238017-.533041-.088791-1.053864-.186609-1.561075-.293811-1.267761-.267597-2.449258-.592263-3.518825-.969561-3.039781-1.072683-4.854482.50847-4.854482-.796008v-10.405581c1.277396 1.067379 3.218992 1.993029 5.757876 2.719881.472976.134895.965427-.141474 1.099784-.61812.134357-.476697-.140179-.973284-.613196-1.108842-3.851704-1.103181-6.244464-2.726715-6.244464-4.237437v-.335529c.920696.767346 2.282306 1.535355 4.266009 2.235381 3.606975 1.273011 8.384746 1.9737 13.453125 1.9737 2.4948459 0 4.9192969-.1697781 7.1683526-.4940238"/>
                    <path d="m77.499864 33.99971c.322728 0 .647724.003111.966336.008721.491652.008721.883134.417792.87444.913461-.008568.49572-.414162.895713-.905898.881688-.308322-.00561-.622818-.008364-.934878-.008364-4.873008 0-9.441936.665142-12.864894 1.873026-3.03954 1.072377-4.854318 2.491503-4.854318 3.795981 0 1.60854 2.17035 2.65659 3.381252 3.206829 1.185702.538968 2.434026.935901 3.69369 1.257099 3.466554.883575 7.074858 1.205079 10.644144 1.205079 3.971016 0 8.052282-.326196 11.859414-1.522248 1.712256-.53805 5.860386-1.787346 5.859714-4.146759-.000336-1.644087-2.840418-3.41088-7.235634-4.50228-.47733-.118371-.769146-.604707-.651504-1.086045.117642-.481032.599886-.775149 1.077552-.656778 5.459286 1.355274 8.590638 3.631455 8.590722 6.245103v33.071409c0 1.531275-1.049076 3.72708-6.046824 5.490507-3.606918 1.272705-8.384712 1.9737-13.453314 1.9737-5.068266 0-9.845934-.700995-13.453104-1.9737-4.997748-1.763733-6.046698-3.959538-6.046698-5.490813v-33.071103c0-1.531581 1.049076-3.727131 6.046572-5.490813 3.607086-1.272705 8.38488-1.9737 13.45323-1.9737zm17.719002 40.200699c-.306936.255765-.63399.487254-.971712.700332-.969318.611592-2.022636 1.0761-3.097122 1.464618-1.269618.459255-2.575398.812226-3.894786 1.092318-.797286.169167-1.626198.316863-2.480814.442425-.712068.104346-1.441986.193137-2.18652.266067-1.63779.160446-3.345678.243321-5.087922.243321-3.484404 0-6.831552-.331194-9.755298-.952119-.951132-.191607-1.895586-.441762-2.82198-.730932-.91371-.285039-1.815744-.617763-2.68422-1.023111-.445536-.207825-.882336-.435846-1.30326-.69105-.210336-.127398-.416556-.261987-.617526-.403767-.100716-.071043-.19992-.143922-.297654-.218688-.027342-.020859-.23919-.153612-.23919-.189414v.335223c0 1.304478 1.81482 2.723604 4.854234 3.796287 3.422706 1.207578 7.991634 1.87272 12.864642 1.87272 4.87326 0 9.441978-.664836 12.864768-1.87272 3.03954-1.072683 4.85436-2.491809 4.85436-3.796287zm.000588-14.240832c-.920934.767703-2.282532 1.535661-4.26615 2.235738-3.60696 1.272654-8.384838 1.973343-13.453104 1.973343-5.06835 0-9.84627-.700689-13.45323-1.973343-1.983576-.700077-3.345216-1.468035-4.265982-2.235738v.33558c0 1.510722 2.392698 3.134511 6.244476 4.237437.472962.135507.747642.632145.613284 1.109097-.134358.476391-.626808.753015-1.099812.61812-2.538984-.727158-4.48056-1.652451-5.757738-2.71983v7.404996c0 1.304478 1.814568 2.723604 4.85436 3.796287 1.069446.377604 2.251074.701913 3.518844.969561.507192.107151 1.027908.205275 1.561056.29376.53319.088791 1.078392.168249 1.63401.238017 1.94502.24429 4.018812.371688 6.150858.371688 2.436462 0 4.79703-.166362 6.9762-.483531 2.179296-.317169 4.17711-.7854 5.888568-1.389495.189966-.067014.375144-.135252.555366-.20502 2.703792-1.044327 4.298868-2.368134 4.298868-3.590961v-7.396275c-.921018.767958-2.281272 1.536579-4.26615 2.236962-3.606918 1.272654-8.384712 1.973649-13.453104 1.973649-.63525 0-1.28709-.012138-1.937712-.035496-.491526-.017748-.8757-.433347-.85806-.929067.017514-.495363.429744-.881994.921606-.865164.629538.022746 1.260084.034272 1.874166.034272 4.87326 0 9.441978-.665193 12.864768-1.872771 3.039582-1.072683 4.85436-2.491809 4.85436-3.79593h.000252zm-25.8371249 5.3422477.1112429.0121403c.84.144534 1.726242.268209 2.634198.366384.48888.053244.84273.495669.790104.988533-.049098.460173-.43512.801618-.884184.801618-.031794 0-.063966-.00153-.096348-.004947-.944496-.10251-1.867656-.230877-2.743734-.38199-.484764-.083181-.810558-.547383-.727608-1.035912.082866-.488835.542934-.81753 1.027572-.733686zm25.8367469-16.9937077c-.920892.767958-2.28123 1.536579-4.266108 2.236962-3.606834 1.273011-8.384628 1.9737-13.453104 1.9737-5.068266 0-9.84606-.700689-13.453104-1.9737-1.984752-.700383-3.345216-1.469004-4.266024-2.236962l.000126 8.396385c0 1.304427 1.814568 2.723553 4.85436 3.796236 3.422706 1.207578 7.991634 1.872771 12.864768 1.872771 4.873218 0 9.441936-.665193 12.864768-1.872771 3.03954-1.072683 4.854318-2.491809 4.854318-3.796236zm-.00021-3.589125c-1.342404 1.118838-2.932776 1.88649-4.580856 2.429232-4.171692 1.374246-8.773506 1.780206-13.138146 1.780206-2.536464 0-5.058648-.188802-7.567392-.563295-1.778994-.265455-3.546522-.641784-5.259954-1.197327-.83139-.269484-1.651608-.581349-2.444442-.95115-.402612-.187884-.798588-.391629-1.182762-.615621-.179424-.104703-1.263192-.655197-1.264578-.881688v.335223c0 1.304478 1.814568 2.723604 4.85436 3.795981 3.422706 1.207578 7.991634 1.87272 12.864642 1.87272 4.87326 0 9.441978-.664836 12.864768-1.87272 3.039666-1.072377 4.85436-2.491809 4.85436-3.795981zm-25.774602-6.796821c2.918118 0 5.203716 1.555908 5.203716 3.542052 0 1.985838-2.285598 3.541746-5.203716 3.541746-2.918034 0-5.203884-1.555908-5.203884-3.541746 0-1.986144 2.285724-3.542052 5.203884-3.542052zm0 1.795149c-1.959006 0-3.423042.922233-3.423042 1.746903s1.46391 1.746546 3.423042 1.746546c1.959216 0 3.422916-.922182 3.422916-1.746546s-1.4637-1.746903-3.422916-1.746903zm12.5334081-5.5219072.1118259.0027382c.907074.079458 1.806336.184467 2.673468.311559.486486.071349.823536.52683.752892 1.017552-.064428.44676-.445032.768264-.880026.768264-.042588 0-.085848-.002805-.129192-.009333-.833364-.122451-1.698564-.223074-2.571618-.299727-.48993-.042993-.8526-.478227-.809802-.972315.042714-.493527.4746-.858687.964278-.816z"/>
                    <path d="m.999948 27.000038v-2.000172h136.000104v2.000172z"/>
                </g>
                <path d="m95.2039362 25.3345331c0 .9175496.745438 1.6654669 1.6632609 1.6654669h4.5322959c.917823 0 1.663261-.7479173 1.663261-1.6654669v-3.5473702h.763574v3.5473702c0 .9175496.745438 1.6654669 1.663261 1.6654669h4.311195c.917823 0 1.663261-.7479173 1.663261-1.6654669v-5.2110375h.879253c.672077 0 1.281093-.4126553 1.533955-1.032784.251201-.6160556.110225-1.3311569-.36132-1.804368l-8.639675-8.79035211c-.646979-.64916568-1.701739-.66649426-2.350036-.01604067l-9.0207884 8.78476208c-.4868478.4612341-.6349269 1.1805259-.3887539 1.8117595.2494724.6395956.8625504 1.0470232 1.5396348 1.0470232h.5476217zm8.4840198-15.1944049 7.846522 7.9833674h-1.070433c-.552284 0-1 .4477153-1 1v5.8765044h-3.637717v-4.2128371c0-.5522848-.447715-1-1-1h-2.763574c-.552285 0-1 .4477152-1 1v4.2128371h-3.8588178v-5.8765044c0-.5522847-.4477152-1-1-1h-.7138178z"
                      fill-rule="nonzero"/>
            </g>
        </g>
        <path d="m64.64289 1.42857c35.3067 0 63.92854 28.62171 63.92854 63.92854s-28.62184 63.92854-63.92854 63.92854-63.92854-28.62171-63.92854-63.92854 28.62184-63.92854 63.92854-63.92854zm0 4c-33.0976072 0-59.92854 26.8308952-59.92854 59.92854s26.8309328 59.92854 59.92854 59.92854 59.92854-26.8308952 59.92854-59.92854-26.8309328-59.92854-59.92854-59.92854z"
              fill-rule="nonzero"
              mask="url(#a)"/>
    </g>
</svg>