<svg height="131"
     viewBox="0 0 131 131"
     width="131"
     xmlns="http://www.w3.org/2000/svg">
    <mask id="a"
          fill="#fff">
        <path d="m65.3571429.71435c35.3067131 0 63.9285661 28.62171 63.9285661 63.92854s-28.621853 63.92854-63.9285661 63.92854c-35.3067129 0-63.92856647-28.62171-63.92856647-63.92854s28.62185357-63.92854 63.92856647-63.92854z"
              fill="#fff"
              fill-rule="evenodd"/>
    </mask>
    <g fill="none"
       fill-rule="evenodd">
        <g mask="url(#a)">
            <g fill="#2a6199"
               transform="translate(-29 16)">
                <path d="m33.8867639 45.7503425 9.545078-.0000304 28.6870609-.0000922.2715682-.0000009 28.721446-.0000928 9.448959-.0000306 3.581768-.0000116h65.705229l4.456831 22.611906h6.947297l4.886636 29.81065h-78.051613-10.443194l.304978-13.00045h2.817092l-.043329-.2268039-1.227636-6.4260499-5.315655-2.8439963-.285862-.5165358-3.676325-6.6429101h-10.6224776l-3.2562596 7.4661117-.6984214.3176807-4.9401269 2.247043-.8458058 4.4237186h4.4495236l.9174886 15.202192h-15.9843761-68.29076339l4.88686709-29.810326h8.8974668l5.1069957-22.61196h6.446056v-2.601774h1.9082875 1.9082875v2.601774zm80.2558861 1.9997415h-84.042815-8.663963l-6.201669 27.459054c-.170419.561762-.685922.924048-1.243499.924048-.125064 0-.252058-.01836-.377894-.056376-.68708-.209034-1.07501-.935604-.86657-1.622862l1.240411-4.091634h-6.455078l-4.231139 25.810326h64.745324l1.00746-12.772458c.126994-.601614.657551-1.032156 1.272063-1.032156h7.607674l.870237-4.551498c.07913-.41499.354734-.765504.738611-.940248l5.270058-2.397114 3.132583-7.18254c.206896-.474174.674921-.780732 1.191582-.780732h11.494115c.472657 0 .908065.256986 1.137156.670734l3.876019 7.003746 5.08941 2.72295c.346435.185382.590194.517482.664113.903204l1.290205 6.753564h4.84044c.614319 0 1.144876.430542 1.27187 1.031832l.542716 10.570716h74.44203l-4.230946-25.81065h-31.253069c-.71796 0-1.300048-.582606-1.300048-1.301022 0-.71847.582088-1.301076 1.300048-1.301076h23.847466l-3.943955-20.009808zm-43.439282 48.422556h12.393302l-.676079-11.202192h-11.041337zm38.98793 0h6.993162l-.211142-9.00045h-6.570878zm-82.4538942-51.02406h-.9541438zm0 0h.9541437zm1.9082875 0h.9541437zm0 0h-.9541438z"
                      fill-rule="nonzero"/>
                <path d="m94.999132 1.99315 9.96402 9.22945v-3.8972h9.963896v13.12635l8.649806 8.0122c.402504.37355.426374 1.0026.051832 1.4042-.195362.2109-.461404.31745-.72943.31745-.243226 0-.48732-.08785-.678528-.26575l-3.307018-3.0632v21.1486h-47.82711v-21.14765l-3.307018 3.0632c-.40455.37295-1.035214.3502-1.408764-.0514-.37479-.40285-.350858-1.0319.051708-1.40545zm5.044754 34.15685h-10.089446c-.51522 0-.933596.41715-.933596.93155v8.93565h11.9567v-8.93565c0-.5144-.418438-.93155-.933658-.93155zm-5.044754-31.4448-21.92072 20.3055v21.0065h13.949566v-8.93565c0-1.61045 1.312292-2.9196 2.926462-2.9196h10.089446c1.614232 0 2.926524 1.30915 2.926524 2.9196v8.93565h13.949504v-21.0074l-1.992866-1.84565-5.69935-5.279zm17.935174 4.6082h-5.978412v3.75515l5.978412 5.53725z"/>
                <path d="m53.999956 98.000215v-2.00017h81.000024v2.00017z"/>
            </g>
        </g>
        <path d="m65.3571429.71435c35.3067131 0 63.9285661 28.62171 63.9285661 63.92854s-28.621853 63.92854-63.9285661 63.92854c-35.3067129 0-63.92856647-28.62171-63.92856647-63.92854s28.62185357-63.92854 63.92856647-63.92854zm0 4c-33.097621 0-59.92856647 26.8308961-59.92856647 59.92854s26.83094547 59.92854 59.92856647 59.92854 59.9285661-26.8308961 59.9285661-59.92854-26.8309451-59.92854-59.9285661-59.92854z"
              fill="#2a6199"
              fill-rule="nonzero"
              mask="url(#a)"/>
    </g>
</svg>