<svg height="131"
     viewBox="0 0 130 131"
     width="130"
     xmlns="http://www.w3.org/2000/svg">
    <mask id="a"
          fill="#fff">
        <path d="m64.64289 1.42857c35.3067 0 63.92854 28.62171 63.92854 63.92854s-28.62184 63.92854-63.92854 63.92854-63.92854-28.62171-63.92854-63.92854 28.62184-63.92854 63.92854-63.92854z"
              fill="#fff"
              fill-rule="evenodd"/>
    </mask>
    <g fill="none"
       fill-rule="evenodd"
       transform="translate(1)">
        <g mask="url(#a)">
            <g fill="#e85181"
               transform="translate(0 28)">
                <g>
                    <path d="m.999998 69.000245v-2.000175h124.000133v2.000175z"/>
                    <path d="m68.0190039 3.70099173c-2.6312318-2.38709936-6.0595311-3.70099173-9.6472077-3.70099173-3.5876568 0-7.0159462 1.31387837-9.6472424 3.70094404-2.1057114 1.91040063-3.556369 4.37452253-4.1859462 7.08380586-4.5920542 2.3841919-7.5386076 7.0937656-7.5386076 12.2557765 0 7.6621073 6.3736639 13.870866 14.1860971 13.870866 2.2147832 0 4.3904463-.5061374 6.3587697-1.4716455h1.6535096c1.9683235.9655081 4.1439866 1.4716455 6.3587697 1.4716455 7.8124645 0 14.1860971-6.2087895 14.1860971-13.870866 0-5.162077-2.9463822-9.8716735-7.538322-12.2557769-.6295208-2.7092323-2.0802123-5.17336301-4.1859173-7.08375777zm2.4128429 8.45741857c4.4059543 1.8740161 7.3113964 6.1494156 7.3113964 10.8821161 0 6.5455788-5.466613 11.870866-12.1860971 11.870866-2.0709513 0-4.0891795-.5129119-5.876177-1.4716455h-2.618695c-1.7869974.9587336-3.8052257 1.4716455-5.876177 1.4716455-6.7193967 0-12.1860971-5.3252022-12.1860971-11.870866 0-4.7327005 2.905704-9.0080149 7.3116583-10.8821161.3959467-2.66744787 1.7111426-5.12036053 3.7566925-6.9761798 2.2620288-2.0520727 5.2108539-3.1822305 8.3034454-3.1822305s6.0414166 1.1301578 8.3033581 3.1822305c2.0455499 1.85581927 3.3608331 4.30873193 3.7566925 6.9761798z"
                          fill-rule="nonzero"/>
                    <path d="m58 16h2v51h-2z"/>
                    <g fill-rule="nonzero">
                        <path d="m59.7672198 30.4661015 6.491554-3.9493671c.4718259-.2870519.6216147-.9022439.3345627-1.3740698-.287052-.4718258-.902244-.6216146-1.3740698-.3345626l-6.4915541 3.9493671c-.4718258.2870519-.6216146.902244-.3345626 1.3740698s.902244.6216146 1.3740698.3345626z"/>
                        <path d="m58.8906208 24.8631578-5.6525096-6.4794304c-.3630635-.4161771-.9947628-.4592341-1.4109399-.0961706-.416177.3630635-.459234.9947628-.0961705 1.4109399l5.6525096 6.4794303c.3630636.4161771.9947628.4592341 1.4109399.0961706.416177-.3630635.459234-.9947628.0961705-1.4109398z"/>
                    </g>
                </g>
                <path d="m83.4807709 54.4933193c.524414 1.1689659 1.0867405 2.2219221 1.6505111 3.1435593.3422924.5595706.6128211.9558868.7753945 1.1733474.2502728.3347689.6823529.4785653 1.0833194.360529.6731619-.1981649 1.5055726-.5934723 2.4836975-1.1504848.2956448-.1683607.6013516-.3498407.9151245-.5425717.2880607-.1769376.5767722-.3594857.8631815-.5450199-.0906023.6591935-.2165148 1.4008833-.3740228 2.211059-.1246227.6410232-.2667677 1.313314-.4231334 2.0074224-.2139128.9495597-.4433262 1.8918349-.6727118 2.7832735-.0802412.3118336-.1546994.5948609-.2214376.8436783-.0398304.1484977-.0680827.2520449-.0828217.3052498-.2551134.9209085.8031117 1.6407831 1.5659624 1.0652711.0898819-.067809.2464308-.1922024.4601569-.3718417.3491407-.2934568.7362923-.6393727 1.1519548-1.0364538 1.1825568-1.1296928 2.3634711-2.4475884 3.4662154-3.9440617 2.0292372-2.7537657 3.5615889-5.7957384 4.3917274-9.1001385.013639-.0546364.013639-.0546364.026926-.1089727 1.092364-4.4904266.200846-9.240513-1.9338332-13.8623448-.5201974-1.1262887-1.0775259-2.1573896-1.6358856-3.0731279-.3381347-.5545583-.6046261-.951639-.7635757-1.1705948-.5879665-.8099343-1.8693081-.3495323-1.8073281.6493954.2316841 3.734037-.5077323 7.4296189-2.1038708 10.76104.2315752-2.3748041.2357205-5.333584-.0539931-8.9526921-.4375428-5.4509289-2.8146214-9.9868524-6.4888509-13.6474936-1.425486-1.4202142-2.950847-2.6090994-4.4777472-3.5784053-.5363255-.3404699-1.0357961-.6297666-1.4862417-.8691959-.2758441-.1466219-.4780283-.245738-.594391-.2985757-.71445-.3244163-1.5071335.2628061-1.4049315 1.0407774.2938674 2.2369452.2231159 3.9099806-.2218988 5.5883883-.4332869 1.6341754-1.1591259 3.2125616-2.8568087 6.364902-.1597374.2966082-.3275292.6066995-.5624226 1.0397517-.2963242.5460667-.4605612.8487566-.6076797 1.1203159-.5180388.9562245-.9280988 1.7191692-1.3498758 2.5144185-1.1157433 2.1037047-2.154433 4.138725-3.2309658 6.3532062-3.7459015 7.7040308-2.3252621 14.6131913 2.2903516 20.377426.9539872 1.1913922 1.975081 2.2349739 2.9977019 3.125474.6190997.5391132 1.1073216.9115222 1.3996798 1.1108447.7826384.5335833 1.799516-.2187616 1.5181897-1.1232446-2.6108217-8.3939675-1.4313417-14.660855 2.0880008-19.1553774.5849014-.7469726 1.2012325-1.3946049 1.8231374-1.9465515.0244822 3.6721155.9158514 7.2223969 2.4031949 10.5378185zm-10.6687254 6.2009484c-4.1697203-5.2073783-5.4257459-11.3159531-2.0528435-18.2528529 1.0657216-2.192242 2.0938773-4.2066239 3.1991533-6.2905928.4186014-.7892618.8260558-1.5473586 1.3415205-2.4988315.1467565-.2708914.310614-.5728817.6071941-1.1194203.2357643-.4346579.4043944-.7462983.5652683-1.0450169 1.7695227-3.285736 2.543345-4.9684652 3.0291314-6.8006468.3756007-1.4166072.5211209-2.8260138.4467633-4.4454292.0840285.0518286.1692517.1051493.255603.1599668 1.4103035.8952881 2.8221463 1.9956958 4.1380504 3.3067334 3.357598 3.3451806 5.5105424 7.453413 5.9068371 12.3904705.5653028 7.0617737-.0222278 11.3437993-1.1410836 13.5271269-.1054155.2207403-.2271433.4033331-.3760615.5710605-.8812699.9925797.5994124 2.3191777 1.4895789 1.3345688 3.5251123-3.8991099 5.6525429-8.7761303 6.121814-13.8954056.1519451.3006608.3017119.6100076.44832.9274315 1.9625291 4.2491063 2.7739907 8.5726459 1.8061981 12.5509908-.0115804.0473575-.0115804.0473575-.0234003.0947086-.7618745 3.0326726-2.1781681 5.8442506-4.0619981 8.4006923-.7302823.9910257-1.4978378 1.8988756-2.2756624 2.7187413.0573332-.2448915.1139236-.4910791.1695189-.7378667.1604942-.7124347.3066696-1.4037878.4352718-2.0652805.3701485-1.9039369.5779942-3.4641975.5779942-4.5936857 0-.815351-.9233267-1.2879901-1.5847503-.8112134-.1401024.1009906-.3963999.2812691-.738185.5141668-.5704391.3887063-1.1656974.7773235-1.7542364 1.138826-.2956995.1816297-.5825523.3519172-.8580587.5088097-.5233069.2980074-.9933696.5404281-1.3919942.7168171-.0812437-.1261475-.1662833-.2615272-.2545945-.4058961-.5211202-.8519134-1.0436844-1.8304148-1.531835-2.9185461-1.645033-3.6669257-2.5004163-7.6284094-2.1507765-11.6858258.0687691-.7980348-.7817709-1.3490107-1.48196-.9600068-1.0314639.57305-2.5181797 1.7565902-3.9930727 3.6401635-3.4519281 4.408428-4.878842 10.3198163-3.2577032 17.8262121-.5499643-.552007-1.0911552-1.1530055-1.6100014-1.8009695z"
                      fill-rule="nonzero"/>
            </g>
        </g>
        <g fill="#e85181"
           fill-rule="nonzero">
            <path d="m25.7839194 95.1388075c0 1.0198723.8184707 1.8611925 1.8378033 1.8611925h5.7250051c1.0193326 0 1.8378032-.8413202 1.8378032-1.8611925v-4.884832h1.4908304v4.884832c0 1.0198723.8184707 1.8611925 1.8378032 1.8611925h5.445721c1.0193326 0 1.8378033-.8413202 1.8378033-1.8611925v-7.0378132h1.3737922c.7475214 0 1.420964-.4674927 1.6970854-1.1612622.2712721-.6815854.1190294-1.4727643-.3937775-1.9999969l-10.9146089-11.3771322c-.7161174-.7361445-1.8946992-.7559819-2.6113197-.0193553l-11.3975974 11.3714703c-.5307031.5151184-.6904936 1.3103225-.4237835 2.0109791.2720717.714632.9486757 1.1752972 1.7025493 1.1752972h.9548906zm10.4573731-20.0609966 10.5750484 11.0231834h-2.019652c-.5522848 0-1 .4477153-1 1v7.8990057h-5.1213275v-5.7460245c0-.5522848-.4477152-1-1-1h-3.4908304c-.5522847 0-1 .4477152-1 1v5.7460245h-5.4006116v-7.8990057c0-.5522847-.4477152-1-1-1h-1.5911121z"
                  mask="url(#a)"/>
            <path d="m64.35711.71435c35.30683 0 63.92854 28.62171 63.92854 63.92854s-28.62171 63.92854-63.92854 63.92854c-35.3067 0-63.92854-28.62171-63.92854-63.92854s28.62184-63.92854 63.92854-63.92854zm0 4c-33.0976072 0-59.92854 26.8308952-59.92854 59.92854s26.8309328 59.92854 59.92854 59.92854c33.097691 0 59.92854-26.830849 59.92854-59.92854 0-33.097691-26.830849-59.92854-59.92854-59.92854z"/>
        </g>
    </g>
</svg>