<svg height="130"
     viewBox="0 0 130 130"
     width="130"
     xmlns="http://www.w3.org/2000/svg">
    <mask id="a"
          fill="#fff">
        <path d="m65.35711.71435c35.3067 0 63.92854 28.62171 63.92854 63.92854s-28.62184 63.92854-63.92854 63.92854-63.92854-28.62171-63.92854-63.92854 28.62184-63.92854 63.92854-63.92854z"
              fill="#fff"
              fill-rule="evenodd"/>
    </mask>
    <g fill="#2a6199"
       fill-rule="evenodd">
        <path d="m30.8550275 86.9658014h-9.8755199v-10.6605144c-.6024866-.557556-.9795076-1.3556541-.9795076-2.2401186 0-1.68024 1.3605855-3.0486081 3.0425597-3.0486081h7.0810466l.6746274-30.5415107h7.9971848l.5878 26.600627h2.2311997l.9795747-15.763289h5.9553552l.9794364 15.763289h1.8809538l.9794364-15.763289h5.9553552l.9795748 15.763289h1.8808318l.9794364-15.763289h5.9553552l.9795748 15.763289h5.8380152c1.682041 0 3.0426819 1.3683131 3.0426819 3.0486081 0 .8845011-.3770335 1.682579-.9795076 2.2401172v14.6013995h-41.1399303zm44.1654649-2v-11.9509618c-.0210174.0003687-.0419126.0015978-.0630521.0015978h-1.9590152c-.5061279 0-.9164555-.4127082-.9164555-.9217723s.4103276-.9217723.9164555-.9217723h1.9590152c.5748008 0 1.0425597-.4703496 1.0425597-1.0486081s-.4677589-1.0486081-1.0426819-1.0486081h-5.7137296l.0097225.1564554h-8.1823637l.0097212-.1564554h-1.6322783l.0097226.1564554h-8.1823637l.0097212-.1564554h-1.6324178l.0097212.1564554h-8.1823637l.0097226-.1564554h-2.0627196l.0034572.1564554h-3.654345c-.4784168 0-.8755929.3994686-.8755929.8921527 0 .2616868.1109465.5023319.3043628.6733355l.4103886.3628336c.0523986.0081889.1060749.012439.1607193.012439h33.3046026c.5061278 0 .9164555.4127082.9164555.9217723s-.4103277.9217723-.9164555.9217723h-33.2004435v11.949364zm-41.3071416-12.601347c-.6025458-.5575504-.9796298-1.3556617-.9796298-2.2401697 0-1.6801785 1.3606466-3.0486081 3.042682-3.0486081h1.6063273l-.5436056-24.600627h-4.0845809l-.6304496 28.5415107h.166944l-.1346359 6.0973391h-.1669915l.0476337-2.1564554h.167018l-.2211251 10.0083574h1.7304134zm32.5468049-19.0520668h-2.1961939l-.8551684 13.763289h3.9066515zm-9.7951982 0h-2.1961939l-.8551684 13.763289h3.9066514zm-9.7951983 0h-2.1961938l-.8552892 13.763289h3.9066514zm-19.7086803 23.8015118c.6010399 0 1.0835446-.4853039 1.0835446-1.0782277s-.4825047-1.0782277-1.0835446-1.0782277h3.0754777l.042872-1.9408837h-7.0368689c-.5748008 0-1.0425597.4703496-1.0425597 1.0486081 0 .5781356.4676367 1.0486081 1.0425597 1.0486081.5061278 0 .9164555.4127082.9164555.9217723s-.4103277.9217723-.9164555.9217723c-.0211395 0-.0420347-.0011062-.0630521-.0015978v8.0100781h6.8359758l.1734396-7.851902zm0-2c-.5061278 0-.9164554.4127082-.9164554.9217723s.4103276.9217723.9164554.9217723h3.0313l.0407218-1.8435446z"
              fill-rule="nonzero"
              mask="url(#a)"/>
        <path d="m16 86h97v2h-97z"
              mask="url(#a)"/>
        <g fill-rule="nonzero">
            <path d="m89.2039362 86.3339995c0 .9175496.745438 1.6654669 1.6632609 1.6654669h4.5322958c.9178229 0 1.6632608-.7479173 1.6632608-1.6654669v-3.5473702h.7635741v3.5473702c0 .9175496.745438 1.6654669 1.6632609 1.6654669h4.3111953c.917823 0 1.663261-.7479173 1.663261-1.6654669v-5.2110375h.879253c.672077 0 1.281093-.4126554 1.533955-1.032784.251201-.6160557.110225-1.3311569-.36132-1.804368l-8.6396746-8.7903521c-.6469793-.6491657-1.7017392-.6664943-2.3500365-.0160407l-9.0207883 8.7847621c-.4868478.4612341-.6349269 1.1805259-.3887539 1.8117595.2494724.6395956.8625504 1.0470232 1.5396348 1.0470232h.5476217zm8.48402-15.1944049 7.8465218 7.9833674h-1.070433c-.552284 0-1 .4477153-1 1v5.8765044h-3.6377172v-4.2128371c0-.5522848-.4477153-1-1-1h-2.7635741c-.5522847 0-1 .4477152-1 1v4.2128371h-3.8588175v-5.8765044c0-.5522847-.4477152-1-1-1h-.7138178z"
                  mask="url(#a)"/>
            <path d="m44.3978764 31c1.8891847 0 3.3972516-1.5964521 3.3972516-3.5382071v-1.1844526c0-.6736378.4973814-1.2002646 1.0780762-1.2002646h29.7289194c1.8896363 0 3.3978764-1.5969227 3.3978764-3.5388684 0-1.9414244-1.5083794-3.5382073-3.3978764-3.5382073h-29.7289194c-4.355595 0-7.8732042 3.7244404-7.8732042 8.2773403v1.1844526c0 1.9418948 1.5082063 3.5382071 3.3978764 3.5382071zm0-2c-.7589131 0-1.3978764-.67629-1.3978764-1.5382071v-1.1844526c0-3.4730726 2.6485369-6.2773403 5.8732042-6.2773403h29.7289194c.7586547 0 1.3978764.6766854 1.3978764 1.5382073 0 .8621184-.6391678 1.5388684-1.3978764 1.5388684h-29.7289194c-1.7116225 0-3.0780762 1.4467995-3.0780762 3.2002646v1.1844526c0 .8618525-.6389093 1.5382071-1.3972516 1.5382071z"
                  mask="url(#a)"/>
            <path d="m89.557888 25c1.9062952 0 3.442112-1.5720657 3.442112-3.5 0-1.9279342-1.5358169-3.5-3.442112-3.5h-2.115776c-1.9062951 0-3.442112 1.5720658-3.442112 3.5 0 1.9279343 1.5358168 3.5 3.442112 3.5zm-3.557888-3.5c0-.8336723.6509634-1.5 1.442112-1.5h2.115776c.7911486 0 1.442112.6663277 1.442112 1.5 0 .8336724-.6509633 1.5-1.442112 1.5h-2.115776c-.7911487 0-1.442112-.6663276-1.442112-1.5z"
                  mask="url(#a)"/>
            <path d="m72 31.5003256c0 1.9278125 1.5360271 3.4996744 3.4424449 3.4996744h23.1157465c1.9063786 0 3.4418086-1.5718161 3.4418086-3.4996744 0-1.9279041-1.535468-3.5003256-3.4418086-3.5003256h-23.1157465c-1.906379 0-3.4424449 1.5724674-3.4424449 3.5003256zm2 0c0-.833637.6512552-1.5003256 1.4424449-1.5003256h23.1157465c.7909857 0 1.4418086.6664859 1.4418086 1.5003256 0 .8336371-.650619 1.4996744-1.4418086 1.4996744h-23.1157465c-.7913936 0-1.4424449-.66624-1.4424449-1.4996744z"
                  mask="url(#a)"/>
            <path d="m65.35711.71435c35.3067 0 63.92854 28.62171 63.92854 63.92854s-28.62184 63.92854-63.92854 63.92854-63.92854-28.62171-63.92854-63.92854 28.62184-63.92854 63.92854-63.92854zm0 4c-33.0976072 0-59.92854 26.8308952-59.92854 59.92854s26.8309328 59.92854 59.92854 59.92854 59.92854-26.8308952 59.92854-59.92854c0-33.0976448-26.8309328-59.92854-59.92854-59.92854z"
                  mask="url(#a)"/>
        </g>
    </g>
</svg>