<svg height="132"
     viewBox="0 0 130 132"
     width="130"
     xmlns="http://www.w3.org/2000/svg">
    <mask id="a"
          fill="#fff">
        <path d="m64.64289 1.42857c35.3067 0 63.92854 28.62171 63.92854 63.92854s-28.62184 63.92854-63.92854 63.92854-63.92854-28.62171-63.92854-63.92854 28.62184-63.92854 63.92854-63.92854z"
              fill="#fff"
              fill-rule="evenodd"/>
    </mask>
    <g fill="#fff"
       fill-rule="evenodd">
        <path d="m65 1.41766489c35.11378 0 63.57923 28.40322361 63.57923 63.44053591 0 35.0373122-28.46545 63.4405362-63.57923 63.4405362s-63.57923-28.403224-63.57923-63.4405362c0-35.0373123 28.46545-63.44053591 63.57923-63.44053591zm0 4c-32.9066406 0-59.57923 26.61436691-59.57923 59.44053591 0 32.8261689 26.6725894 59.4405362 59.57923 59.4405362s59.57923-26.6143673 59.57923-59.4405362c0-32.826169-26.6725894-59.44053591-59.57923-59.44053591z"
              fill-rule="nonzero"
              mask="url(#a)"/>
        <g fill-rule="nonzero"
           mask="url(#a)">
            <path d="m98.059906 12.405837c-6.2809513 0-12.3086036-2.239083-16.701547-6.14319193l-1.3289157-1.18103762-1.3286272 1.18136205c-4.3903057 3.9036837-10.4176295 6.1428675-16.6988641 6.1428675-6.2796823 0-12.307704-2.2396432-16.7015685-6.14445797l-1.3286372-1.18075615-1.3285758 1.18082541c-4.3930123 3.90446731-10.4217516 6.14438871-16.7014905 6.14438871-8.3833477 0-16.17705128-3.97973491-20.32582516-10.32810481-.85320553-1.30461929-2.68890958-1.62014079-3.7280265-.13824724-.34070194.48587796-.5049198 1.04574544-.63330303 1.8245643-.17527301 1.06326905-.26493437 2.62370111-.26493437 4.3803072 0 4.07507325.38728243 7.61680595 1.27707099 8.97723255 4.90986467 7.5100844 13.97654867 12.139571 23.67623807 12.139571 6.6412404 0 13.0540076-2.1758664 18.0301586-6.0495715 4.9765004 3.8738959 11.3888777 6.0495715 18.0303574 6.0495715 6.6422159 0 13.0538291-2.1750054 18.0278557-6.04769 4.9760952 3.872844 11.3876834 6.04769 18.0298543 6.04769 9.697956 0 18.763744-4.6293302 23.673895-12.1399065.888304-1.3608689 1.275601-4.9024935 1.275601-8.97619163 0-1.7566213-.089179-3.31685738-.264102-4.37995455-.128127-.77868981-.292056-1.33840068-.632302-1.82423985-1.038683-1.48314005-2.875277-1.16767009-3.728145.13684777-4.15138 6.34855056-11.944879 10.32812176-20.326167 10.32812176zm22.000138-9.233672c1.267824-1.939433 1.266726 10.915571.000976 12.854685-4.530714 6.930188-12.960304 11.23431-21.999894 11.23431-6.832122 0-13.314592-2.457547-18.030136-6.647931-4.713104 4.190384-11.195696 6.647931-18.027574 6.647931-6.83078 0-13.314226-2.458156-18.03038-6.649787-4.715544 4.191312-11.199478 6.649787-18.030136 6.649787-9.041908 0-17.472108-4.304731-22.002456-11.23431-1.268678-1.939723-1.267336-14.794727.00122-12.855004 4.528396 6.92926 12.958596 11.233991 22.000016 11.233991 6.83078 0 13.314714-2.458475 18.030136-6.649497 4.716276 4.191341 11.199478 6.649497 18.030136 6.649497 6.832 0 13.314714-2.457547 18.027818-6.64825 4.715422 4.190703 11.198258 6.64825 18.030136 6.64825 9.03959 0 17.469302-4.304731 22.000138-11.233672z"
                  transform="translate(3 70)"/>
        </g>
        <path d="m64.999132 29.993032 9.96402 9.229788v-3.897234h9.963896v13.12605l8.649806 8.012196c.402504.373896.426374 1.002888.051832 1.404486-.195362.210654-.461404.317196-.72943.317196-.243226 0-.48732-.087588-.678528-.265464l-3.307018-3.063204v25.148286h-47.82711v-25.147314l-3.307018 3.06315c-.40455.372924-1.035214.35019-1.408764-.051678-.37479-.40257-.350858-1.031562.051708-1.405458zm5.044754 34.15716h-10.089446c-.51522 0-.933596.41715-.933596.93123v12.9357h11.9567v-12.9357c0-.51408-.418438-.93123-.933658-.93123zm-5.044754-31.444794-21.92072 20.305512v25.006212h13.949566v-12.9357c0-1.610118 1.312292-2.91897 2.926462-2.91897h10.089446c1.614232 0 2.926524 1.308852 2.926524 2.91897v12.9357h13.949504v-25.00713l-1.992866-1.845666-5.69935-5.279256zm17.935174 4.607874h-5.978412v3.755484l5.978412 5.536944z"
              mask="url(#a)"/>
    </g>
</svg>