<svg height="132"
     viewBox="0 0 131 132"
     width="131"
     xmlns="http://www.w3.org/2000/svg">
    <mask id="a"
          fill="#fff">
        <path d="m64.64289 1.42857c35.3067 0 63.92854 28.62171 63.92854 63.92854s-28.62184 63.92854-63.92854 63.92854-63.92854-28.62171-63.92854-63.92854 28.62184-63.92854 63.92854-63.92854z"
              fill="#fff"
              fill-rule="evenodd"/>
    </mask>
    <g fill="#fff"
       fill-rule="nonzero">
        <g mask="url(#a)">
            <g transform="translate(33 26)">
                <path d="m17.2832566 34.8796692-10.34741474-10.2851866c-.78983038-.7850804-.73990044-1.9214065-.15707889-2.6649604-.57967147-.7393844-.63261775-1.8672865.1457678-2.6534795l10.34741473-10.4512022c.5544147-.55997558 1.285312-.69981137 1.9291636-.52789484v-.90149888c0-1.24991029 1.1336916-2.19357825 2.3628584-1.96680802l8.3588322 1.54212943c.4737222.08739749.8825833.33743455 1.1732255.68600903.3900914-.2175927.8569653-.30746907 1.3382242-.21778523l8.1918121 1.52656546c.4722715.08800903.8797943.33767562 1.1696865.6853528.3900913-.2175927.8569653-.30746907 1.3382241-.21778523l8.1918121 1.52656548c.472272.0880091.8797951.3376761 1.1696873.6853538.3911312-.2181742.859421-.3079445 1.341906-.2170966l8.024792 1.5110017c.9452437.1779815 1.6299199 1.003608 1.6299199 1.965462v13.8843535c0 .961854-.6846762 1.7874804-1.6299199 1.965462l-8.024792 1.5110016c-.482485.090848-.9507748.0010777-1.341906-.2170965-.2898922.3476777-.6974153.5973447-1.1696873.6853538l-8.1918121 1.5265654c-.4812588.0896839-.9481328-.0001925-1.3382241-.2177852-.2898922.3476772-.697415.5973438-1.1696865.6853528l-8.1918121 1.5265655c-.4812589.0896838-.9481328-.0001925-1.3382242-.2177852-.2906422.3485744-.6995033.5986115-1.1732255.686009l-8.3588322 1.5421294c-1.2291668.2267702-2.3628584-.7168977-2.3628584-1.966808v-.9014724c-.6389407.1706362-1.3638671.0340658-1.9178525-.5165879zm36.1840407-21.4862595v16.9063569l8.0247921-1.5110017v-13.8843535zm-10.6997227-1.9941329v20.8946227l8.1918121-1.5265655v-17.8414917zm-10.6997227-1.99413302v24.88288872l8.1918121-1.5265655v-21.8297578zm-10.8667428-2.009697v28.90228272l8.3588322-1.5421294v-25.81802389zm-2.5079106 2.83653272-10.34741478 10.4512022h10.34741478zm-10.34741478 12.9440307 10.34741478 10.2851866v-10.2851866z"/>
                <path d="m4.3185451 8.40514378v75.59485622h2v-75.59485622z"/>
                <path d="m5 10c2.76142375 0 5-2.23857625 5-5s-2.23857625-5-5-5-5 2.23857625-5 5 2.23857625 5 5 5zm0-2c-1.65685425 0-3-1.34314575-3-3s1.34314575-3 3-3 3 1.34314575 3 3-1.34314575 3-3 3z"/>
            </g>
        </g>
        <path d="m65.3571429 1.42857c35.3067131 0 63.9285661 28.62171 63.9285661 63.92854s-28.621853 63.92854-63.9285661 63.92854c-35.3067129 0-63.92856647-28.62171-63.92856647-63.92854s28.62185357-63.92854 63.92856647-63.92854zm0 4c-33.097621 0-59.92856647 26.8308961-59.92856647 59.92854s26.83094547 59.92854 59.92856647 59.92854 59.9285661-26.8308961 59.9285661-59.92854-26.8309451-59.92854-59.9285661-59.92854z"/>
    </g>
</svg>