<svg height="131"
     viewBox="0 0 130 131"
     width="130"
     xmlns="http://www.w3.org/2000/svg">
    <mask id="a"
          fill="#fff">
        <path d="m64.64289 1.42857c35.3067 0 63.92854 28.62171 63.92854 63.92854s-28.62184 63.92854-63.92854 63.92854-63.92854-28.62171-63.92854-63.92854 28.62184-63.92854 63.92854-63.92854z"
              fill="#fff"
              fill-rule="evenodd"/>
    </mask>
    <g fill="#e85181"
       fill-rule="nonzero">
        <path d="m67.1327162 57.0922002-.4896793-.074833c-2.0768553-.3173858-3.747982-1.0285964-4.9922527-2.164001l-.8976085-.8190733 1.8053609-6.7640628 7.1901177-2.5170122-2.1958661.1122789-.6261459-.6129966-1.252111-1.2282459c-.926576-.9859981-1.5100738-1.8442413-1.7760369-2.7409565-.7921759-2.4688214-1.0207764-4.966991-.6728487-7.4511064.4023804-2.8518172 1.5814385-4.8180001 3.6960878-5.549149l.6992478-.2417678.688245.2715103.0963316.0380085c1.290407.509195 1.8292804.7159103 2.4598416.9367463.8577358.2764621 1.534314.4762816 2.0027267.5934892 2.3124086-.6613231 4.0110026.8073899 4.8303687 3.401026.6086869 1.8434939.7395935 3.7525742.3961362 5.7260787-.3684295 2.157491-1.2058127 3.773718-2.6199933 4.6426822l-.1659984.1020002-.1825635.0680447c-.3578322.1333705-1.8454256.7849646-3.8934038 1.7166731l-.3462118.1575059-.5895585.0301452 3.1587047 9.8302572c.8436119-1.404399 1.7812485-2.5869188 2.8218064-3.5447859l.3023057-.2782821.3875325-.1365587.5355269-.1886919c4.2772938-1.4879085 8.0884399-.4891728 11.0084298 2.8919819 1.6841248 1.9625725 3.2394852 5.2717577 4.7539631 9.9733263.3332711.990624.2916484 2.0151175-.0836065 3.0856377-.3105487.8264347-.7798554 1.6304209-1.4108008 2.4109751-.6670594.7982156-1.3997073 1.4732914-2.2027544 2.0032702-.8424559.5899524-1.7540398 1.0511258-2.7179451 1.3847099l-8.4164898 2.9102238-.732138-1.7128507c-.1014609-.2373697-1.2748379-1.4316571-3.304057-3.1604445-4.5324784-4.249306-3.4933178-3.2546792-3.7268334-3.8180922l-.0577755-.1578451c-.6723519-2.1073151-.2955191-4.713116.9845243-7.8432169.4914594-1.2388391 1.0259745-2.368809 1.6066499-3.3889417zm28.0672453 30.6445464 3.3031815 10.292695-6.4548692 2.2166684-.4968581-.081433c-.0597022-.009784-.119045-.019867-.1780291-.030249l-.325225.111682-.4968596-.081436c-2.075041-.3401041-3.7368673-1.0447091-4.9603737-2.1597954l-.8975309-.8179968 1.8033867-6.7889046 7.7030522-2.6612306.0998207.3110335zm-2.2796215 2.5580374-4.76398 1.64584-1.21823 4.586064c.90324.8232 2.20714 1.380848 3.93666 1.66432l.3564117-.1223915c.2076107.0452825.4221527.0860857.6436783.1223915l4.12503-1.416576-2.07948-6.479648-.9002693.3110213zm-27.5803791-26.2967919c.0155286.0214226.0155286.0214226-.042284-.0549234-.0117347-.0150886-.0195646-.0251565-.0294952-.0368472l.3179627.5165559-.159568.7762377c-.310753 1.5116952.4304148 2.5131927 2.2255002 3.3298756.6261913.2848889 1.3159958.506232 2.0082728.6664898.4123164.0954486.72184.1473395.8710572.1652102l1.2973726.1553773 2.0133536 6.6452017 5.4137499 55.8021693-100.2969415.038126 1.2443563-58.0357008 10.37815486-5.9798743-1.73893306-13.6439613 14.43096684-1.3055774.72466205-6.7305334 16.20961841-1.4389366.8457307-10.9465009 3.890855-5.3926243 9.174878 2.0473216.6949364 5.9518827 10.5233246-.680895.6965619 12.9040746 11.6809975 4.7284195.6465927 9.3148289c.3098882-.02691.7094764-.080499 1.283207-.1679026l.1189848-.0181634c1.2423697-.1898908 1.746148-.2510902 2.3907377-.2532511 1.2268716-.0041129 2.2205693.2881258 2.8964762 1.2167688-.0486289-.0972567-.0608175-.1216252-.0602365-.1203609l.004579.0091904c.0241158.0410859.0775067.1291179.1578322.2597762.0914372.1378409.1543406.2315539.1867371.2785464zm-.8721668-.6663681-.2756176-.0857515-.4066732-.0518047-.5601605.0661102-.8915302.5086783-.4681304.7203517-.1005411.3735311-.0190478.146811c.0743686.4488607.1201645.7252675.150304.8930429.091178.0939398.1668174.1302239.8223882.4447009l.371491.0635929.8228976-.1108971.8294409-.5631331.3090886-.4724051.1364821-.3942713.0456496-.2931337.0059145-.1148017c-.0596705-.4016607-.0889942-.5990481-.1109582-.7057479-.0989178-.1049954-.1094576-.1109936-.6609975-.4248729zm-2.5170704 2.8093208.0060718-.0305541c-.0299756-.0466259-.0907775-.1433208-.1421235-.2236231-.0769787-.1203902-.1612696-.2496569-.178276-.276249l.0037009.0062157c.0144396.0225965.0387066.0490929.2185097.2454139.013742.0149592.0258986.0281924.0377907.0404448.0284201.1582042.0429191.2198178.0543264.2383518zm9.9198863 10.4105432-1.57703-5.205088s-7.97615-.955248-6.82604-6.550096c-.89453-1.35464-5.9995.97328-7.00492-.478912l-.65624-9.453808-11.70091-4.73648-.65611-12.154688-10.40143.673008-.75049-6.42768-6.50234-1.45096-2.79084 3.868032-.93288 12.074496-16.26053 1.443456-.72436 6.727728-13.99775 1.266384 1.64502 12.907104-10.55509 6.081824-1.17637 54.86488 96.05024-.036512zm-11.4916512-42.2339371.3614795.4695173c.5712991.742047.9751082 1.4878266 1.1494786 2.116043.7624362 2.3084283-.2918991 4.2806805-2.6381327 5.1028626l-5.0119417 1.7231946-3.569106-4.2884836-.1191545-.3563402c-.7834985-2.3431108.1795585-4.5359205 2.4510277-6.3617312l.8675238-.6973171zm-1.2232588 1.6896011-4.90009-1.725696c-1.66244 1.336272-2.29255 2.717344-1.80726 4.16864l2.44608 2.939104 3.70708-1.27456c1.33783-.468832 1.79855-1.345232 1.38931-2.584288-.11947-.425264-.39182-.947408-.83512-1.5232zm-2.2274897-15.3307938.0246815.0125036c1.5004034.77319 2.5386667 1.8725954 3.0549632 3.3415324.596163 1.9073291-.2079276 3.9215939-2.0782654 6.1333368l-.5013647.592882-8.5897229 1.1073581-.2838985-9.1629074.6981139-.6215038c.9618691-.856315 1.8197871-1.4185244 2.7241415-1.7203324 1.6985765-.5840981 3.370905-.469831 4.9513514.3171307zm-.8914703 1.7903298c-1.08303-.53928-2.19921-.632352-3.40951-.21616-.64753.21616-1.30377.663264-2.04464 1.322832l.18668 6.025152 5.63316-.726208c1.47485-1.744064 2.03684-3.156384 1.6965-4.245248-.30719-.871696-.97136-1.59824-2.06219-2.160368zm17.2484 8.378944.03406.115248c-.20423.07168-1.22707-.176624-3.06735-.769776-.88673-.30968-1.78113-.664608-2.67657-1.017856-1.27855.442064-2.06206 1.7612-2.36925 3.938368-.30641 2.187696-.10205 4.38256.59683 6.560624.17888.602.63089 1.239392 1.32912 1.9824l1.19379 1.16872 2.0787-.106288c2.33532-1.062432 3.66522-1.63688 4.02311-1.770272.83499-.513072 1.4144-1.628704 1.69559-3.275328.28964-1.66432.17888-3.239824-.32383-4.762352-.55406-1.753472-1.37176-2.452576-2.5142-2.063488zm-9.06711 17.962672-1.21914 4.567696c.91195.83216 2.20714 1.398544 3.94628 1.66432l4.10761-1.425088-2.07948-6.471584zm19.2550305-9.8104291 7.6817809-2.6649841 3.3154886 10.2927568-6.4349558 2.2177251-.4952934-.0797481c-2.094483-.3372369-3.7546479-1.0397762-4.9838529-2.1608182l-.8987424-.8196581zm1.6578095 1.5418051-1.22694 4.585392c.90324.82376 2.19908 1.381408 3.95408 1.663984l4.10774-1.41568-2.08754-6.480656zm1.86667 14.06664c-2.37796-2.75352-5.32597-3.531808-8.83766-2.310224l-.52793.186032c-1.6536 1.522192-3.0342 3.753008-4.1756 6.630176-1.1258 2.753184-1.44092 4.922176-.93821 6.497792.05148.124208 1.14231 1.151472 3.24714 3.1248 2.25862 1.9208 3.50285 3.196256 3.7752 3.833424l6.656-2.301488c.767-.26544 1.51658-.637168 2.2243-1.132768.72449-.478912 1.31261-1.045968 1.81532-1.64752.48607-.601664.8437-1.221024 1.07328-1.831984.21385-.61096.24791-1.186416.06019-1.7444-1.44872-4.496912-2.90589-7.59528-4.37203-9.30384zm12.4993966 17.7917146 7.7028264-2.6613942 3.303604 10.2923678-6.455127 2.2171404-.496914-.0814392c-2.074921-.3400584-3.7367128-1.0447016-4.9602976-2.1597075l-.8976816-.8180229zm1.6595534 1.5426214-1.21836 4.586064c.90324.823088 2.20701 1.380848 3.93666 1.66432l4.12529-1.416912-2.07974-6.479424z"
              mask="url(#a)"/>
        <path d="m64.64289.71435c35.3067 0 63.92854 28.62171 63.92854 63.92854s-28.62184 63.92854-63.92854 63.92854-63.92854-28.62171-63.92854-63.92854 28.62184-63.92854 63.92854-63.92854zm0 4c-33.0976072 0-59.92854 26.8308952-59.92854 59.92854s26.8309328 59.92854 59.92854 59.92854 59.92854-26.8308952 59.92854-59.92854c0-33.0976448-26.8309328-59.92854-59.92854-59.92854z"/>
    </g>
</svg>