<svg height="131"
     viewBox="0 0 130 131"
     width="130"
     xmlns="http://www.w3.org/2000/svg">
    <mask id="a"
          fill="#fff">
        <path d="m64.64289 1.42857c35.3067 0 63.92854 28.62171 63.92854 63.92854s-28.62184 63.92854-63.92854 63.92854-63.92854-28.62171-63.92854-63.92854 28.62184-63.92854 63.92854-63.92854z"
              fill="#fff"
              fill-rule="evenodd"/>
    </mask>
    <g fill="#fff"
       fill-rule="evenodd">
        <g fill-rule="nonzero"
           mask="url(#a)">
            <g transform="translate(25 19)">
                <path d="m.54263228 68 .52433012-1.3597789c3.41859438-8.8656597 5.52828938-16.4039808 6.59116875-23.5284527.75414698-5.0572416 1.04022685-10.310804.87106223-16.0824715l-.03016816-1.0292969h22.99551248l-.030122 1.0292533c-.1686834 5.7638352.1181833 11.0176803.8737202 16.0824877 1.0612064 7.1150053 3.1718091 14.6521974 6.5948875 23.5284433l.5244059 1.3598157zm36.00620562-2c-3.1699883-8.4229959-5.159292-15.6906048-6.1888172-22.593199-.7281277-4.8810679-1.0307461-9.9275506-.9202169-15.406801h-18.8859376c.1110921 5.486155-.1907277 10.5323553-.91761771 15.4068138-1.03104613 6.911094-3.01942113 14.1797325-6.1851696 22.5931862z"/>
                <path d="m32.0967091 22-.100955 1.0920526c-.125516 1.3577356-.2288484 2.6796492-.3103222 3.9709181l-.0591227.9370293h-23.2536869l-.05912281-.9370292c-.08176649-1.2959058-.18472906-2.6181738-.30928932-3.971305l-.10049149-1.0916658zm-22.0044913 2c.0569753.6737501.1085821 1.3402319.1548676 2h19.5048431c.0463183-.6586607.098118-1.3251139.1554363-2z"/>
                <path d="m51.655971 37.4258845 8.344029 5.0306064v25.5435091h-22.681583l-.248614-.6358514c-4.1640211-10.649835-7.0030622-22.6865811-7.0697338-28.351851l-.0190486-1.6186205 9.8755017 4.7980381 1.0328408-4.635909 9.7043602 4.6428712zm6.344029 28.5741155v-22.4139379l-4.9957735-3.0119466-1.004706 4.5142518-9.7048666-4.6431135-1.0362331 4.6511356-9.1724553-4.4564612c.4915531 5.7783521 3.0236227 16.0459391 6.6001444 25.3600718z"/>
                <path d="m19.0289723 11c1.6776833 0 3.0284437-1.38265587 3.0284437-3.0767149v-.96909762c0-.44581623.3461626-.80021648.7583722-.80021648h25.1552395c1.6780705 0 3.0289723-1.38304931 3.0289723-3.07725596 0-1.69378848-1.3510248-3.07671504-3.0289723-3.07671504h-25.1552395c-3.764651 0-6.8157882 3.12374562-6.8157882 6.95418748v.96909762c0 1.6941819 1.3508836 3.0767149 3.0289723 3.0767149zm0-2c-.5630201 0-1.0289723-.47686887-1.0289723-1.0767149v-.96909762c0-2.7362629 2.1663711-4.95418748 4.8157882-4.95418748h25.1552395c.5627962 0 1.0289723.47718394 1.0289723 1.07671504 0 .60002766-.4661356 1.07725596-1.0289723 1.07725596h-25.1552395c-1.5274435 0-2.7583722 1.2602213-2.7583722 2.80021648v.96909762c0 .59980164-.4659117 1.0767149-1.0284437 1.0767149z"/>
                <path d="m56.9067611 6c1.6983755 0 3.0932389-1.33259972 3.0932389-3 0-1.66740021-1.3948635-3-3.0932389-3h-1.8135222c-1.6983754 0-3.0932389 1.33259979-3.0932389 3 0 1.66740028 1.3948634 3 3.0932389 3zm-2.9067611-3c0-.54188507.4795196-1 1.0932389-1h1.8135222c.6137193 0 1.0932389.45811493 1.0932389 1 0 .54188513-.4795196 1-1.0932389 1h-1.8135222c-.6137193 0-1.0932389-.45811487-1.0932389-1z"/>
                <path d="m42 12.0002605c0 1.6673189 1.3950477 2.9997395 3.0935242 2.9997395h19.813497c1.6984488 0 3.0929788-1.3324057 3.0929788-2.9997395 0-1.6673488-1.3945577-3.0002605-3.0929788-3.0002605h-19.813497c-1.6984487 0-3.0935242 1.3329267-3.0935242 3.0002605zm2 0c0-.5418624.4797712-1.0002605 1.0935242-1.0002605h19.813497c.6135726 0 1.0929788.4582142 1.0929788 1.0002605 0 .5418625-.4792258.9997395-1.0929788.9997395h-19.813497c-.6139333 0-1.0935242-.4580609-1.0935242-.9997395z"/>
            </g>
        </g>
        <path d="m89.2039362 85.3345331c0 .9175496.745438 1.6654669 1.6632609 1.6654669h4.5322958c.9178229 0 1.6632608-.7479173 1.6632608-1.6654669v-3.5473702h.7635741v3.5473702c0 .9175496.745438 1.6654669 1.6632609 1.6654669h4.3111953c.917823 0 1.663261-.7479173 1.663261-1.6654669v-5.2110375h.879253c.672077 0 1.281093-.4126553 1.533955-1.032784.251201-.6160556.110225-1.3311569-.36132-1.804368l-8.6396746-8.7903521c-.6469793-.6491657-1.7017392-.6664943-2.3500365-.0160407l-9.0207883 8.7847621c-.4868478.4612341-.6349269 1.1805259-.3887539 1.8117595.2494724.6395956.8625504 1.0470232 1.5396348 1.0470232h.5476217zm8.48402-15.1944049 7.8465218 7.9833674h-1.070433c-.552284 0-1 .4477153-1 1v5.8765044h-3.6377172v-4.2128371c0-.5522848-.4477153-1-1-1h-2.7635741c-.5522847 0-1 .4477152-1 1v4.2128371h-3.8588175v-5.8765044c0-.5522847-.4477152-1-1-1h-.7138178z"
              fill-rule="nonzero"
              mask="url(#a)"/>
        <path d="m16 85h97v2h-97z"
              mask="url(#a)"/>
        <path d="m65 1.71435c35.11378 0 63.57923 28.62171 63.57923 63.92854s-28.46545 63.92854-63.57923 63.92854-63.57923-28.62171-63.57923-63.92854 28.46545-63.92854 63.57923-63.92854zm0 4c-32.8997666 0-59.57923 26.8260046-59.57923 59.92854s26.6794634 59.92854 59.57923 59.92854 59.57923-26.8260046 59.57923-59.92854-26.6794634-59.92854-59.57923-59.92854z"
              fill-rule="nonzero"/>
    </g>
</svg>