<svg height="132"
     viewBox="0 0 131 132"
     width="131"
     xmlns="http://www.w3.org/2000/svg">
    <mask id="a"
          fill="#fff">
        <path d="m64.64289 1.42857c35.3067 0 63.92854 28.62171 63.92854 63.92854s-28.62184 63.92854-63.92854 63.92854-63.92854-28.62171-63.92854-63.92854 28.62184-63.92854 63.92854-63.92854z"
              fill="#fff"
              fill-rule="evenodd"/>
    </mask>
    <g fill="#fff"
       fill-rule="evenodd"
       transform="translate(1 1)">
        <g fill-rule="nonzero"
           mask="url(#a)">
            <g transform="translate(-10 24)">
                <path d="m72.97622 87.99983c.67045 0 1.21451-.54801 1.21451-1.22283s-.54406-1.22283-1.21451-1.22283c-17.16187 0-29.12107-4.54464-29.12107-8.62353 0-.67482-.54417-1.22247-1.2144-1.22247-.67045 0-1.21451.54765-1.21451 1.22247-.00066 7.18974 16.25525 11.06919 31.54998 11.06919z"/>
                <path d="m86.1749 36.36332h-16.99016v-9.54045c0-5.78178-4.67126-10.48464-10.41326-10.48464h-7.00546v-16.33725h16.97069c9.61532 0 17.43819 7.87725 17.43819 17.56008zm-2-18.80226c0-8.58125802-6.9304617-15.56008-15.43819-15.56008h-14.97069v12.33725h5.00546c6.8497711 0 12.41326 5.6014701 12.41326 12.48464v7.54045h12.99016z"/>
                <path d="m49.33711 16.33823h-49.33731v-16.33725h49.33731zm-2-14.33725h-45.33731v12.33725h45.33731z"/>
                <path d="m77.37006 81.18431c14.3627 0 29.62762-3.66048 29.62762-10.44486 0-.67509-.54406-1.22247-1.21429-1.22247-.67056 0-1.21462.54738-1.21462 1.22247 0 3.78351-11.17028 7.9992-27.19871 7.9992-.67023 0-1.21429.54765-1.21429 1.22283 0 .67509.54406 1.22283 1.21429 1.22283zm0-2c.4374019 0 .78571.3507288.78571.77717 0 .4264049-.3483619.77717-.78571.77717 16.1204308 0 29.19871-4.1635118 29.19871-9.9992 0 .4267226-.348593.77753-.78538.77753-.43715 0-.78571-.3508394-.78571-.77753 0 4.4877557-12.5941286 8.44486-27.62762 8.44486z"/>
                <path d="m77.37006 75.32522c10.90089 0 21.93598-2.73078 21.93598-7.94835 0-.67509-.54406-1.22283-1.21451-1.22283-.67023 0-1.2144.54774-1.2144 1.22283 0 2.24379-7.59935 5.50269-19.50707 5.50269-11.9075 0-19.50685-3.2589-19.50685-5.50269 0-.67509-.54417-1.22283-1.21462-1.22283-.67023 0-1.21429.54774-1.21429 1.22283 0 5.2182 11.03553 7.94835 21.93576 7.94835zm0-2c-11.0862027 0-19.93576-2.8661298-19.93576-5.94835 0 .4264412-.3483081.77717-.78571.77717-.4370821 0-.78538-.3506308-.78538-.77717 0 4.3600342 9.7226026 7.50269 21.50685 7.50269 11.7844316 0 21.50707-3.1426419 21.50707-7.50269 0 .4265179-.3482755.77717-.7856.77717-.4371595 0-.78549-.3507075-.78549-.77717 0 3.0818912-8.8499918 5.94835-19.93598 5.94835z"/>
                <path d="m74.29699 65.68082c.6534 0 1.19262-.52218 1.2133-1.18485l.44275-9.17748c.02112-.67509-.50534-1.23867-1.17568-1.26081-.67705-.03987-1.23079.50841-1.25213 1.18422l-.44264 9.17775c-.02134.67482.50512 1.23867 1.17557 1.26054.01276.00063.02618.00063.03883.00063z"/>
                <path d="m82.08774 59.71364c.02475 0 .04972-.00099.07469-.00288.66968-.04014 1.1792-.62055 1.13905-1.2942l-.97394-16.22844c-.0407-.67356-.61633-1.18737-1.28546-1.14624-.66979.0405-1.1792.62028-1.13916 1.2942l.97405 16.22817c.03872.64872.57376 1.14939 1.21077 1.14939zm0-2c.4200426 0 .7612688.3225115.785677.7314485l-.97409-16.2288372c.0252614.4251723-.3006316.7956249-.736534.8219825-.4358128.0267895-.8058585-.3032829-.8316118-.7294834l.9738908 16.2276228c-.0253396-.4251536.300644-.7958338.7376946-.8220302z"/>
                <path d="m93.86775 56.50334c.1925 0 .38753-.04608.56903-.14238.59268-.31743.81719-1.05741.50281-1.65402l-1.50546-2.85354c-.31438-.59688-1.04852-.82278-1.64241-.50625-.59202.31716-.8173 1.05741-.50281 1.65375l1.50535 2.85381c.21802.4131.63877.64863 1.07349.64863zm0-2c.2893826 0 .5589254.1594917.6952883.4178695l-1.5051471-2.8534255c.1978613.3751871.0566059.8396428-.3217135 1.042318-.3884005.2070139-.8696485.0587545-1.0715998-.3246691l1.5060955 2.8547455c-.1975865-.3749662-.0563976-.8396947.3218421-1.0422739.1189236-.0631155.2464251-.0945645.3752345-.0945645z"/>
                <path d="m61.45548 52.4915c.37279 0 .74019-.17235.97812-.49761l1.24003-1.69389c.39776-.54396.28292-1.30977-.25685-1.71009-.54043-.39942-1.30064-.28449-1.69785.25947l-1.23992 1.69398c-.39776.54396-.28292 1.30977.25685 1.71009.21681.16011.46948.23805.71962.23805z"/>
                <path d="m99.88728 48.12191c.42614 0 .83974-.22617 1.06205-.62712.32659-.58977.11594-1.3347-.46948-1.66338l-6.02173-3.37977c-.5874-.32895-1.32627-.11619-1.65231.47268-.3267.5904-.11594 1.33497.46926 1.66401l6.02195 3.37905c.187.10503.39028.15453.59026.15453zm0-2c.134827 0 .269943.0347401.389147.1016917l-6.0226605-3.3794487c.3752842.21101.5070908.6778591.3019914 1.0485071-.2099441.379186-.6932046.5177142-1.0748582.3039843l6.0200681 3.3788383c-.3749887-.2105348-.5070198-.6780512-.3012857-1.0495746.1390189-.2507298.4040756-.4039981.6875979-.4039981z"/>
                <path d="m63.49389 44.20754c.24178 0 .48587-.07164.69839-.22302l1.77111-1.25748c.5478-.3897.67903-1.15272.29227-1.70451-.38577-.5517-1.1429-.68472-1.69235-.29439l-1.77133 1.25811c-.5478.3888-.67892 1.15209-.29205 1.70388.23672.33705.6127.51741.99396.51741z"/>
                <path d="m53.83963 44.11349c.09669 0 .19382-.01125.2915-.03582l5.40188-1.34154c.65098-.16137 1.04929-.8244.88836-1.47987-.16082-.6552-.81851-1.05552-1.47004-.89415l-5.40188 1.34154c-.65098.16101-1.04929.82404-.88836 1.47924.13662.55827.63261.9306 1.17854.9306z"/>
                <path d="m96.87845 40.3649c.56397 0 1.06986-.39726 1.18833-.97641.1353-.66141-.28787-1.30824-.94424-1.44405l-3.01059-.62433c-.6589-.13959-1.29943.28908-1.43495.95112-.1353.66177.28787 1.30887.94424 1.44441l3.0107.62433c.08316.0171.16511.02493.24651.02493z"/>
            </g>
        </g>
        <path d="m109.026453 87.066548c1.925438.845544 3.022563 1.874292 3.354386 3.142636.489547 1.869952-.794646 3.611832-2.036002 5.296704-.919751 1.247792-1.87068 2.538564-1.697236 3.438932.314138 1.633184 5.069438 2.419844 9.668455 3.180044 3.118717.515928 6.653228 1.100092 10.019142 2.054696.485224.137704.768839.648956.633385 1.142764-.113053.409388-.479722.677628-.878748.677628-.081089 0-.163619-.0112-.245887-.03458-3.268319-.926856-6.749382-1.50262-9.821594-2.010456-6.158048-1.018164-10.607463-1.753724-11.165654-4.654608-.32881-1.708868.869185-3.333932 2.027487-4.906328.980928-1.330672 1.99513-2.707404 1.733392-3.708432-.176457-.674828-.955907-1.32006-2.315687-1.917608-6.26573-2.753828-20.777124-2.045988-24.032605-1.846264l-.140432-1.850324c3.332116-.213724 18.161709-.965496 24.897598 1.995196zm-77.862863-5.785556c3.424733.449568 4.114186 1.27302 4.296669 2.8392.039693.34146.069692.545524.219294.76328.442911.642124 2.334813 1.041852 3.714767 1.153684l-.140563 1.849092c-1.256683-.0994-4.06493-.482916-5.068521-1.939756-.420379-.610316-.487451-1.187312-.536707-1.608236-.059343-.508452-.10218-.875756-2.718381-1.2194-4.572424-.599452-27.867892 0-27.960902.006524-.502123.03584-.93665-.354844-.969138-.86548-.032357-.51128.348853-.95242.851369-.985152.388546-.025228 23.567293-.616868 28.312113.006244z"
              mask="url(#a)"/>
        <path d="m64.3571429 1.42857c35.3067128 0 63.9285661 28.62171 63.9285661 63.92854s-28.6218533 63.92854-63.9285661 63.92854c-35.3067129 0-63.92856647-28.62171-63.92856647-63.92854s28.62185357-63.92854 63.92856647-63.92854zm0 4c-33.097621 0-59.92856647 26.8308961-59.92856647 59.92854s26.83094547 59.92854 59.92856647 59.92854 59.9285661-26.8308961 59.9285661-59.92854-26.8309451-59.92854-59.9285661-59.92854z"
              fill-rule="nonzero"/>
    </g>
</svg>