<svg height="131"
     viewBox="0 0 130 131"
     width="130"
     xmlns="http://www.w3.org/2000/svg">
    <mask id="a"
          fill="#fff">
        <path d="m65.35711 1.42857c35.3067 0 63.92854 28.62171 63.92854 63.92854s-28.62184 63.92854-63.92854 63.92854-63.92854-28.62171-63.92854-63.92854 28.62184-63.92854 63.92854-63.92854z"
              fill="#fff"
              fill-rule="evenodd"/>
    </mask>
    <g fill="#2a6199"
       fill-rule="evenodd"
       transform="translate(0 1)">
        <g fill-rule="nonzero"
           mask="url(#a)">
            <path d="m73.2166798 33.0854874c-.0074093-.0628057-.01434-.1337685-.0165668-.1586782l.0002966.0026439-.0128536-.2263831v-11.053648c0-2.0529126-.1821667-3.7880808-.5798176-5.3650707-.5939811-2.4129134-1.9004375-4.4543162-3.7243444-5.6945534-1.840577-1.2596355-4.1685896-1.8406919-7.091671-1.8406919h-17.108424c-2.9103697 0-5.6475418 1.08195103-7.7435825 2.9456176-2.1005461 1.8795013-3.3025794 4.2370291-3.3235814 6.7493957-.0031448 1.1940573.3138969 2.410724.9225736 3.461313.9468814 1.6463954 2.5994457 2.9692177 4.7804247 3.8153617 2.2553646.8946087 5.0381797 1.3419388 8.5192354 1.3493137.7746899.0051195 1.4000252.146112 2.0109248.4188566l.1047381.0504624c.8230181.4264322 1.480928 1.0931187 1.9902699 2.0295104.485076.9208917.7615914 2.0709838.7615804 3.1832431.0050467 1.5219646-.5042435 3.0254017-1.3682147 4.0166526l-.0498107.0550517c-1.0316886 1.0985487-2.117108 1.5898071-4.0055026 1.6190695-7.7201119 0-41.54622393.0704551-46.2436333.1068181l-2.0154817.015602v-33.0500181c0-2.49499912 1.02037713-4.22501163 2.99692134-5.01376063 1.26505052-.50482418 2.28286189-.56399257 5.11273626-.51340194.67464662.01206089 1.01514099.01633067 1.4186484.01560457h78.616687v33.22116c0 .4158314-.0634734 1.0154031-.2007941 1.58153-.2985491 1.212028-.8706035 2.287391-1.7870847 3.1090429-1.2293147 1.0513402-2.7458185 1.5820473-5.2937971 1.6149002-1.6064125-.0225458-2.7269309-.3482888-3.764716-1.0087715-1.1699484-.768691-2.006807-2.0509317-2.4999669-3.5726253-.1672551-.5269994-.2881951-1.0742162-.3587838-1.5608339-.0196705-.1025239-.0344998-.2017586-.0464096-.302713zm-23.3867058 2.3692446c.499364-.57293.879602-1.585216.875919-2.69592 0-.822782-.210312-1.64876-.531114-2.257786-.329057-.604702-.713232-.964252-1.140841-1.18581-.301498-.134608-.65405-.241486-1.208786-.245152-3.692779-.007802-6.723634-.49068-9.243441-1.490182-2.508123-.972994-4.560443-2.562534-5.776722-4.677346-.808482-1.39543-1.192784-2.968802-1.188847-4.463684.027813-3.3323 1.683893-6.171194 3.989959-8.234588 2.325624-2.067812 5.499227-3.455158 9.077198-3.455158h17.108424c3.019044 0 5.85216.568888 8.221218 2.1902 2.377567 1.616706 3.875024 4.178582 4.536821 6.866982.459613 1.822566.637794 3.751728.637794 5.843134v11.053648c.008128.071346.015748.19787.047752.347988.043434.316216.134747.79477.292862 1.29297.333121 1.027796.903732 1.988288 1.691894 2.506134.546989.347988 1.267968.660444 2.694559.680466 2.416937-.031866 3.355594-.613162 3.965829-1.13505.59436-.533356.955167-1.296636 1.145032-2.067436.118872-.490116.142748-.960868.142748-1.103184v-31.22116h-76.616687c-4.160266.00752-7.528306-.635816-7.528306 3.511558v31.034476c5.634355-.043616 41.061005-.106878 46.259115-.106878 1.497965-.023406 2.016887-.423094 2.54762-.988222zm19.362952-2.039883c.0348186.3600901.0885199.7420823.1687219 1.156446.2257136 1.1661506.6172965 2.3659205 1.2114729 3.5430862.7742259 1.4974378 1.8590343 2.7879462 3.2747854 3.7395901 1.5928723 1.0833858 3.6786323 1.6938227 5.9911518 1.6938227l.0734547.0000094c2.29538.0070523 4.2972383-.4274644 5.9369026-1.2586613 2.116303-1.0603348 3.6632538-2.848961 4.4847222-4.8556067.6165311-1.5071018.8529363-2.8843689.8571925-4.1968274v-33.48867529l2.3526445.4214263c.7067116.12659237 2.5364713.14415215 8.1982605.10885303 3.291241-.02051964 5.112758-.02462405 7.185699-.00773485 4.78331.03897181 8.480476.19622494 11.279895.53219058 4.511836.54147741 6.790023 1.36742727 6.784575 3.93492623v80.754648c0 5.2546169-4.266322 9.504114-9.528072 9.504114h-108.928535c-5.26374593 0-9.528306-4.2505718-9.528306-9.504114v-42.8942401l1.98131165-.0185146c2.64744952-.0247393 4.28329966-.0363494 6.21667033-.039889 4.25667762-.0313535 31.87928632-.0714003 40.08358552-.0712743 2.8539475.0320411 5.5150135-1.1671134 7.1292783-3.1077033 1.5272707-1.812297 2.3029185-4.1206687 2.3065981-6.5927917-.0069183-2.4537175-.753532-4.737586-2.1992411-6.549934-.7744543-.9603939-1.743322-1.7495476-2.8489092-2.2918995-1.1406271-.567529-2.4721328-.8698135-3.8554958-.8698288-3.7866096.0148072-6.7316111-.6581078-8.3626921-1.7281704-.6905572-.4432317-1.1546296-.9212376-1.4345877-1.4299843-.2548952-.4437259-.3709228-.8639527-.387128-1.3737366-.0614186-1.2254805.7409528-2.7685903 1.9738841-3.8379452 1.3588412-1.206989 3.1944347-1.9332097 5.0645329-1.9279602h17.108424c1.4733516 0 2.7118663.1871772 3.6277271.5373248.6809604.2542695 1.2054236.5670109 1.6573626.9938251.6720867.6321914 1.1431174 1.4231619 1.5036074 2.5791551.3831396 1.2135054.5804665 2.8520855.5760369 4.784689v11.1858151c.0097351.1375473.030084.4267918.04447.5755699zm23.998404-31.276725v31.098584c-.003556 1.099236-.150495 2.862582-1.006094 4.954082-.839851 2.05155-2.559685 4.44338-5.439918 5.886468-1.902079.964252-4.207764 1.47862-6.83895 1.470536h-.06731c-2.777109 0-5.237861-.762716-7.115937-2.040082-1.893824-1.272948-3.137789-2.949156-3.926586-4.474776-1.568958-3.107828-1.612265-5.752236-1.643888-6.072494l-.004191-.079524v-11.227454c.004191-1.83065-.186182-3.241684-.483235-4.18253-.297307-.953348-.625856-1.40389-.966724-1.724524-.233807-.220806-.51943-.402508-.986663-.576972-.610362-.233308-1.577086-.410968-2.928112-.410968h-17.108424c-1.442085-.004042-2.793111.585432-3.73634 1.423254-.96647.838386-1.335405 1.850578-1.303655 2.257128.004064.202288.032004.304748.122936.463044.091313.165722.281559.422718.780669.74307.982599.644558 3.308223 1.426826 7.27456 1.411316 1.695577 0 3.332226.371676 4.754245 1.079214 1.418844.695976 2.603119 1.696418 3.514852 2.82705 1.82245 2.284576 2.634615 5.052124 2.642362 7.799744-.004064 2.744142-.82804 5.574294-2.777236 7.887258-1.933575 2.324526-5.131054 3.858606-8.681085 3.81875-3.593592 0-34.673667.031772-40.046402.071346-2.341626.004324-4.512691.02397-6.212713.039856v40.912842c0 4.14775 3.367913 7.504114 7.528306 7.504114h108.928535c4.156075 0 7.528054-3.35298 7.528054-7.504114v-80.754648c.007872-3.700592-28.270456-1.967138-31.801056-2.59957z"
                  transform="translate(2 68)"/>
        </g>
        <path d="m56.999132 19.992978 9.963896 9.229734v-3.897234h9.96402v13.126104l8.649682 8.012196c.402628.373842.426436 1.002888.051832 1.404486-.195362.2106-.46128.317142-.729306.317142-.243102 0-.48732-.087534-.678652-.26541l-3.307018-3.063204v25.148286h-47.826924v-25.147368l-3.30708 3.063204c-.40455.372924-1.035214.35019-1.408888-.051408-.374666-.40284-.350796-1.031886.051832-1.405728zm5.04463 34.15743h-10.089446c-.515096 0-.933596.41688-.933596.93096v12.9357h11.9567v-12.9357c0-.51408-.418438-.93096-.933658-.93096zm-5.04463-31.445064-21.92072 20.305512v25.006212h13.949442v-12.9357c0-1.610118 1.312292-2.919294 2.926462-2.919294h10.089446c1.614232 0 2.926524 1.309176 2.926524 2.919294v12.9357h13.949504v-25.007184l-1.992742-1.845612-5.69935-5.27931zm17.935174 4.608198h-5.978412v3.75516l5.978412 5.537214z"
              mask="url(#a)"/>
        <path d="m65.35711 1.42857c35.3067 0 63.92854 28.62171 63.92854 63.92854s-28.62184 63.92854-63.92854 63.92854-63.92854-28.62171-63.92854-63.92854 28.62184-63.92854 63.92854-63.92854zm0 4c-33.0976072 0-59.92854 26.8308952-59.92854 59.92854s26.8309328 59.92854 59.92854 59.92854 59.92854-26.8308952 59.92854-59.92854-26.8309328-59.92854-59.92854-59.92854z"
              fill-rule="nonzero"
              mask="url(#a)"/>
    </g>
</svg>