<svg height="131"
     viewBox="0 0 130 131"
     width="130"
     xmlns="http://www.w3.org/2000/svg">
    <mask id="a"
          fill="#fff">
        <path d="m64.64289 1.42857c35.3067 0 63.92854 28.62171 63.92854 63.92854s-28.62184 63.92854-63.92854 63.92854-63.92854-28.62171-63.92854-63.92854 28.62184-63.92854 63.92854-63.92854z"
              fill="#fff"
              fill-rule="evenodd"/>
    </mask>
    <g fill="#e85181"
       fill-rule="evenodd">
        <g mask="url(#a)">
            <g transform="translate(17 23)">
                <path d="m6.00647975 4c0-.93070097 1.15985107-1.35670628 1.76226323-.64726716l56.79532832 66.88710806c.0627093.080292.1373037.1917004.2108007.3327994.1373193.2636244.2245285.5420257.225132.8531268.001964 1.0276539-.8486637 1.5742329-2.1136297 1.5742329h-54.70741253c-.95875926 0-1.66395067-.4105182-1.99293638-1.1106873-.16604628-.3533906-.20563957-.6991421-.17954564-1.0122637zm1.99381533 67.0088413c.01943851-.0065144.06826842-.0088413.17866669-.0088413h54.40792363l-54.58040565-64.27737888v64.20548058z"
                      fill-rule="nonzero"/>
                <path d="m0 71h94v2h-94z"
                      fill-rule="evenodd"/>
                <g fill-rule="nonzero">
                    <path d="m70.7839194 71.1388075c0 1.0198723.8184707 1.8611925 1.8378033 1.8611925h5.7250051c1.0193326 0 1.8378032-.8413202 1.8378032-1.8611925v-4.884832h1.4908304v4.884832c0 1.0198723.8184707 1.8611925 1.8378032 1.8611925h5.445721c1.0193326 0 1.8378033-.8413202 1.8378033-1.8611925v-7.0378132h1.3737922c.7475214 0 1.420964-.4674927 1.6970854-1.1612622.2712721-.6815854.1190294-1.4727643-.3937775-1.9999969l-10.9146089-11.3771322c-.7161174-.7361445-1.8946992-.7559819-2.6113197-.0193553l-11.3975974 11.3714703c-.5307031.5151184-.6904936 1.3103225-.4237835 2.0109791.2720717.714632.9486757 1.1752972 1.7025493 1.1752972h.9548906zm10.4573731-20.0609966 10.5750484 11.0231834h-2.019652c-.5522848 0-1 .4477153-1 1v7.8990057h-5.1213275v-5.7460245c0-.5522848-.4477152-1-1-1h-3.4908304c-.5522847 0-1 .4477152-1 1v5.7460245h-5.4006116v-7.8990057c0-.5522847-.4477152-1-1-1h-1.5911121z"/>
                    <path d="m35.2622138 30.85912 4.1937702 4.9961381c1.6770009 1.9977997 4.1337557 3.1447419 6.7372221 3.1447419 2.0759155 0 4.092803-.741713 5.6804403-2.0886484 1.7958706-1.5237747 2.8961705-3.6634306 3.0942987-6.0161496.1983299-2.3524665-.5283857-4.6471906-2.0435673-6.452301-1.67624-1.9972746-4.1323398-3.1438831-6.7352839-3.1438831-.8554083 0-1.5116496.0681303-2.1481757.2647021l-.0067976-.0054258c-1.1125988-.8462355-2.4692017-1.3051961-3.8738917-1.3051961-1.512471 0-2.9813786.540255-4.1380673 1.5213297-.4750387.402904-.8838382.8670568-1.2189029 1.3788269l-.94679-1.1278021c.2820887-.1612532.5492879-.3482873.7979403-.5593111 1.0921466-.9266246 1.762184-2.229703 1.8826045-3.6603148.1206492-1.4304444-.322006-2.8279154-1.2437719-3.9256252-.2409559-.2870469-.5468941-.5339008-.9507667-.8013942-.0618337-.0409538-.5220134-.3296781-.6939501-.4377019-.011813-.027767-.0253759-.0605022-.0408868-.0987091l-.1241817-.3106118c-.057797-.1438699-.1066653-.2615071-.1575917-.377534-.1882023-.4287858-.3722088-.7613462-.6011261-1.0340311-1.020397-1.2153862-2.5159748-1.91362164-4.1002114-1.91362164-.0756374 0-.1510869.00160674-.2265552.00482385l-.0627671.00286757c-.0686819.00317936-.115259.00355703-.1469044.00184865l-3.8400308-4.5744315c-.8068216-.96133771-1.9898862-1.51371524-3.2431587-1.51371524-.9454232 0-1.864816.31902125-2.607929.90147659l-2.4403082-2.90843659c-.8186993-.97596444-2.2722181-1.09989532-3.2431348-.27492281-.9674154.82052066-1.0897606 2.27228809-.273316 3.24472547l22.7133701 27.05807415c.0030744.0037119.0056055.0067893.0084208.0102121zm.1365513-5.3518766c.3877079-.166633.6514465-.4736882.8254256-.8200274.2650665-.5282437.6329142-.9984592 1.09164-1.3875275.7957181-.6749084 1.80629-1.0465904 2.8443982-1.0465904.9664526 0 1.8978241.3150636 2.6618156.8960672-.0194757-.0148106.0835222.0689737.1451636.1133099.4470801.321567.9967165.4245346 1.6361314.2208948.4165892-.1327856.8984572-.1843521 1.5857544-.1843521 2.0114693 0 3.9068573.8848452 5.2033643 2.42966 1.1753519 1.4002546 1.7365237 3.1722469 1.582549 4.9985995-.1537918 1.8262365-1.0030695 3.4777517-2.395275 4.6590214-1.2265311 1.0405765-2.7849883 1.6137012-4.3865261 1.6137012-2.012016 0-3.9081293-.8852054-5.2053727-2.4306024l-4.1987305-5.0020014c.0105465.0129094.0158198.0193641.0191357.0234987-.0051578-.0064783-.0120438-.0148504-.0275641-.0337199l.0049579.0058604-22.7134287-27.05814396c-.1090032-.12982968-.0925408-.32517489.0358765-.43409303.1255288-.1066593.3104183-.09089513.4167298.03583782l2.8124917 3.35058148c.3565626.46559295.935451.66398377 1.4995998.4782869.3021225-.09944752.4704943-.23163614.7021072-.46236925.040591-.04035481.0822377-.07870035.1243321-.11439769.4032241-.34222067.9158656-.53074658 1.4417701-.53074658.661761 0 1.2841301.29058657 1.7112738.79953346l3.8882347 4.63177215c.2482413.3020575.5779368.4954626.9456796.5892936.2677653.0683213.4815234.0772554.7773893.0635594l.0539127-.0024779c.0486359-.0020721.0956856-.003074.1429261-.003074.9928054 0 1.9278049.4365201 2.5684471 1.1995835.0789714.0940702.1835296.2830414.3015313.5518875.0411428.0937367.0825034.1933011.1331072.3192656l.1269114.3173707c.1572937.3874515.2268615.53059.4114827.7161947.1362571.136983.2783692.2363871.5426955.4019899l.2660146.1650837c.1040437.0647905.1860648.1170644.263379.1682712.2571147.1702925.4328987.3121282.5234146.4199583.5818069.6928606.8588338 1.5674399.782565 2.4717009-.0761085.9041791-.4951189 1.719064-1.183685 2.3032734-.2555536.2168806-.5432431.3934122-.8537108.5247162-.3464776.1468221-.646378.3795298-.8273895.7537507-.2550235.5272322-.1455365 1.107487.2392384 1.6065939l1.7655839 2.1044594c.4185181.5944121 1.0671484.8548369 1.7146526.576546z"/>
                </g>
            </g>
        </g>
        <path d="m65.35711 1.71435c35.30683 0 63.92854 28.62171 63.92854 63.92854s-28.62171 63.92854-63.92854 63.92854c-35.3067 0-63.92854-28.62171-63.92854-63.92854s28.62184-63.92854 63.92854-63.92854zm0 4c-33.0976072 0-59.92854 26.8308952-59.92854 59.92854s26.8309328 59.92854 59.92854 59.92854c33.097691 0 59.92854-26.830849 59.92854-59.92854s-26.830849-59.92854-59.92854-59.92854z"
              fill-rule="nonzero"/>
    </g>
</svg>