<svg height="132"
     viewBox="0 0 130 132"
     width="130"
     xmlns="http://www.w3.org/2000/svg">
    <mask id="a"
          fill="#fff">
        <path d="m65.35711 1.42857c35.3067 0 63.92854 28.62171 63.92854 63.92854s-28.62184 63.92854-63.92854 63.92854-63.92854-28.62171-63.92854-63.92854 28.62184-63.92854 63.92854-63.92854z"
              fill="#fff"
              fill-rule="evenodd"/>
    </mask>
    <g fill="none"
       fill-rule="evenodd">
        <g mask="url(#a)">
            <g fill="#2a6199"
               transform="translate(2 30)">
                <path d="m57.36 72-7.36-11.52h-3.96v11.52h-3.64v-28.2h9.28c3.200016 0 5.599992.766659 7.2 2.3s2.4 3.566654 2.4 6.1c0 2.2933448-.6399936 4.139993-1.92 5.54s-3.1333212 2.2733316-5.56 2.62l7.68 11.64zm-11.32-14.16h5.32c4.133354 0 6.2-1.8133152 6.2-5.44s-2.066646-5.44-6.2-5.44h-5.32zm31.24-8.16c2.5600128 0 4.6266588.8199918 6.2 2.46s2.36 4.0066512 2.36 7.1v12.76h-3.64v-12.44c0-2.1866776-.5599944-3.8666608-1.68-5.04s-2.6399904-1.76-4.56-1.76c-2.00001 0-3.599994.6466602-4.8 1.94s-1.8 3.1799876-1.8 5.66v11.64h-3.64v-21.96h3.64v5.2c.5600028-1.7866756 1.5533262-3.1599952 2.98-4.12s3.073324-1.44 4.94-1.44z"
                      fill-rule="nonzero"/>
                <path d="m43 0v3.499l3.5.001v2h-3.5v3.5h-2v-3.5h-3.5v-2h3.5v-3.5z"/>
                <path d="m28.5 45v3.499l3.5.001v2h-3.5v3.5h-2v-3.5h-3.5v-2h3.5v-3.5z"/>
                <path d="m80.5 30v3.499l3.5.001v2h-3.5v3.5h-2v-3.5h-3.5v-2h3.5v-3.5z"/>
                <path d="m103.5 60v3.499l3.5.001v2h-3.5v3.5h-2v-3.5h-3.5v-2h3.5v-3.5z"/>
                <path d="m56.5 80v3.499l3.5.001v2h-3.5v3.5h-2v-3.5h-3.5v-2h3.5v-3.5z"/>
                <g fill-rule="nonzero">
                    <path d="m25.8096705 24 2.4917567 6.5723517 4.0143701-6.5723517h24.2818881l-2.3907383 6.7799454 10.2825157-6.7799454h24.6884809l2.5695581 9.7166323 4.8698751-9.7166323h24.9223431v-2h-26.1570969l-3.0536093 6.0927228-1.6112172-6.0927228h-26.8283534l-5.8186992 3.8366548 1.3528778-3.8366548h-28.2297948l-2.4702133 4.0442485-1.5332842-4.0442485h-27.1903295v2z"/>
                    <path d="m66.7839194 22.1388075c0 1.0198723.8184707 1.8611925 1.8378033 1.8611925h5.7250051c1.0193326 0 1.8378032-.8413202 1.8378032-1.8611925v-4.884832h1.4908304v4.884832c0 1.0198723.8184707 1.8611925 1.8378032 1.8611925h5.445721c1.0193326 0 1.8378033-.8413202 1.8378033-1.8611925v-7.0378132h1.3737922c.7475214 0 1.420964-.4674927 1.6970854-1.1612622.2712721-.6815854.1190294-1.4727643-.3937775-1.9999969l-10.9146089-11.37713221c-.7161174-.73614446-1.8946992-.75598188-2.6113197-.01935528l-11.3975974 11.37147029c-.5307031.5151184-.6904936 1.3103225-.4237835 2.0109791.2720717.714632.9486757 1.1752972 1.7025493 1.1752972h.9548906zm10.4573731-20.06099655 10.5750484 11.02318335h-2.019652c-.5522848 0-1 .4477153-1 1v7.8990057h-5.1213275v-5.7460245c0-.5522848-.4477152-1-1-1h-3.4908304c-.5522847 0-1 .4477152-1 1v5.7460245h-5.4006116v-7.8990057c0-.5522847-.4477152-1-1-1h-1.5911121z"/>
                </g>
            </g>
        </g>
        <path d="m65.35711 1.42857c35.3067 0 63.92854 28.62171 63.92854 63.92854s-28.62184 63.92854-63.92854 63.92854-63.92854-28.62171-63.92854-63.92854 28.62184-63.92854 63.92854-63.92854zm0 4c-33.0976072 0-59.92854 26.8308952-59.92854 59.92854s26.8309328 59.92854 59.92854 59.92854 59.92854-26.8308952 59.92854-59.92854-26.8309328-59.92854-59.92854-59.92854z"
              fill="#2a6199"
              fill-rule="nonzero"
              mask="url(#a)"/>
    </g>
</svg>