<svg height="182"
     viewBox="0 0 182 182"
     width="182"
     xmlns="http://www.w3.org/2000/svg">
    <mask id="a"
          fill="#fff">
        <path d="m73.838429 7.990607c11.530386 5.900764 19.840989 10.545762 30.617272 16.531021 10.430112 5.195722 12.551644 11.569527 12.527487 24.682234.000357 11.88694.035819 21.074363 0 34.459026.043554 13.37117-2.616691 15.569612-13.216259 22.493224-9.907702 5.764655-18.66634 10.804618-29.9285 17.129822-9.881046 6.410223-18.219019 6.147568-27.234816 0-11.010951-5.973993-18.961698-10.547989-29.9285-17.129822-10.595641-6.469435-14.45612-11.410624-14.641879-24.083433.029988-12.089204-.098056-20.74909 0-32.868817-.037485-12.424433 4.211767-19.033776 14.641879-24.081861 11.196115-7.044263 18.917549-11.477696 29.9285-17.131394 12.11301-6.6417 15.189517-6.691611 27.234816 0z"
              fill="#fff"
              fill-rule="evenodd"/>
    </mask>
    <g fill="none"
       fill-rule="evenodd"
       transform="translate(0 25)">
        <g mask="url(#a)"
           transform="translate(32 1)">
            <g transform="translate(-4 29)">
                <g fill="none">
                    <text font-family="Poppins-Regular, Poppins"
                          font-size="40">
                        <tspan fill="#e85181"
                               x="39.48"
                               y="72">Rn
                        </tspan>
                    </text>
                    <path d="m53 84.5h9m-4.5-4.5v9"
                          stroke="#e85181"
                          stroke-linecap="square"
                          stroke-width="2"/>
                    <path d="m25 49.5h9m-4.5-4.5v9"
                          stroke="#e85181"
                          stroke-linecap="square"
                          stroke-width="2"/>
                    <path d="m100 64.5h9m-4.5-4.5v9"
                          stroke="#e85181"
                          stroke-linecap="square"
                          stroke-width="2"/>
                    <path d="m78 34.5h9m-4.5-4.5v9"
                          stroke="#e85181"
                          stroke-linecap="square"
                          stroke-width="2"/>
                    <path d="m38 4.5h9m-4.5-4.5v9"
                          stroke="#e85181"
                          stroke-linecap="square"
                          stroke-width="2"/>
                    <path d="m0 23h26.5l2.0125204 5.3083001 3.2422917-5.3083001h26.2558415l-1.871808 5.3083001 8.0506074-5.3083001h25.7584171l2.0903877 7.9046776 3.9617422-7.9046776h25.53972"
                          stroke="#e85181"
                          stroke-width="2"/>
                </g>
                <path d="m65.8290288 14.1009943h1.9548906v8.0378132c0 .4736559.3770115.8611925.8378033.8611925h5.7250051c.4607918 0 .8378032-.3875366.8378032-.8611925v-5.884832h3.4908304v5.884832c0 .4736559.3770115.8611925.8378032.8611925h5.445721c.4607918 0 .8378033-.3875366.8378033-.8611925v-8.0378132h2.3737922c.3351213 0 .6422994-.2152981.7679699-.5310518.1256704-.3157536.0558371-.6889539-.1815076-.9329753l-10.9193852-11.38207685c-.3211744-.33014066-.8517502-.34447698-1.1729245-.01433632l-11.4080709 11.38207677c-.251341.2440215-.3211744.6171711-.1955039.9473117.1256705.3300901.4328486.5310518.7679699.5310518z"
                      fill="#fff"
                      fill-rule="nonzero"
                      stroke="#e85181"
                      stroke-linejoin="round"
                      stroke-width="2"/>
            </g>
        </g>
        <path d="m91.499954-22.000002c-48.8771584 0-88.499956 39.6227419-88.499956 88.499956 0 48.877214 39.6227976 88.499956 88.499956 88.499956 48.877158 0 88.499956-39.622742 88.499956-88.499956 0-48.8772141-39.622798-88.499956-88.499956-88.499956z"
              stroke="#e85181"
              stroke-width="2"/>
    </g>
</svg>