<svg height="182"
     viewBox="0 0 182 182"
     width="182"
     xmlns="http://www.w3.org/2000/svg">
    <mask id="a"
          fill="#fff">
        <path d="m73.838548 7.990607c11.530386 5.900764 19.840989 10.545762 30.617272 16.531021 10.429993 5.195722 12.551644 11.569527 12.527487 24.682234.000357 11.88694.035819 21.074363 0 34.459026.043554 13.37117-2.616691 15.569612-13.216259 22.493224-9.907821 5.764655-18.66634 10.804618-29.9285 17.129822-9.881046 6.410223-18.219019 6.147568-27.234935 0-11.010951-5.973993-18.961579-10.547989-29.928381-17.129822-10.595641-6.469435-14.45612-11.410624-14.641879-24.083433.029988-12.089204-.098056-20.74909 0-32.868817-.037485-12.424433 4.211767-19.033776 14.641879-24.081861 11.195996-7.044263 18.91743-11.477696 29.928381-17.131394 12.113129-6.6417 15.189636-6.691611 27.234935 0z"
              fill="#fff"
              fill-rule="evenodd"/>
    </mask>
    <g fill="none"
       fill-rule="evenodd">
        <path d="m91.499954 2.999998c-48.8771584 0-88.499956 39.6227419-88.499956 88.499956 0 48.877214 39.6227976 88.499956 88.499956 88.499956 48.877277 0 88.499956-39.622679 88.499956-88.499956 0-48.8772773-39.622679-88.499956-88.499956-88.499956z"
              stroke="#e85181"
              stroke-width="2"/>
        <g transform="translate(30 26)">
            <path d="m24.64075 103.70817c-.1166862 0-.21451.098466-.21451.222562-.0005253 5.722311 13.9005396 10.069098 30.54998 10.069098.1165264 0 .21451-.098667.21451-.22283s-.0979836-.22283-.21451-.22283c-16.6143457 0-30.12107-4.329544-30.12107-9.62353 0-.123948-.0978788-.22247-.2144-.22247zm63.14264-6.19119c-.1169203 0-.21462.0983202-.21462.22247 0 4.974498-12.6422545 8.9992-28.19871 8.9992-.1164815 0-.21429.098483-.21429.22283 0 .124299.0978508.22283.21429.22283 15.6018074 0 28.62762-4.09274 28.62762-9.44486 0-.1241401-.0976909-.22247-.21429-.22247zm-7.69186-3.36294c-.1164883 0-.2144.0985798-.2144.22283 0 3.5025608-9.2817355 6.50269-20.50707 6.50269-11.2251528 0-20.50685-3.0001411-20.50685-6.50269 0-.1242567-.0979175-.22283-.21462-.22283-.1164392 0-.21429.0985309-.21429.22283 0 3.9392209 9.2910865 6.94835 20.93576 6.94835 11.6444384 0 20.93598-3.0094741 20.93598-6.94835 0-.1243056-.0978567-.22283-.21451-.22283zm-23.4021247-12.0968326c.0096483-.0013996.0194028-.0018319.0291687-.0012568l.058786-.9982706.0055477-.9999846-.125402-.0006957-.0110953 1.9999692zm7.3977273 3.6564416c-.0010469.0000068.0008077-.0001172.0154657-.0010975.1160761-.0069575.2080973-.111596.2006777-.2360849l-.9739154-16.2280314c-.0074791-.1237752-.1103602-.2155428-.2259285-.208439l-.0009956.0000607c-.116777.0070611-.2087123.1115667-.201313.2361088l.97407 16.2285036c.0070677.1184136.1024975.2087474.2121398.2089703zm-1.1059069-18.6699157c.0001659-.0000101.0003319-.0000202.0004978-.0000302l-.0009956.0000607c.000166-.0000102.0003319-.0000204.0004978-.0000305zm11.281782 12.1853999c-.1061988.0575694-.1477268.1950015-.0896071.3052088l1.5052486 2.8536178c.0382513.0724779.1107567.1153802.1891008.1153802.0338981 0 .0673929-.0082617.0968977-.0239077.1071298-.057377.1489288-.19496.090484-.3058731l-1.5057778-2.8541428c-.0560032-.1063274-.1818212-.1453563-.2863453-.0902838zm-29.736475-2.7900263-.0006683.0009141-1.2396406 1.6935981c-.0738061.1009343-.0522964.2442147.0436892.315405.038657.0285474.0815144.0424759.125567.0424759.0672504 0 .1291894-.0308406.1712255-.0883056l1.2397107-1.6934535c.0738061-.1009343.0522964-.2442147-.0440001-.3156347-.0951932-.0703552-.2262218-.0503975-.2958834.0450007zm31.1541925-6.0305107c-.0606262.1096968-.0213926.2485585.083693.3076453l6.0223051 3.3792494c.0316275.0177638.0652908.0264191.1005567.0264191.0769262 0 .1482314-.041232.1872261-.111561.0603824-.1090412.0212-.2477842-.0840972-.3069027l-6.0208991-3.3793041c-.1025551-.0574319-.230434-.0208042-.2887846.084454zm-28.5382758-1.8652277-.000075.0000533-1.7716091 1.2583081c-.0989427.0702245-.1233612.2125895-.0524998.3136593.0416213.0592619.1061926.0921508.1756245.0921508.0434874 0 .0828135-.012295.1194706-.0384047l1.7703541-1.2569429c.0999355-.0710932.1244398-.2138677.0524204-.3166188-.0683113-.0976938-.1978385-.120295-.2936857-.0522051zm-1.1582413-1.6304837.0000375-.0000266zm-4.7924639 1.4198956.0006111-.0001516-5.4028055 1.3417694c-.1142642.0282615-.1869615.1493005-.1571226.2707859.0246382.100679.1115525.1683059.2072028.1683059.0174479 0 .0325067-.0018239.0504747-.0063388l5.4022997-1.3416442c.1146724-.0284259.187527-.1497625.1577927-.2708709-.0293102-.1194133-.1451855-.1899096-.2584529-.1618557zm34.4649649-2.8611253c-.0250725.1229471.0521244.2409745.1675814.2648166l3.0090631.623992c.0146002.0030022.0289787.0044363.0450964.0044363.0982391 0 .187203-.0721318.2086184-.1768227.0250699-.1225533-.0521173-.2405787-.167586-.2644705l-3.0147856-.6252095c-.1113868-.0235976-.2227834.0504284-.2479877.1732578zm-40.8906891-37.4706751v14.33725h6.00546c6.2959576 0 11.41326 5.1522376 11.41326 11.48464v8.54045h14.99016v-17.80226c0-9.1319921-7.3766143-16.56008-16.43819-16.56008zm-4.42891 0h-47.33731v14.33725h47.33731z"
                  fill="none"
                  mask="url(#a)"
                  stroke="#d83b6d"
                  stroke-width="2"/>
            <path d="m101.026453 90.066548c1.925438.845544 3.022563 1.874292 3.354386 3.142636.489547 1.869952-.794646 3.611832-2.036002 5.296704-.919751 1.247792-1.87068 2.538564-1.697236 3.438932.314138 1.633184 5.069438 2.419844 9.668455 3.180044 3.118717.515928 6.653228 1.100092 10.019142 2.054696.485224.137704.768839.648956.633385 1.142764-.113053.409388-.479722.677628-.878748.677628-.081089 0-.163619-.0112-.245887-.03458-3.268319-.926856-6.749382-1.50262-9.821594-2.010456-6.158048-1.018164-10.607463-1.753724-11.165654-4.654608-.32881-1.708868.869185-3.333932 2.027487-4.906328.980928-1.330672 1.99513-2.707404 1.733392-3.708432-.176457-.674828-.955907-1.32006-2.315687-1.917608-6.26573-2.753828-20.777124-2.045988-24.032605-1.846264l-.140432-1.850324c3.332116-.213724 18.161709-.965496 24.897598 1.995196zm-77.862863-5.785556c3.424733.449568 4.114186 1.27302 4.296669 2.8392.039693.34146.069692.545524.219294.76328.442911.642124 2.334813 1.041852 3.714767 1.153684l-.140563 1.849092c-1.256683-.0994-4.06493-.482916-5.068521-1.939756-.420379-.610316-.487451-1.187312-.536707-1.608236-.059343-.508452-.10218-.875756-2.718381-1.2194-4.572424-.599452-27.867892 0-27.960902.006524-.502123.03584-.93665-.354844-.969138-.86548-.032357-.51128.348853-.95242.851369-.985152.388546-.025228 23.567293-.616868 28.312113.006244z"
                  fill="#d83b6d"
                  mask="url(#a)"/>
        </g>
    </g>
</svg>