<svg height="131"
     viewBox="0 0 130 131"
     width="130"
     xmlns="http://www.w3.org/2000/svg">
    <mask id="a"
          fill="#fff">
        <path d="m64.64289 1.42857c35.3067 0 63.92854 28.62171 63.92854 63.92854s-28.62184 63.92854-63.92854 63.92854-63.92854-28.62171-63.92854-63.92854 28.62184-63.92854 63.92854-63.92854z"
              fill="#fff"
              fill-rule="evenodd"/>
    </mask>
    <g fill="#e85181"
       fill-rule="evenodd"
       transform="translate(1)">
        <path d="m-1.767972 70.749632h52.8280917l6.3317133 8.9229357c.0452941.0637636.0363653.102477-.0343991.1413987l-9.1294873 5.0190415c-1.1258095.6188031-1.3820734 1.9863717-.579895 2.9566727l17.0709203 29.4170684.1308625.177175c1.0382276 1.122256 2.5277292.641118 2.7060772-.878773l1.4597967-23.4337604c.0341543-.2770793.3877651-.7739363.6905282-.9209342l11.6701153-5.6787187c1.0734328-.5218568 1.593956-1.8246437 1.1727642-2.9408717l-4.8202347-12.781234h48.8754167v58.629824c0 1.228057 1.004014 2.22752 2.233625 2.22752h2.158809v-2h-2.158809c-.12707 0-.233625-.106072-.233625-.22752v-60.629824h-53.7671873l5.8407251 15.4871452c.0559264.1482142-.0310091.3658-.1762609.4364152l-11.6696527 5.6784939c-.9151631.4443307-1.6885257 1.5309793-1.8074211 2.5406445l-1.3671805 21.9466792-16.3270615-28.1352305-.1021856-.1382903 9.0930489-4.9990091c1.1170442-.6143932 1.4395515-2.0127208.7014243-3.0518297l-6.3919787-9.0054581c-.0514957-.0839636-.172473-.2287499-.3463909-.3689382-.2979335-.2401523-.6674473-.3906221-1.0944341-.3906221h-53.352787c-.2049949 0-.44523279.0364892-.70982133.1545071-.52816364.2355838-.89510667.7250482-.89510667 1.3838609v59.091456c0 .121387-.10663296.22752-.233764.22752v2c1.22960233 0 2.233764-.999454 2.233764-2.22752z"
              fill-rule="nonzero"
              mask="url(#a)"/>
        <path d="m7.615175 79.338644h4.841685c.338625 0 .79236.220896 1.008.491004l3.056805 3.822138c.215595.26982.481905.219654.59166-.111834l1.52928-4.620978c.109755-.331164.47196-.551754.80523-.489132l4.25583.794772c.33336.062316.651735-.169488.70767-.514998l.876285-5.410746c.05598-.34551.2709-.401274.47754-.124002l7.717905 10.359774c.206685.27729.4563.230238.55449-.104994l2.529945-8.629722c.09828-.335232.35901-.391608.579285-.125856l3.96036 4.781412c.220275.266382.67761.48384 1.016235.48384h5.26221c.338625 0 .61569.286308.61569.636822v.254538c0 .350496-.277065.637128-.61569.637128h-5.94225c-.338625 0-.795915-.217476-1.016235-.483858l-2.648835-3.197772c-.220185-.266076-.48087-.209376-.579195.125856l-2.580525 8.801712c-.09819.335214-.34776.382572-.554445.1053l-7.4016-9.935136c-.206685-.277596-.42147-.221508-.47745.124002l-.563715 3.480984c-.055845.34551-.374355.577008-.70758.514998l-4.479255-.836514c-.33336-.062316-.695565.15795-.80532.489762l-1.97235 5.960628c-.109755.331182-.3762.381654-.59193.111546l-4.295295-5.370876c-.215955-.270108-.66969-.491004-1.008315-.491004h-4.146435c-.338625 0-.61569-.286632-.61569-.636822v-.254844c.000225-.350496.27738-.637128.616005-.637128z"/>
        <path d="m120.384915 79.338644h-4.84164c-.338625 0-.79236.220896-1.008225.491004l-3.05658 3.822138c-.21573.26982-.482175.219654-.591885-.111834l-1.52919-4.620978c-.10962-.331164-.47196-.551754-.805185-.489132l-4.25583.794772c-.33336.062316-.651735-.169488-.707715-.514998l-.876285-5.410746c-.055935-.34551-.270765-.401274-.47754-.124002l-7.71777 10.359774c-.20682.27729-.4563.230238-.55449-.104994l-2.53017-8.629722c-.09819-.335232-.358875-.391608-.57906-.125856l-3.96045 4.781412c-.22032.266382-.677745.48384-1.016235.48384h-5.26212c-.33876 0-.615825.286308-.615825.636822v.254538c0 .350496.277065.637128.615825.637128h5.942115c.338625 0 .79605-.217476 1.016235-.483858l2.648835-3.197772c.22032-.266076.48087-.209376.57906.125856l2.58066 8.801712c.098325.335214.34767.382572.55449.1053l7.401465-9.935136c.206775-.277596.421695-.221508.47754.124002l.56376 3.480984c.055935.34551.37422.577008.70767.514998l4.47921-.836514c.33327-.062316.695475.15795.80523.489762l1.972395 5.960628c.109755.331182.376155.381654.591975.111546l4.29534-5.370876c.21582-.270108.6696-.491004 1.008225-.491004h4.14639c.338535 0 .6156-.286632.6156-.636822v-.254844c-.000135-.350496-.277155-.637128-.615825-.637128z"/>
        <path d="m90.673579 21.77012 3.397279 12.678984 10.428781 5.50044c.48557.25704.67142.858654.413472 1.343142-.134166.254232-.363499.425898-.62245.495342-.23482.06264-.49324.041472-.724107-.081l-3.98722-2.102976 5.473607 20.427606-15.399059 4.126248-15.399177 4.126194-15.399177 4.126194-5.473253-20.426688-2.401536 3.814668c-.294351.464832-.909308.605988-1.374287.314982-.466041-.291924-.605753-.905688-.313703-1.371114l20.751775-32.964894 12.013226 6.33609-1.008664-3.764178zm-19.927073 2.626992-15.918259 25.286958 5.436732 20.290824 13.474302-3.610602-2.312859-8.631252c-.416658-1.555254.512002-3.159486 2.071254-3.577284l9.745679-2.611116c1.559134-.417798 3.165586.506898 3.582362 2.062476l2.312741 8.630982 13.474125-3.610602-5.437086-20.291472-2.402539-1.266786-6.871494-3.624264zm14.154277 29.72565c-.133045-.496314-.645283-.79137-1.142889-.65799l-9.745797 2.61144c-.497488.133326-.793786.644922-.660682 1.141182l2.312623 8.630982 11.549368-3.094632zm4.362401-29.916594-5.774684 1.547478.971966 3.627072 7.207794 3.801276z"/>
        <path d="m64.35711.71435c35.30683 0 63.92854 28.62171 63.92854 63.92854s-28.62171 63.92854-63.92854 63.92854c-35.3067 0-63.92854-28.62171-63.92854-63.92854s28.62184-63.92854 63.92854-63.92854zm0 4c-33.0976072 0-59.92854 26.8308952-59.92854 59.92854s26.8309328 59.92854 59.92854 59.92854c33.097691 0 59.92854-26.830849 59.92854-59.92854 0-33.097691-26.830849-59.92854-59.92854-59.92854z"
              fill-rule="nonzero"/>
    </g>
</svg>