<svg height="182"
     viewBox="0 0 182 182"
     width="182"
     xmlns="http://www.w3.org/2000/svg">
    <mask id="a"
          fill="#fff">
        <path d="m73.838548 7.990345c11.530386 5.901157 19.840989 10.546155 30.617272 16.531152 10.429993 5.195984 12.551644 11.569789 12.527487 24.682496.000357 11.88694.035819 21.074101 0 34.458764.043554 13.371563-2.616691 15.569481-13.216259 22.493224-9.907702 5.764917-18.66634 10.80488-29.9285 17.130084-9.881046 6.409568-18.219019 6.147306-27.234816 0-11.010951-5.974386-18.961698-10.547989-29.9285-17.130084-10.595641-6.469173-14.45612-11.410755-14.641879-24.083171.029988-12.089466-.098056-20.74909 0-32.868817-.037485-12.424433 4.211767-19.033776 14.641879-24.081861 11.196115-7.044263 18.917549-11.477696 29.9285-17.131787 12.11301-6.641307 15.189636-6.691218 27.234816 0z"
              fill="#fff"
              fill-rule="evenodd"/>
    </mask>
    <g fill="none"
       fill-rule="evenodd"
       transform="translate(0 26)">
        <g transform="translate(33)">
            <path d="m81.8061253 101.759466c-.0448043-.112745-.1544368-.189374-.2786413-.189374h-5.6674841l-.1551924-.812353-1.2900967-6.7529979c-.0172323-.0899211-.0738244-.1669236-.1537323-.2096834l-5.3496807-2.8622007-.1429308-.258268-3.8759167-7.0035611c-.0530559-.0958211-.153596-.1551339-.2623093-.1551339h-11.494115c-.1189397 0-.2271378.0708858-.274967.1805032l-3.2859506 7.5341886-.3492107.1588404-5.2697918 2.3969929c-.0885879.0403259-.1523082.1214209-.1707059.217905l-1.0255287 5.3637019h-8.4345903c-.1274745 0-.2394536.0804884-.2820425.1980524l-1.073252 13.6065616h-66.8468323l4.5590031-27.810326h8.652594l-.3911098 1.2901192-1.2404467 4.0917517c-.0482558.1591066.0416862.3275502.1988134.3753559.0307128.0092785.0602124.0136452.0886958.0136452.1298557 0 .2476756-.0861601.2680679-.1443528l6.3777661-28.2384792h9.463297c.77382516-.0000021.77382516-.0000021 3.78693203-.0000115 3.97279693-.0000126 3.97279693-.0000126 9.54507803-.0000304 13.06394314-.0000419 13.06394314-.0000419 28.68706094-.0000922.135785-.0000005.135785-.0000005.2715683-.0000009 15.6795009-.0000506 15.6795009-.0000506 28.7214457-.0000928 5.5403025-.0000179 5.5403025-.0000179 9.4489596-.0000306 2.9307917-.0000095 2.9307917-.0000095 3.5817672-.0000116h64.8830872l4.338157 22.009808h-25.063806c-.165471 0-.300048.1346871-.300048.301076 0 .1663368.134578.301022.300048.301022h32.102493l4.558791 27.81065h-76.5692746zm-34.4440671-1.789018.7967837 13.202192h-14.5176276l.7965563-13.202192zm34.0880759 2.201742.2580601 11.00045h-9.0406304l.2580601-11.00045z"
                  mask="url(#a)"
                  stroke="#e85181"
                  stroke-width="2"/>
            <g fill="#e85181">
                <path d="m58.999132 17.99315 9.96402 9.22945v-3.8972h9.963896v13.12635l8.649806 8.0122c.402504.37355.426374 1.0026.051832 1.4042-.195362.2109-.461404.31745-.72943.31745-.243226 0-.48732-.08785-.678528-.26575l-3.307018-3.0632v21.1486h-47.82711v-21.14765l-3.307018 3.0632c-.40455.37295-1.035214.3502-1.408764-.0514-.37479-.40285-.350858-1.0319.051708-1.40545zm5.044754 34.15685h-10.089446c-.51522 0-.933596.41715-.933596.93155v8.93565h11.9567v-8.93565c0-.5144-.418438-.93155-.933658-.93155zm-5.044754-31.4448-21.92072 20.3055v21.0065h13.949566v-8.93565c0-1.61045 1.312292-2.9196 2.926462-2.9196h10.089446c1.614232 0 2.926524 1.30915 2.926524 2.9196v8.93565h13.949504v-21.0074l-1.992866-1.84565-5.69935-5.279zm17.935174 4.6082h-5.978412v3.75515l5.978412 5.53725z"
                      mask="url(#a)"/>
                <path d="m17.999956 114.000215v-2.00017h81.000024v2.00017z"
                      mask="url(#a)"/>
            </g>
        </g>
        <path d="m91.5-23.99991c-48.8771774 0-88.499993 39.6227429-88.499993 88.499956 0 48.877213 39.6228156 88.499956 88.499993 88.499956 48.877177 0 88.499993-39.622743 88.499993-88.499956 0-48.8772131-39.622816-88.499956-88.499993-88.499956z"
              stroke="#e85181"
              stroke-width="2"/>
    </g>
</svg>