<svg height="182"
     viewBox="0 0 182 182"
     width="182"
     xmlns="http://www.w3.org/2000/svg">
    <mask id="a"
          fill="#fff">
        <path d="m73.838548 7.990345c11.530386 5.901157 19.840989 10.546155 30.617272 16.531152 10.429993 5.195984 12.551644 11.569789 12.527487 24.682496.000357 11.88694.035819 21.074101 0 34.458764.043554 13.371563-2.616691 15.569481-13.216259 22.493224-9.907821 5.764917-18.66634 10.80488-29.9285 17.130084-9.881046 6.409568-18.219019 6.147306-27.234935 0-11.010951-5.974386-18.961579-10.547989-29.928381-17.130084-10.595641-6.469173-14.45612-11.410755-14.641879-24.083171.029988-12.089466-.098056-20.74909 0-32.868817-.037485-12.424433 4.211767-19.033776 14.641879-24.081861 11.195996-7.044263 18.91743-11.477696 29.928381-17.131787 12.113129-6.641307 15.189636-6.691218 27.234935 0z"
              fill="#fff"
              fill-rule="evenodd"/>
    </mask>
    <g fill="none"
       fill-rule="evenodd"
       stroke="#e85181"
       stroke-width="2"
       transform="translate(0 26)">
        <g fill-rule="nonzero"
           stroke-linejoin="round"
           transform="translate(32)">
            <g mask="url(#a)">
                <g transform="translate(19 16)">
                    <g fill="#fff">
                        <path d="m53.8276111 7.28126668c1.9835538.56402789 3.3293224 2.49792797 3.1575306 4.64992572-.1749422 2.1836082-1.9222815 3.9359834-4.0705025 4.0610818-1.1955654.0700596-2.3316822-.3588227-3.1831588-1.1578822-.9203222.7473312-2.0635526 1.165608-3.2697595 1.165608-1.1508175 0-2.2450302-.380394-3.1428316-1.0655516-.776101.6799155-1.7680005 1.0655516-2.8190836 1.0655516-1.0510531 0-2.0429586-.385552-2.818827-1.0656038-.8988347.6854694-1.9925951 1.0656038-3.142627 1.0656038-1.2065998 0-2.3504965-.4185632-3.2701078-1.1657278-.851323.7988969-1.9877281 1.2280639-3.1824301 1.1580242-2.1489081-.1251034-3.8959282-1.8773387-4.070885-4.06113-.1723471-2.15192133 1.1735853-4.08578162 3.157053-4.6498847.3838019-1.76169206 1.9194757-3.05477988 3.7311233-3.05477988.3860309 0 .7647833.05876873 1.1268093.17294522.8611362-1.61418256 2.509461-2.66175505 4.3518861-2.68919914.6944403-1.62340841 2.2688012-2.7102479 4.0502247-2.7102479 1.7816788 0 3.3565571 1.08707188 4.0508249 2.71006659.0202136-.00024761.0404555-.00037132.0607295-.00037132 1.8718366 0 3.5531581 1.05386352 4.4260495 2.68968296.3620013-.11430904.7408884-.17333906 1.1268773-.17333906 1.8114392 0 3.3472309 1.29381908 3.7311047 3.05522751z"/>
                        <path d="m35.25 19.25 2.5 3.5"
                              stroke-linecap="round"/>
                        <path d="m46 20-2.25 3.75"
                              stroke-linecap="round"/>
                        <path d="m41 21.1875v4.625"
                              stroke-linecap="round"/>
                    </g>
                    <path d="m37.054237 29.3256255c.4740137.1628493.9736467.2473327 1.4853231.2473327h3.8479456c.9939441 0 1.9374854-.3169685 2.7172762-.8923283.7586069-2.4662455 2.9044371-4.2969593 5.4889721-4.6239997.0349443-.0048672.0349443-.0048672.0768235-.0097504.0825021-.0094377.0825021-.0094377.1547892-.0162661.0938048-.0093776.1812828-.0163497.2318261-.0184089.0864436-.0051186.0864436-.0051186.0628653-.0035318.0132129-.000667.0132129-.000667.0273725-.0013963.0196241-.0010119.0196241-.0010119.0409648-.0020765.0703354-.003449.1247039-.0052002.1841785-.0052002h.0729338c.9094226 0 1.6946226.6370977 1.8793686 1.5281083l-.0001993-.0009589c.0097096.046599.6611146 4.244421 1.0737451 6.2067306.7577186 3.6034134 1.8561278 7.2521693 3.4642159 11.1147288 4.4421331 10.6698155 12.0501996 21.2289487 23.7919348 31.3953922l2.0280912 1.755999h-86.36532802l2.0280912-1.755999c11.74169002-10.1664044 19.34960672-20.7254737 23.79167832-31.3953847 1.6080278-3.8625029 2.706401-7.5111811 3.4641894-11.1147462.4125017-1.9615982 1.0638807-6.1580589 1.0738286-6.2057618.1847659-.8911064.9700396-1.5274331 1.8793684-1.5274331h.9954146c3.1730279 0 5.8854483 2.2418545 6.5043305 5.3249503z"
                          fill="none"/>
                    <path d="m37.2707096 32.2157145-.2821675-1.8479141-1.9771653.3013589.1198197.7875399.4802477.2277102c.5276105.2501672 1.0845504.4289171 1.6592654.5313051zm19.3829036 34.4250646-.0000054-.0000248c1.0695589 4.8828232 5.3737987 8.3592457 10.3463922 8.3592457v2h-12.9837298l-.283956-.5225052-1.492869-2.7470169c-1.3651386-2.5108658-2.417728-5.180198-3.1342488-7.9484514l-1.9951556-7.7059732c-.2102826-.8127078-.5981434-1.5692269-1.1342457-2.2128779l-7.3458261-8.8152691c-.8952544-1.074291-1.4803473-2.3746873-1.6916557-3.7592445l-1.9268554-12.6189703.9885421-.1509456.1769072-.0269154.2913992-.61457c.6083531.2884515 1.2704312.439974 1.9539488.439974h3.8503313c1.0950567 0 2.128167-.3862296 2.9499511-1.0809239l2.3592045-1.9943506-.7429727 2.9985449c-.0991028.3999666-.1460956.8099694-.1384358 1.2249694l.1980329 10.5369586c.0195451 1.0649464.3374142 2.1024777.9173161 2.9939755l5.417201 8.3356174c.5040793.7764023.8644162 1.6384672 1.0633617 2.5441208zm0 0 .0000055.0000249z"
                          fill="none"/>
                </g>
            </g>
            <g fill="#fff"
               mask="url(#a)">
                <path d="m.65631446 10.1234956h1.54762175v6.2110375c0 .3660068.2984674.6654669.66326089.6654669h4.53229575c.36479349 0 .66326089-.2994601.66326089-.6654669v-4.5473702h2.76357406v4.5473702c0 .3660068.2984674.6654669.6632609.6654669h4.3111958c.3647934 0 .6632608-.2994601.6632608-.6654669v-6.2110375h1.8792522c.2653044 0 .508487-.16636669.6079762-.41035818.0994891-.24399148.0442044-.53237352-.1436935-.72093552l-8.6445133-8.79524117c-.25426302-.2551087-.67430224-.26618677-.92856526-.01107807l-9.03138944 8.79524117c-.19897827.18856201-.25426302.4769049-.15477388.73201359.09948913.25506955.34267178.41035818.60797614.41035818z"
                      transform="translate(82 79)"/>
            </g>
        </g>
        <path d="m91.499954-23.99991c-48.8771584 0-88.499956 39.6227419-88.499956 88.499956 0 48.877214 39.6227976 88.499956 88.499956 88.499956 48.877277 0 88.499956-39.622679 88.499956-88.499956 0-48.8772773-39.622679-88.499956-88.499956-88.499956z"/>
    </g>
</svg>