<svg height="182"
     viewBox="0 0 182 182"
     width="182"
     xmlns="http://www.w3.org/2000/svg">
    <mask id="a"
          fill="#fff">
        <path d="m73.838429 7.990345c11.530386 5.901157 19.840989 10.546155 30.617272 16.531152 10.430112 5.195984 12.551644 11.569789 12.527487 24.682496.000357 11.88694.035819 21.074101 0 34.458764.043554 13.371563-2.616691 15.569481-13.216259 22.493224-9.907702 5.764917-18.66634 10.80488-29.9285 17.130084-9.881046 6.409568-18.219019 6.147306-27.234816 0-11.010951-5.974386-18.961698-10.547989-29.9285-17.130084-10.595641-6.469173-14.45612-11.410755-14.641879-24.083171.029988-12.089466-.098056-20.74909 0-32.868817-.037485-12.424433 4.211767-19.033776 14.641879-24.081861 11.196115-7.044263 18.917549-11.477696 29.9285-17.131787 12.11301-6.641307 15.189517-6.691218 27.234816 0z"
              fill="#fff"
              fill-rule="evenodd"/>
    </mask>
    <g fill="none"
       fill-rule="evenodd"
       transform="translate(0 26)">
        <g transform="translate(31)">
            <path d="m84.913524 40.5812276-3.986538-3.692677v-12.5631506h-7.963896v5.186559l-10.9640081-10.1557168-22.9124199 21.2240065v22.4250013h45.826862zm4.9854658 4.6044175c.0000177-.0000296.0000823-.0000451.0002042-.0000451.0000721 0 .0000941.000018.0000773.0000488z"
                  mask="url(#a)"
                  stroke="#e85181"
                  stroke-width="2"/>
            <path d="m-3.000002 64.000245v-2.000175h124.000133v2.000175z"
                  fill="#e85181"
                  mask="url(#a)"/>
            <g stroke="#e85181"
               stroke-width="2">
                <path d="m51.6931985 63.5-13.3746534 18.1798287 24.2413962 10.054735-6.4152951 9.7654363-1.9435371 16.407394-6.2011091 5.577564"
                      mask="url(#a)"/>
                <path d="m76.5863203 63-14.3449241 19.3165677 26 10.6834323"
                      mask="url(#a)"
                      transform="matrix(-1 0 0 1 150.482792 0)"/>
                <path d="m38.3185451 81.6798287-25.4770189 3.250779-7.8415262-3.250779"
                      mask="url(#a)"/>
                <path d="m88.2413962 81.6798287 15.3097438 7.3107527 13.081515-3.6553763"
                      mask="url(#a)"/>
                <path d="m56.144646 101.5 40.896536 8.164248"
                      mask="url(#a)"/>
                <path d="m54.201109 117.907394-23.201109-3.907394"
                      mask="url(#a)"/>
                <path d="m12.603528 85.335205 5.445965 20.246919"
                      mask="url(#a)"/>
            </g>
            <path d="m54.481202 42.245725c-.142818-.314982.010192-.472014.340132-.349272l5.166668 1.921347c.329914.122769.68731-.03645.794222-.353916l.973076 1.920429c-.107224.317466-.464282.476658-.794222.353916l-3.324048-1.236249c-.32981-.122742-.483054.034263-.340002.349569l3.9717164 8.7459914c.191344-.0016069.3869993.067008.5299236.2021326l3.596554 3.397788c.25805.243648.519428.164214.580788-.176013l.869856-4.820364c.061334-.340821.358072-.748332.659412-.905688l4.307446-2.252205c.301314-.157653.68653-.031482.856232.280071l.123266.226503c.169468.311553.061672.695385-.239538.852741l-3.68888 1.928826c-.301314.157329-.598078.56484-.659412.905688l-1.222572 6.773787c-.06123.340524-.322712.419661-.580554.176337l-3.9557114-3.7371029c-.0530526.1068828-.1907614.1511877-.3885766.1040639l-8.964384-2.131947c-.34138-.081324-.5174.114642-.390936.435861l1.519076 3.859218c.126802.321219.09568.82188-.068432 1.113183l-2.879214 5.110722c-.164112.291303-.549536.387882-.85683.21465l-.223028-.125874c-.307164-.173205-1.00685-.189405-.842738-.480708l3.132818-4.889538c.163982-.291303.195-.791964.068302-1.113183l-2.271412-5.770278c-.12623-.320895.049556-.517158.390936-.435861l8.78917 2.090205c.34138.081324.503542-.109971.360724-.424953z"
                  fill="#e85181"/>
        </g>
        <path d="m91.499954-23.99991c-48.8771584 0-88.499956 39.6227419-88.499956 88.499956 0 48.877214 39.6227976 88.499956 88.499956 88.499956 48.877158 0 88.499956-39.622742 88.499956-88.499956 0-48.8772141-39.622798-88.499956-88.499956-88.499956z"
              stroke="#e85181"
              stroke-width="2"/>
    </g>
</svg>