<svg height="182"
     viewBox="0 0 182 182"
     width="182"
     xmlns="http://www.w3.org/2000/svg">
    <mask id="a"
          fill="#fff">
        <path d="m73.838548 7.990345c11.530386 5.901157 19.840989 10.546155 30.617272 16.531152 10.429993 5.195984 12.551644 11.569789 12.527487 24.682496.000357 11.88694.035819 21.074101 0 34.458764.043554 13.371563-2.616691 15.569481-13.216259 22.493224-9.907821 5.764917-18.66634 10.80488-29.9285 17.130084-9.881046 6.409568-18.219019 6.147306-27.234935 0-11.010951-5.974386-18.961579-10.547989-29.928381-17.130084-10.595641-6.469173-14.45612-11.410755-14.641879-24.083171.029988-12.089466-.098056-20.74909 0-32.868817-.037485-12.424433 4.211767-19.033776 14.641879-24.081861 11.195996-7.044263 18.91743-11.477696 29.928381-17.131787 12.113129-6.641307 15.189636-6.691218 27.234935 0z"
              fill="#fff"
              fill-rule="evenodd"/>
    </mask>
    <g fill="none"
       fill-rule="evenodd"
       transform="translate(0 26)">
        <g transform="translate(31)">
            <g mask="url(#a)">
                <g transform="translate(-4 30)">
                    <path d="m.999998 67.000245v-2.000175h124.000133v2.000175z"
                          fill="#e85181"/>
                    <g stroke="#e85181"
                       stroke-linejoin="round"
                       stroke-width="2">
                        <path d="m71.3275855 9.4652005c4.5027765 2.1406065 7.4156577 6.6376385 7.4156577 11.5753259 0 7.1038423-5.9201379 12.870866-13.1860971 12.870866-2.1387563 0-4.2378146-.5068595-6.1222776-1.4716455h-2.1264937c-1.884463.964786-3.9835214 1.4716455-6.1222777 1.4716455-7.26593 0-13.1860971-5.7669951-13.1860971-12.870866 0-4.9375993 2.9130446-9.4346109 7.4159339-11.57532479.5211019-2.68926473 1.9081557-5.14346928 3.9805184-7.02361434 2.4466779-2.21958312 5.6352407-3.44158727 8.9753439-3.44158727 3.3401188 0 6.5286851 1.22201495 8.9752829 3.44161111 2.0723879 1.88016795 3.4594787 4.33438967 3.9805064 7.02358939z"
                              fill-rule="nonzero"/>
                        <path d="m59.195946 14.584803v49.942858"
                              stroke-linecap="round"/>
                        <path d="m59.247466 27.611785 6.491554-3.949367"
                              stroke-linecap="round"/>
                        <path d="m59.137066 23.520542-5.65251-6.47943"
                              stroke-linecap="round"/>
                        <path d="m92.2963216 42.8915322c1.5961385-3.3314211 2.3355549-7.027003 2.1038708-10.76104l-.2129679-3.4323887 2.020296 2.7829933c.1589496.2189558.425441.6160365.7635757 1.1705948.5583597.9157383 1.1156882 1.9468392 1.6358856 3.0731279 2.1346792 4.6218318 3.0261972 9.3719182 1.9338332 13.8623448-.013287.0543363-.013287.0543363-.026926.1089727-.8301385 3.3044001-2.3624902 6.3463728-4.3917274 9.1001385-1.1027443 1.4964733-2.2836586 2.8143689-3.4662154 3.9440617-.4156625.3970811-.8028141.742997-1.1519548 1.0364538-.2137261.1796393-.370275.3040327-.4601569.3718417l-2.3527825 1.7749929.7868201-2.840264c.014739-.0532049.0429913-.1567521.0828217-.3052498.0667382-.2488174.1411964-.5318447.2214376-.8436783.2293856-.8914386.458799-1.8337138.6727118-2.7832735.1563657-.6941084.2985107-1.3663992.4231334-2.0074224.157508-.8101757.2834205-1.5518655.3740228-2.211059-.2864093.1855342-.5751208.3680823-.8631815.5450199-.3137729.192731-.6194797.374211-.9151245.5425717-.9781249.5570125-1.8105356.9523199-2.4836975 1.1504848l-.6669972.1963502-.4163222-.5568792c-.1625734-.2174606-.4331021-.6137768-.7753945-1.1733474-.5637706-.9216372-1.1260971-1.9745934-1.6505111-3.1435593-1.4873435-3.3154216-2.3787127-6.865703-2.4031949-10.5378185-.6219049.5519466-1.238236 1.1995789-1.8231374 1.9465515-3.5193425 4.4945224-4.6988225 10.7614099-2.0880008 19.1553774l.8519776 2.7391654-2.3701673-1.6159208c-.2923582-.1993225-.7805801-.5717315-1.3996798-1.1108447-1.0226209-.8905001-2.0437147-1.9340818-2.9977019-3.125474-4.6156137-5.7642347-6.0362531-12.6733952-2.2903516-20.377426 1.0765328-2.2144812 2.1152225-4.2495015 3.2309658-6.3532062.421777-.7952493.831837-1.558194 1.3498758-2.5144185.1471185-.2715593.3113555-.5742492.6076797-1.1203159.2348934-.4330522.4026852-.7431435.5624226-1.0397517 1.6976828-3.1523404 2.4235218-4.7307266 2.8568087-6.364902.4450147-1.6784077.5157662-3.3514431.2218988-5.5883883l-.2345241-1.7852187 1.6394556.7444413c.1163627.0528377.3185469.1519538.594391.2985757.4504456.2394293.9499162.528726 1.4862417.8691959 1.5269002.9693059 3.0522612 2.1581911 4.4777472 3.5784053 3.6742295 3.6606412 6.0513081 8.1965647 6.4888509 13.6474936.2897136 3.6191081.2855683 6.577888.0539931 8.9526921z"
                              fill="#fff"
                              fill-rule="nonzero"/>
                    </g>
                </g>
            </g>
            <path d="m20.8290288 87.1009943h1.9548906v8.0378132c0 .4736559.3770115.8611925.8378033.8611925h5.7250051c.4607918 0 .8378032-.3875366.8378032-.8611925v-5.884832h3.4908304v5.884832c0 .4736559.3770115.8611925.8378032.8611925h5.445721c.4607918 0 .8378033-.3875366.8378033-.8611925v-8.0378132h2.3737922c.3351213 0 .6422994-.2152981.7679699-.5310518.1256704-.3157536.0558371-.6889539-.1815076-.9329753l-10.9193852-11.3820768c-.3211744-.3301407-.8517502-.344477-1.1729245-.0143364l-11.4080709 11.3820768c-.251341.2440215-.3211744.6171711-.1955039.9473117.1256705.3300901.4328486.5310518.7679699.5310518z"
                  style="stroke:#e85181;stroke-width:2;fill:#fff;fill-rule:nonzero;stroke-linejoin:round;mask:url(#a)"/>
        </g>
        <path d="m91.499954-23.99991c-48.8771584 0-88.499956 39.6227419-88.499956 88.499956 0 48.877214 39.6227976 88.499956 88.499956 88.499956 48.877277 0 88.499956-39.622679 88.499956-88.499956 0-48.8772773-39.622679-88.499956-88.499956-88.499956z"
              stroke="#e85181"
              stroke-width="2"/>
    </g>
</svg>