<svg height="182"
     viewBox="0 0 182 182"
     width="182"
     xmlns="http://www.w3.org/2000/svg">
    <mask id="a"
          fill="#fff">
        <path d="m73.838548 7.990607c11.530386 5.900764 19.840989 10.545762 30.617272 16.531021 10.429993 5.195722 12.551644 11.569527 12.527487 24.682234.000357 11.88694.035819 21.074363 0 34.459026.043554 13.37117-2.616691 15.569612-13.216259 22.493224-9.907702 5.764655-18.66634 10.804618-29.9285 17.129822-9.881046 6.410223-18.219019 6.147568-27.234816 0-11.010951-5.973993-18.961698-10.547989-29.9285-17.129822-10.595641-6.469435-14.45612-11.410624-14.641879-24.083433.029988-12.089204-.098056-20.74909 0-32.868817-.037485-12.424433 4.211767-19.033776 14.641879-24.081861 11.196115-7.044263 18.917549-11.477696 29.9285-17.131394 12.11301-6.6417 15.189636-6.691611 27.234816 0z"
              fill="#fff"
              fill-rule="evenodd"/>
    </mask>
    <g fill="none"
       fill-rule="evenodd"
       transform="translate(0 25)">
        <path d="m91.7-22.000002c-48.9857081 0-88.6956214 39.6232322-88.6956214 88.499956 0 48.876724 39.7099133 88.499956 88.6956214 88.499956 48.985708 0 88.695621-39.623232 88.695621-88.499956 0-48.8767238-39.709913-88.499956-88.695621-88.499956z"
              stroke="#e85181"
              stroke-width="2"/>
        <path d="m116.223058 71.6249401c.503358-.7699372 1.491334-.9396439 2.072054-.1104307.227958.3255031.359831.7757641.464676 1.4129559.164459.9995049.250842 2.5106748.250834 4.2175918-.000018 3.8442702-.378356 7.3041408-1.112601 8.4289946-4.720349 7.2202539-13.467955 11.6871083-22.836895 11.6871083-6.6988659 0-13.1515271-2.2872716-18.0299811-6.3302415-4.8760766 4.0427671-11.3287722 6.3302415-18.0277289 6.3302415-6.698059 0-13.151542-2.2881158-18.0303659-6.3321211-4.878392 4.0437863-11.3323243 6.3321211-18.0301501 6.3321211-9.3706833 0-18.11918286-4.4670204-22.83934704-11.6869405-.73563146-1.1247308-1.11434489-4.5844744-1.11396171-8.4297634.00017009-1.7068441.08683868-3.218147.25161814-4.2177584.10504569-.6372449.23713477-1.0875758.4653856-1.4130863.58100428-.8285752 1.56858939-.6588287 2.07216443.1111777 4.33857978 6.6388071 12.45052638 10.7810479 21.16292058 10.7810479 6.521999 0 12.7877052-2.3279641 17.3658133-6.3969429l.6642878-.5904127.6643187.5903781c4.5789487 4.0692986 10.8439193 6.3969775 17.3658522 6.3969775 6.5235201 0 12.7878833-2.3272453 17.363341-6.3955588l.6643137-.590681.6644578.5905188c4.5780479 4.0686156 10.8426582 6.395721 17.3658415 6.395721 8.71031 0 16.82198-4.1420518 21.163152-10.7808969z"
              mask="url(#a)"
              stroke="#e85181"
              stroke-width="2"
              transform="translate(32 1)"/>
        <path d="m90.999132 29.993032 9.96402 9.229788v-3.897234h9.963896v13.12605l8.649806 8.012196c.402504.373896.426374 1.002888.051832 1.404486-.195362.210654-.461404.317196-.72943.317196-.243226 0-.48732-.087588-.678528-.265464l-3.307018-3.063204v25.148286h-47.82711v-25.147314l-3.307018 3.06315c-.40455.372924-1.035214.35019-1.408764-.051678-.37479-.40257-.350858-1.031562.051708-1.405458zm5.044754 34.15716h-10.089446c-.51522 0-.933596.41715-.933596.93123v12.9357h11.9567v-12.9357c0-.51408-.418438-.93123-.933658-.93123zm-5.044754-31.444794-21.92072 20.305512v25.006212h13.949566v-12.9357c0-1.610118 1.312292-2.91897 2.926462-2.91897h10.089446c1.614232 0 2.926524 1.308852 2.926524 2.91897v12.9357h13.949504v-25.00713l-1.992866-1.845666-5.69935-5.279256zm17.935174 4.607874h-5.978412v3.755484l5.978412 5.536944z"
              fill="#e85181"/>
    </g>
</svg>