<svg height="182"
     viewBox="0 0 182 182"
     width="182"
     xmlns="http://www.w3.org/2000/svg">
    <mask id="a"
          fill="#fff">
        <path d="m73.838429 7.990607c11.530386 5.900764 19.840989 10.545762 30.617272 16.531021 10.430112 5.195722 12.551644 11.569527 12.527487 24.682234.000357 11.88694.035819 21.074363 0 34.459026.043554 13.37117-2.616691 15.569612-13.216259 22.493224-9.907702 5.764655-18.66634 10.804618-29.9285 17.129822-9.881046 6.410223-18.219019 6.147568-27.234816 0-11.010951-5.973993-18.961698-10.547989-29.9285-17.129822-10.595641-6.469435-14.45612-11.410624-14.641879-24.083433.029988-12.089204-.098056-20.74909 0-32.868817-.037485-12.424433 4.211767-19.033776 14.641879-24.081861 11.196115-7.044263 18.917549-11.477696 29.9285-17.131394 12.11301-6.6417 15.189517-6.691611 27.234816 0z"
              fill="#fff"
              fill-rule="evenodd"/>
    </mask>
    <g fill="none"
       fill-rule="evenodd">
        <path d="m89.3676523 70.1537915c.8033259.1438988 2.5621811.1607781 8.3808174.1245011 3.2866543-.020491 5.1045703-.0245873 7.1713163-.0077486 11.833912.0964163 17.078433.7258251 17.072598 3.46715v80.754648c0 4.701447-3.817705 8.504114-8.528052 8.504114h-108.928535c-4.71219533 0-8.528306-3.803593-8.528306-8.504114v-41.903541l.99065582-.009257c2.64511644-.024718 4.27894505-.036314 6.21469167-.039873 3.97474474-.029277 25.24385081-.062026 38.65269621-.070751l1.4122975-.000559c3.1515396.035382 6.100259-1.293397 7.9051817-3.463227 1.6854298-1.999972 2.5379047-4.536985 2.5419171-7.240024-.007534-2.6720752-.8259324-5.1755305-2.4208016-7.1748395-.8641453-1.0716189-1.9473177-1.9538751-3.1818806-2.5594748-1.2814307-.637587-2.7655286-.9745137-4.3048704-.9745213-3.6066021.0141032-6.365067-.6161893-7.818626-1.5697433-.555523-.3565604-.9025504-.7140071-1.1076284-1.0865271-.176955-.3080464-.248272-.5753522-.2527854-.8832929-.0690792-.8845403.5919216-2.1765624 1.6365229-3.082634 1.1789291-1.0471823 2.7788323-1.6801562 4.4004365-1.6756071h17.108424c1.3599845 0 2.4806707.1693697 3.2779196.4741464.5613305.2095999.9709645.4538678 1.3220128.7853985.5407209.5086237.9228263 1.1502679 1.2351656 2.1518396.3483606 1.1033508.533851 2.6436412.529636 4.4836095l-.0013858 11.174826.0007371.033888c.0000892.000903.0290061.434271.0497611.648916.0377405.390308.0958105.803377.1823007 1.250229.2424557 1.252648.6625127 2.53966 1.3049588 3.812336.8474504 1.639062 2.0407671 3.058654 3.6006857 4.107183 1.7629149 1.199039 4.0450602 1.866952 6.5535444 1.866952l.0703824.000005c2.4474926.007519 4.6050641-.460796 6.3879262-1.364599 2.3443782-1.174608 4.0532884-3.150496 4.9623202-5.371037.6689848-1.635325.9269892-3.138426.9316432-4.575455v-32.2936296zm-93.3444133 4.3615645c0-2.1080364.79616945-3.4579129 2.36755492-4.0849815 1.0878696-.4341193 2.05129125-.4901258 4.72422819-.4423408.68097277.012174 1.02628851.0165042 1.43652289.0157643h77.616687v32.22116c0 .340378-.0551917.861721-.171771 1.342357-.2539582 1.031001-.7322736 1.930151-1.4660584 2.588239-1.0448608.893591-2.3350272 1.34509-4.6298131 1.374976-1.423556-.01998-2.3628164-.29303-3.2296375-.844619-.9544322-.627091-1.6689152-1.721827-2.0959304-3.03938-.1565878-.493388-.2687952-1.010803-.3177346-1.386966-.0210064-.098533-.0359054-.193004-.0474941-.291237-.0059614-.050532-.0116144-.108413-.0157098-.15117-.0000622-.00056-.0000622-.00056-.0001003-.000896l-.0064268-.113192v-11.053648c0-2.130149-.1906042-3.9456851-.6088058-5.6041024-.650094-2.6408594-2.0927377-4.8950616-4.1305827-6.2807676-2.0253291-1.3860743-4.5469177-2.015446-7.6564445-2.015446h-17.108424c-3.1601273 0-6.132291 1.1748386-8.4103903 3.2003878-2.2992137 2.0572628-3.6332306 4.6736478-3.6567702 7.4919918-.0036051 1.3688704.3588035 2.7596357 1.0557104 3.9624985 1.0673859 1.8559233 2.9017377 3.3242605 5.2785733 4.2463539 2.3830038.9452379 5.2876068 1.412145 8.8813382 1.4197478.6334265.0041861 1.122673.1144949 1.6622244.3572355.6403325.3317769 1.1553784.8536936 1.5655555 1.6076602.4083308.7751949.6463527 1.7651835.6463472 2.7205145.0042744 1.289055-.4251356 2.556684-1.1469722 3.383812-.8485183.903508-1.6776809 1.278785-3.2765613 1.303646-7.7226077 0-41.55060043.070459-46.25137415.106848l-1.00774085.007801z"
              mask="url(#a)"
              stroke="#e85181"
              stroke-width="2"
              transform="translate(32 26)"/>
        <path d="m82.999132 46.992978 9.963896 9.229734v-3.897234h9.96402v13.126104l8.649682 8.012196c.402628.373842.426436 1.002888.051832 1.404486-.195362.2106-.46128.317142-.729306.317142-.243102 0-.48732-.087534-.678652-.26541l-3.307018-3.063204v25.148286h-47.826924v-25.147368l-3.30708 3.063204c-.40455.372924-1.035214.35019-1.408888-.051408-.374666-.40284-.350796-1.031886.051832-1.405728zm5.04463 34.15743h-10.089446c-.515096 0-.933596.41688-.933596.93096v12.9357h11.9567v-12.9357c0-.51408-.418438-.93096-.933658-.93096zm-5.04463-31.445064-21.92072 20.305512v25.006212h13.949442v-12.9357c0-1.610118 1.312292-2.919294 2.926462-2.919294h10.089446c1.614232 0 2.926524 1.309176 2.926524 2.919294v12.9357h13.949504v-25.007184l-1.992742-1.845612-5.69935-5.27931zm17.935174 4.608198h-5.978412v3.75516l5.978412 5.537214z"
              fill="#e85181"/>
        <path d="m91.499954 2.999998c-48.8771584 0-88.499956 39.6227419-88.499956 88.499956 0 48.877214 39.6227976 88.499956 88.499956 88.499956 48.877158 0 88.499956-39.622742 88.499956-88.499956 0-48.8772141-39.622798-88.499956-88.499956-88.499956z"
              stroke="#e85181"
              stroke-width="2"/>
    </g>
</svg>