<svg height="182"
     viewBox="0 0 182 182"
     width="182"
     xmlns="http://www.w3.org/2000/svg">
    <g fill="none"
       fill-rule="evenodd"
       stroke="#e85181"
       stroke-width="2"
       transform="translate(0 26)">
        <path d="m48.213036 75.9375215c-.7148516-.3194456-1.213036-1.0387547-1.213036-1.8723531 0-1.129228.9141511-2.0486081 2.0425597-2.0486081h8.2261536l-.0904737 4.0973391h-4.2171607c.0474561 0 .0835446-.0362979.0835446-.0782277 0-.0419299-.0360885-.0782277-.0835446-.0782277h4.2206455l-.2211251 10.0083574h-8.9810917v-10.0337423zm40.9111314-23.6251339h4.0757745l.9892973 15.9197444h-6.0542294zm-9.7951983 0h4.0757746l.9892973 15.9197444h-6.0542295zm-9.79519 0h4.0757746l.9891576 15.9197444h-6.0542295zm-8.653217 33.6534138h-4.0869237l.9827503-44.4907518h6.0408829l.5912573 26.7570824h-2.6320037c-1.031994 0-1.8755929.8484681-1.8755929 1.8921527 0 .5514397.2361844 1.0637282.6419963 1.4225155l.3376335.2985092zm40.8955889-13.9643722.244341-.0042865v13.9686587h-41.3071412v-13.974626l.233508.0054619c-.7148821-.3194438-1.2131378-1.038747-1.2131378-1.8723526 0-1.1291666.9142122-2.0486081 2.042682-2.0486081h39.180915c1.128494 0 2.042682.9193431 2.042682 2.0486081 0 .8378379-.503239 1.5601547-1.223849 1.8771445z"
              fill-rule="nonzero"/>
        <path d="m42.641975 85.817419h95.358025"
              stroke-linecap="round"/>
        <g fill-rule="nonzero">
            <path d="m114.656314 79.1234956h1.547622v6.2110375c0 .3660068.298468.6654669.663261.6654669h4.532296c.364793 0 .663261-.2994601.663261-.6654669v-4.5473702h2.763574v4.5473702c0 .3660068.298467.6654669.663261.6654669h4.311195c.364794 0 .663261-.2994601.663261-.6654669v-6.2110375h1.879253c.265304 0 .508487-.1663667.607976-.4103582s.044204-.5323735-.143694-.7209355l-8.644513-8.7952412c-.254263-.2551087-.674302-.2661867-.928565-.011078l-9.03139 8.7952411c-.198978.188562-.254263.4769049-.154774.7320136.099489.2550696.342672.4103582.607976.4103582z"
                  fill="#fff"
                  stroke-linejoin="round"/>
            <path d="m70.3978764 30c1.3235478 0 2.3972516-1.136175 2.3972516-2.5382071v-1.1844526c0-1.2135515.9319176-2.2002646 2.0780762-2.2002646h29.7289198c1.324172 0 2.397876-1.1368363 2.397876-2.5388684 0-1.4013708-1.073704-2.5382073-2.397876-2.5382073h-29.7289198c-3.7901311 0-6.8732042 3.264354-6.8732042 7.2773403v1.1844526c0 1.4020321 1.073704 2.5382071 2.3978764 2.5382071z"/>
            <path d="m113.442112 24h2.115776c1.348601 0 2.442112-1.1190724 2.442112-2.5 0-1.3809275-1.093511-2.5-2.442112-2.5h-2.115776c-1.348601 0-2.442112 1.1190725-2.442112 2.5 0 1.3809276 1.093511 2.5 2.442112 2.5z"/>
            <path d="m99 31.5003256c0 1.3807477 1.093661 2.4996744 2.442445 2.4996744h23.115746c1.348785 0 2.441809-1.1189267 2.441809-2.4996744 0-1.3807476-1.093024-2.5003256-2.441809-2.5003256h-23.115746c-1.348784 0-2.442445 1.119578-2.442445 2.5003256z"/>
        </g>
        <path d="m91.499954-23.99991c-48.8771584 0-88.499956 39.6227419-88.499956 88.499956 0 48.877214 39.6227976 88.499956 88.499956 88.499956 48.877158 0 88.499956-39.622742 88.499956-88.499956 0-48.8772141-39.622798-88.499956-88.499956-88.499956z"/>
    </g>
</svg>