<svg height="182"
     viewBox="0 0 182 182"
     width="182"
     xmlns="http://www.w3.org/2000/svg">
    <mask id="a"
          fill="#fff">
        <path d="m73.838429 7.92961c11.530386 5.85572 19.840989 10.46526 30.617272 16.40483 10.429993 5.15606 12.551763 11.48121 12.527606 24.49382.000238 11.7962.035819 20.91349 0 34.19598.043435 13.2691-2.616691 15.45076-13.216378 22.32152-9.907702 5.72065-18.666459 10.72214-29.9285 16.99906-9.881046 6.36129-18.219019 6.10064-27.234935 0-11.010832-5.92839-18.96146-10.46747-29.9285-16.99906-10.595522-6.42005-14.456001-11.32352-14.64176-23.89959.030107-11.99692-.098056-20.5907 0-32.61791-.037485-12.32959 4.211886-18.88848 14.64176-23.89803 11.196115-6.99049 18.917668-11.39008 29.9285-17.00062 12.113248-6.591 15.189755-6.64053 27.234935 0z"
              fill="#fff"
              fill-rule="evenodd"/>
    </mask>
    <g fill="none"
       fill-rule="evenodd"
       transform="translate(0 26)">
        <g transform="translate(31)">
            <path d="m61.3759499 38.0429556.7091147.70777-.0000075-1.4155476zm-.0374819.0374116-.7067109.7053858 1.4131542.000268zm.9368173 15.3385562c-.0099218.0851254-.0206454.1573639-.0312996.2154918l-.1438253.781646.9834896.1809648.1929408-.9812104zm-.0519295-.0102112-.987465-.1941706-.1929408.9812104.9771817.212405.17005-.782325c.0119675-.0654921.0231368-.1380499.0331741-.2171198zm-13.2143891-15.3290086-.7073927.7060325 1.4138192.0009667zm-.0357316-.0357606-.7072419-.7078152-.000995 1.4146349zm6.2021778-6.1897658.7064353-.7050215-1.4128336-.0000371zm-23.5971627 6.1881452.709847.7084356.0006256-1.4162439zm-.0334276.0333022-.7061998.7035515 1.4119783.0004226zm.92634 15.3417433c-.0094987.1024642-.0189231.1748119-.0253308.2047258l-.160832.7639286.9785502.2060087.1926552-.9812665zm-.0429207-.0084268-.9904367-.1944556-.1926552.9812665.976582.2151458.17235-.782325c.0125153-.0704183.0239436-.1436738.0341599-.2196317zm-13.21756-15.3309242-.7090702.7077315 1.4155037.0026319zm-.0324349-.0326154-.7036816-.7075962-.0024535 1.412744zm6.1997118-6.1910437.7064031-.7054155-1.4130147.0002087z"
                  fill="none"
                  mask="url(#a)"
                  stroke="#e85181"
                  stroke-width="2"/>
            <path d="m44.499918 61.999863c.322629 0 .647759.002805.966247.008721.491631.008721.88314.417792.87453.913461-.008692.495669-.414264.895713-.906018.881382-.308197-.005304-.622667-.008109-.934759-.008109-4.873096 0-9.441931.665193-12.864857 1.872771-3.039576 1.072377-4.854359 2.491809-4.854359 3.796287 0 1.60854 2.170376 2.656284 3.381147 3.206778 1.18572.538713 2.434047.935952 3.69369 1.256844 3.46655.883881 7.074878 1.205079 10.644297 1.205079 3.970973 0 8.052154-.326196 11.85925-1.522248 1.712406-.53805 5.860417-1.787091 5.859843-4.146759-.000451-1.643781-2.840439-3.410931-7.235762-4.501974-.477322-.118677-.769037-.605013-.651408-1.086402.11767-.481032.599912-.775149 1.07748-.656727 5.459396 1.35558 8.590607 3.631761 8.59073 6.245103v33.071358c0 1.531632-1.049067 3.727131-6.046803 5.490813-3.606975 1.272705-8.384746 1.9737-13.453248 1.973394-5.068338 0-9.846027-.700689-13.453084-1.9737-4.997736-1.763376-6.046844-3.959181-6.046844-5.490507v-33.071358c0-1.531326 1.04919-3.726825 6.046721-5.490507 3.606934-1.273011 8.384746-1.9737 13.453207-1.9737zm17.719011 40.200342-.0535159.044535c-.0415283.082893-.1068122.130384-.1949234.153209-.2327579.179689-.475098.34637-.7232607.502945-.969322.611592-2.022776 1.0761-3.097263 1.464618-1.269606.458898-2.575374.81192-3.894754 1.092012-.797286.169473-1.626183.317169-2.480746.442374-.712129.104397-1.442052.193494-2.186612.266373-1.637745.160446-3.345682.243321-5.087813.243321-3.484508 0-6.831666-.331449-9.755417-.952068-.951118-.191607-1.895471-.441813-2.821866-.730932-.913808-.285039-1.815849-.61812-2.684229-1.023111-.445629-.207825-.882443-.435897-1.303349-.691356-.21033-.127449-.416437-.261732-.617419-.403461-.100696-.071043-.199916-.143922-.297783-.218688l.1083081.082875c-.1354078-.028849-.2323721-.091598-.2888227-.207704-.0332059-.028443-.0585154-.052443-.0585154-.064942v.335529c0 1.304172 1.81466 2.723604 4.854236 3.795981 3.42268 1.207884 7.991515 1.873077 12.864652 1.873077 4.873096 0 9.441931-.665193 12.864734-1.873077 3.039576-1.072377 4.854359-2.491809 4.854359-3.795981zm.000451-14.240475c-.920778.767346-2.282388 1.535355-4.266132 2.235381-3.606934 1.273011-8.384746 1.9737-13.453084 1.9737-5.068379 0-9.84615-.700689-13.453125-1.9737-1.983703-.700026-3.345313-1.468035-4.266009-2.235381v.335529c0 1.510722 2.39276 3.134256 6.244464 4.237437.473017.135558.747553.632145.613196 1.108842-.134357.476646-.626808.753015-1.099784.61812-2.538884-.726852-4.48048-1.652502-5.757753-2.719881v10.405581c0 .135776.0196583.24029.0583104.319789.0658619.049465.1627014.110947.1805146.124829l.1083081.082875c.662641.141181 2.2459254-.529456 4.5072259.268515 1.069567.377298 2.251064.701964 3.518825.969561.507211.107202 1.028034.20502 1.561075.293811.533205.088791 1.078382.168249 1.634137.238017 1.944917.244239 4.01882.371382 6.150738.371382 2.436425 0 4.797-.166056 6.976191-.483531 2.179396-.317169 4.17708-.785451 5.888666-1.38924.189994-.066963.375027-.135507.555263-.204969 2.0800232-.8036 3.5037935.003066 4.0500827-.138448.0656322-.049501.1303702-.100764.1942822-.153038l-.1942822.153038c.163855-.042446.2487673-.170195.2487673-.452285v-10.396503c-.920901.767958-2.28124 1.536222-4.266091 2.236605-3.606975 1.273011-8.384746 1.9737-13.453002 1.9737-.635377 0-1.287113-.011832-1.937824-.03519-.491549-.017748-.875719-.433704-.858089-.929067s.429721-.8823.921598-.865164c.629555.022746 1.260217.034272 1.874315.034272 4.873137 0 9.441849-.665193 12.864775-1.873077 3.039535-1.072377 4.854236-2.491503 4.854236-3.795981h.000205zm-25.8370102 5.3422074.1112732.0121296c.840008.144585 1.726223.267954 2.634209.366384.488884.052989.842755.49572.790111.988278-.049118.460479-.435256.801924-.884288.801924-.031816 0-.063878-.001887-.096268-.005304-.944599-.102153-1.867796-.230826-2.74372-.381633-.484784-.083487-.81057-.547383-.727709-1.036218.082861-.488529.542881-.817224 1.027665-.733431zm25.8368052-16.9936674c-.921024.767958-2.281404 1.536579-4.266255 2.236911-3.606852 1.272705-8.384623 1.9737-13.453002 1.9737-5.068338 0-9.84615-.700995-13.453084-1.9737-1.984851-.700332-3.345354-1.468953-4.266009-2.236911l.000123 8.396334c0 1.304478 1.814537 2.723604 4.854236 3.795981 3.422803 1.207578 7.991638 1.872771 12.864857 1.872771 4.873137 0 9.441972-.664887 12.864775-1.872771 3.039535-1.072377 4.854359-2.491809 4.854359-3.795981zm-.000246-3.589125c-1.342504 1.118787-2.932771 1.88649-4.580971 2.429181-4.171709 1.37394-8.773467 1.7799-13.13804 1.7799-2.536588 0-5.058744-.188802-7.567493-.562938-1.77899-.265455-3.546418-.641835-5.259931-1.197633-.831316-.269484-1.651644-.581043-2.444379-.95115-.402702-.187578-.79868-.391629-1.18285-.615672-.179416-.104346-1.263087-.654891-1.26444-.881688v.335223c0 1.304478 1.814578 2.723604 4.854359 3.796287 3.42268 1.207578 7.991515 1.872771 12.864652 1.872771 4.873096 0 9.441931-.665193 12.864734-1.872771 3.039658-1.072683 4.854359-2.491809 4.854359-3.796287zm-25.774732-6.796821c2.918134 0 5.203761 1.555551 5.203761 3.541746 0 1.986144-2.285627 3.542001-5.203761 3.542001-2.918011 0-5.20372-1.555857-5.20372-3.542001 0-1.986195 2.285586-3.541746 5.20372-3.541746zm0 1.795149c-1.95898 0-3.423049.922182-3.423049 1.746597 0 .82467 1.463946 1.746546 3.423049 1.746546 1.959226 0 3.423049-.921876 3.423049-1.746546 0-.824415-1.463823-1.746597-3.423049-1.746597zm12.5335342-5.5221529.1118498.0026779c.906961.079764 1.806337.184416 2.673323.311559.486629.071655.823649.527136.752924 1.017501-.064411.446811-.445055.768621-.880065.768621-.042558 0-.08569-.003111-.129191-.009333-.833243-.122451-1.698548-.22338-2.571602-.300033-.489909-.042993-.852472-.478227-.809791-.97206.042681-.493782.474616-.858636.964402-.816255z"
                  fill="#e85181"
                  mask="url(#a)"/>
            <path d="m62.166975 63.99969h2.83299v46.000269h-7.040985c-.711015 0-5.95893-2.341024-5.95893-3.715278v-36.657047c0-1.12504 6.197775-5.627944 10.166925-5.627944z"
                  fill="#fff"
                  mask="url(#a)"/>
            <path d="m71.499864 63.99971c.322728 0 .647724.003111.966336.008721.491652.008721.883134.417792.87444.913461-.008568.49572-.414162.895713-.905898.881688-.308322-.00561-.622818-.008364-.934878-.008364-4.873008 0-9.441936.665142-12.864894 1.873026-3.03954 1.072377-4.854318 2.491503-4.854318 3.795981 0 1.60854 2.17035 2.65659 3.381252 3.206829 1.185702.538968 2.434026.935901 3.69369 1.257099 3.466554.883575 7.074858 1.205079 10.644144 1.205079 3.971016 0 8.052282-.326196 11.859414-1.522248 1.712256-.53805 5.860386-1.787346 5.859714-4.146759-.000336-1.644087-2.840418-3.41088-7.235634-4.50228-.47733-.118371-.769146-.604707-.651504-1.086045.117642-.481032.599886-.775149 1.077552-.656778 5.459286 1.355274 8.590638 3.631455 8.590722 6.245103v33.071409c0 1.531275-1.049076 3.72708-6.046824 5.490507-3.606918 1.272705-8.384712 1.9737-13.453314 1.9737-5.068266 0-9.845934-.700995-13.453104-1.9737-4.997748-1.763733-6.046698-3.959538-6.046698-5.490813v-33.071103c0-1.531581 1.049076-3.727131 6.046572-5.490813 3.607086-1.272705 8.38488-1.9737 13.45323-1.9737zm17.719002 40.200699c-.306936.255765-.63399.487254-.971712.700332-.969318.611592-2.022636 1.0761-3.097122 1.464618-1.269618.459255-2.575398.812226-3.894786 1.092318-.797286.169167-1.626198.316863-2.480814.442425-.712068.104346-1.441986.193137-2.18652.266067-1.63779.160446-3.345678.243321-5.087922.243321-3.484404 0-6.831552-.331194-9.755298-.952119-.951132-.191607-1.895586-.441762-2.82198-.730932-.91371-.285039-1.815744-.617763-2.68422-1.023111-.445536-.207825-.882336-.435846-1.30326-.69105-.210336-.127398-.416556-.261987-.617526-.403767-.100716-.071043-.19992-.143922-.297654-.218688-.027342-.020859-.23919-.153612-.23919-.189414v.335223c0 1.304478 1.81482 2.723604 4.854234 3.796287 3.422706 1.207578 7.991634 1.87272 12.864642 1.87272 4.87326 0 9.441978-.664836 12.864768-1.87272 3.03954-1.072683 4.85436-2.491809 4.85436-3.796287zm.000588-14.240832c-.920934.767703-2.282532 1.535661-4.26615 2.235738-3.60696 1.272654-8.384838 1.973343-13.453104 1.973343-5.06835 0-9.84627-.700689-13.45323-1.973343-1.983576-.700077-3.345216-1.468035-4.265982-2.235738v.33558c0 1.510722 2.392698 3.134511 6.244476 4.237437.472962.135507.747642.632145.613284 1.109097-.134358.476391-.626808.753015-1.099812.61812-2.538984-.727158-4.48056-1.652451-5.757738-2.71983v7.404996c0 1.304478 1.814568 2.723604 4.85436 3.796287 1.069446.377604 2.251074.701913 3.518844.969561.507192.107151 1.027908.205275 1.561056.29376.53319.088791 1.078392.168249 1.63401.238017 1.94502.24429 4.018812.371688 6.150858.371688 2.436462 0 4.79703-.166362 6.9762-.483531 2.179296-.317169 4.17711-.7854 5.888568-1.389495.189966-.067014.375144-.135252.555366-.20502 2.703792-1.044327 4.298868-2.368134 4.298868-3.590961v-7.396275c-.921018.767958-2.281272 1.536579-4.26615 2.236962-3.606918 1.272654-8.384712 1.973649-13.453104 1.973649-.63525 0-1.28709-.012138-1.937712-.035496-.491526-.017748-.8757-.433347-.85806-.929067.017514-.495363.429744-.881994.921606-.865164.629538.022746 1.260084.034272 1.874166.034272 4.87326 0 9.441978-.665193 12.864768-1.872771 3.039582-1.072683 4.85436-2.491809 4.85436-3.79593h.000252zm-25.8371249 5.3422477.1112429.0121403c.84.144534 1.726242.268209 2.634198.366384.48888.053244.84273.495669.790104.988533-.049098.460173-.43512.801618-.884184.801618-.031794 0-.063966-.00153-.096348-.004947-.944496-.10251-1.867656-.230877-2.743734-.38199-.484764-.083181-.810558-.547383-.727608-1.035912.082866-.488835.542934-.81753 1.027572-.733686zm25.8367469-16.9937077c-.920892.767958-2.28123 1.536579-4.266108 2.236962-3.606834 1.273011-8.384628 1.9737-13.453104 1.9737-5.068266 0-9.84606-.700689-13.453104-1.9737-1.984752-.700383-3.345216-1.469004-4.266024-2.236962l.000126 8.396385c0 1.304427 1.814568 2.723553 4.85436 3.796236 3.422706 1.207578 7.991634 1.872771 12.864768 1.872771 4.873218 0 9.441936-.665193 12.864768-1.872771 3.03954-1.072683 4.854318-2.491809 4.854318-3.796236zm-.00021-3.589125c-1.342404 1.118838-2.932776 1.88649-4.580856 2.429232-4.171692 1.374246-8.773506 1.780206-13.138146 1.780206-2.536464 0-5.058648-.188802-7.567392-.563295-1.778994-.265455-3.546522-.641784-5.259954-1.197327-.83139-.269484-1.651608-.581349-2.444442-.95115-.402612-.187884-.798588-.391629-1.182762-.615621-.179424-.104703-1.263192-.655197-1.264578-.881688v.335223c0 1.304478 1.814568 2.723604 4.85436 3.795981 3.422706 1.207578 7.991634 1.87272 12.864642 1.87272 4.87326 0 9.441978-.664836 12.864768-1.87272 3.039666-1.072377 4.85436-2.491809 4.85436-3.795981zm-25.774602-6.796821c2.918118 0 5.203716 1.555908 5.203716 3.542052 0 1.985838-2.285598 3.541746-5.203716 3.541746-2.918034 0-5.203884-1.555908-5.203884-3.541746 0-1.986144 2.285724-3.542052 5.203884-3.542052zm0 1.795149c-1.959006 0-3.423042.922233-3.423042 1.746903s1.46391 1.746546 3.423042 1.746546c1.959216 0 3.422916-.922182 3.422916-1.746546s-1.4637-1.746903-3.422916-1.746903zm12.5334081-5.5219072.1118259.0027382c.907074.079458 1.806336.184467 2.673468.311559.486486.071349.823536.52683.752892 1.017552-.064428.44676-.445032.768264-.880026.768264-.042588 0-.085848-.002805-.129192-.009333-.833364-.122451-1.698564-.223074-2.571618-.299727-.48993-.042993-.8526-.478227-.809802-.972315.042714-.493527.4746-.858687.964278-.816z"
                  fill="#e85181"
                  mask="url(#a)"/>
            <path d="m-5.000052 57.000038v-2.000172h136.000104v2.000172z"
                  fill="#e85181"
                  mask="url(#a)"/>
            <path d="m88.6563145 49.1234956h1.5476217v6.2110375c0 .3660068.2984674.6654669.6632609.6654669h4.5322958c.3647934 0 .6632608-.2994601.6632608-.6654669v-4.5473702h2.7635741v4.5473702c0 .3660068.2984674.6654669.6632609.6654669h4.3111953c.364794 0 .663261-.2994601.663261-.6654669v-6.2110375h1.879253c.265304 0 .508487-.1663667.607976-.4103582s.044204-.5323735-.143694-.7209355l-8.6445131-8.7952412c-.254263-.2551087-.6743022-.2661867-.9285653-.011078l-9.0313894 8.7952411c-.1989783.188562-.254263.4769049-.1547739.7320136.0994891.2550696.3426718.4103582.6079762.4103582z"
                  style="stroke:#e85181;stroke-width:2;fill:#fff;fill-rule:nonzero;stroke-linejoin:round;mask:url(#a)"/>
        </g>
        <path d="m90.500046-23.000002c-48.8771584 0-88.499956 39.6227419-88.499956 88.499956 0 48.877214 39.6227976 88.499956 88.499956 88.499956 48.877158 0 88.499956-39.622742 88.499956-88.499956 0-48.8772141-39.622798-88.499956-88.499956-88.499956z"
              stroke="#e85181"
              stroke-width="2"/>
    </g>
</svg>