<svg height="182"
     viewBox="0 0 182 182"
     width="182"
     xmlns="http://www.w3.org/2000/svg">
    <mask id="a"
          fill="#fff">
        <path d="m73.838548 7.990607c11.530386 5.900764 19.840989 10.545762 30.617272 16.531021 10.429993 5.195722 12.551644 11.569527 12.527487 24.682234.000357 11.88694.035819 21.074363 0 34.459026.043554 13.37117-2.616691 15.569612-13.216259 22.493224-9.907702 5.764655-18.66634 10.804618-29.9285 17.129822-9.881046 6.410223-18.219019 6.147568-27.234816 0-11.010951-5.973993-18.961698-10.547989-29.9285-17.129822-10.595641-6.469435-14.45612-11.410624-14.641879-24.083433.029988-12.089204-.098056-20.74909 0-32.868817-.037485-12.424433 4.211767-19.033776 14.641879-24.081861 11.196115-7.044263 18.917549-11.477696 29.9285-17.131394 12.11301-6.6417 15.189636-6.691611 27.234816 0z"
              fill="#fff"
              fill-rule="evenodd"/>
    </mask>
    <g fill="none"
       fill-rule="evenodd"
       stroke="#e85181"
       stroke-width="2"
       transform="translate(0 25)">
        <g mask="url(#a)"
           transform="translate(32 1)">
            <g transform="translate(27 25)">
                <path d="m52.4672973 12.1875455 10.0247921 1.8875851v15.5429151l-10.0247921 1.8875851zm-10.6997227-1.9918367 10.1918121 1.8992706v19.5032174l-10.1918121 1.8992707zm-10.6997227-1.99413308 10.1918121 1.89927068v23.4914835l-10.1918121 1.8992706zm-10.8667428-2.00749602 10.3588322 1.91111146v27.48279394l-10.3588322 1.9111115zm-.5079106 1.60654574v13.88255626h-13.74469315zm-13.77196325 14.37538476h13.77196325v13.6891402z"
                      fill-rule="nonzero"
                      stroke-linejoin="round"/>
                <path d="m5.318545 9.405144v73.594856"
                      stroke-linecap="square"/>
                <circle cx="5"
                        cy="5"
                        r="4"/>
            </g>
        </g>
        <path d="m91.5-22.000002c-48.8771774 0-88.499993 39.6227429-88.499993 88.499956 0 48.877213 39.6228156 88.499956 88.499993 88.499956 48.877177 0 88.499993-39.622743 88.499993-88.499956 0-48.8772131-39.622816-88.499956-88.499993-88.499956z"/>
    </g>
</svg>