<svg height="182"
     viewBox="0 0 182 182"
     width="182"
     xmlns="http://www.w3.org/2000/svg">
    <mask id="a"
          fill="#fff">
        <path d="m73.838548 7.990345c11.530386 5.901157 19.840989 10.546155 30.617272 16.531152 10.429993 5.195984 12.551644 11.569789 12.527487 24.682496.000357 11.88694.035819 21.074101 0 34.458764.043554 13.371563-2.616691 15.569481-13.216259 22.493224-9.907702 5.764917-18.66634 10.80488-29.9285 17.130084-9.881046 6.409568-18.219019 6.147306-27.234816 0-11.010951-5.974386-18.961698-10.547989-29.9285-17.130084-10.595641-6.469173-14.45612-11.410755-14.641879-24.083171.029988-12.089466-.098056-20.74909 0-32.868817-.037485-12.424433 4.211767-19.033776 14.641879-24.081861 11.196115-7.044263 18.917549-11.477696 29.9285-17.131787 12.11301-6.641307 15.189636-6.691218 27.234816 0z"
              fill="#fff"
              fill-rule="evenodd"/>
    </mask>
    <g fill="none"
       fill-rule="evenodd"
       stroke="#e85181"
       stroke-width="2">
        <g transform="translate(32 26)">
            <g fill-rule="nonzero"
               mask="url(#a)">
                <g transform="translate(21 20)">
                    <path d="m0 66c3.44904109-8.9446192 5.57439627-16.5497823 6.6471945-23.7407403.76012077-5.0973013 1.05308959-10.4072314.88156964-16.2592597h20.93607956c-.1709872 5.8425547.1225141 11.1530112.8842329 16.2592597 1.0712004 7.1820108 3.1976208 14.7861212 6.6509234 23.7407403z"/>
                    <path d="m29 22c-.1261021 1.3640745-.2302966 2.6958447-.3125835 4h-21.37590164c-.082287-1.3041553-.18594724-2.6359255-.31151486-4z"/>
                    <path d="m57 66c-13.9992375 0-20.9988562 0-20.9988562 0-4.6239975-11.8262635-6.9465029-23.3564777-7.0011438-27.99947l9.5574716 4.6435223 1.0345369-4.6435223 9.7046134 4.6429923 1.0334769-4.6435223 6.6699012 4.0212765z"/>
                    <path d="m17.0289723 9c1.1199251 0 2.0284437-.92959772 2.0284437-2.0767149v-.96909762c0-.99290571.7885456-1.80021648 1.7583722-1.80021648h25.1552395c1.1204536 0 2.0289723-.93013878 2.0289723-2.07725596 0-1.14657612-.9085187-2.07671504-2.0289723-2.07671504h-25.1552395c-3.2070341 0-5.8157882 2.6708351-5.8157882 5.95418748v.96909762c0 1.14711718.9085187 2.0767149 2.0289723 2.0767149z"/>
                    <path d="m53.0932389 4h1.8135222c1.1559433 0 2.0932389-.89525789 2.0932389-2 0-1.10474201-.9372956-2-2.0932389-2h-1.8135222c-1.1559433 0-2.0932389.89525799-2.0932389 2 0 1.10474211.9372956 2 2.0932389 2z"/>
                    <path d="m41 11.0002605c0 1.1045981.9374233 1.9997395 2.0935242 1.9997395h19.813497c1.1561009 0 2.0929788-.8951414 2.0929788-1.9997395 0-1.10459812-.9368779-2.0002605-2.0929788-2.0002605h-19.813497c-1.1561009 0-2.0935242.89566238-2.0935242 2.0002605z"/>
                </g>
            </g>
            <path d="m82.6563145 79.1234956h1.5476217v6.2110375c0 .3660068.2984674.6654669.6632609.6654669h4.5322958c.3647934 0 .6632608-.2994601.6632608-.6654669v-4.5473702h2.7635741v4.5473702c0 .3660068.2984674.6654669.6632609.6654669h4.3111958c.3647934 0 .6632608-.2994601.6632608-.6654669v-6.2110375h1.8792527c.265304 0 .508487-.1663667.607976-.4103582s.044204-.5323735-.143694-.7209355l-8.6445131-8.7952412c-.254263-.2551087-.6743022-.2661867-.9285653-.011078l-9.0313894 8.7952411c-.1989783.188562-.254263.4769049-.1547739.7320136.0994891.2550696.3426718.4103582.6079762.4103582z"
                  fill="#fff"
                  fill-rule="nonzero"
                  mask="url(#a)"
                  stroke-linejoin="round"/>
            <path d="m10.641975 85.817419h95.358025"
                  mask="url(#a)"
                  stroke-linecap="round"/>
        </g>
        <path d="m91 2.00009c-48.6058407 0-88.010922 39.62152-88.010922 88.499956s39.4050813 88.499956 88.010922 88.499956c48.605841 0 88.010922-39.62152 88.010922-88.499956s-39.405081-88.499956-88.010922-88.499956z"/>
    </g>
</svg>