<svg height="182"
     viewBox="0 0 182 182"
     width="182"
     xmlns="http://www.w3.org/2000/svg">
    <mask id="a"
          fill="#fff">
        <path d="m73.838548 7.990345c11.530386 5.901157 19.840989 10.546155 30.617272 16.531152 10.429993 5.195984 12.551644 11.569789 12.527487 24.682496.000357 11.88694.035819 21.074101 0 34.458764.043554 13.371563-2.616691 15.569481-13.216259 22.493224-9.907821 5.764917-18.66634 10.80488-29.9285 17.130084-9.881046 6.409568-18.219019 6.147306-27.234935 0-11.010951-5.974386-18.961579-10.547989-29.928381-17.130084-10.595641-6.469173-14.45612-11.410755-14.641879-24.083171.029988-12.089466-.098056-20.74909 0-32.868817-.037485-12.424433 4.211767-19.033776 14.641879-24.081861 11.195996-7.044263 18.91743-11.477696 29.928381-17.131787 12.113129-6.641307 15.189636-6.691218 27.234935 0z"
              fill="#fff"
              fill-rule="evenodd"/>
    </mask>
    <g fill="none"
       fill-rule="evenodd"
       stroke="#e85181"
       stroke-width="2">
        <g mask="url(#a)"
           transform="translate(32 26)">
            <g transform="translate(10 24)">
                <path d="m9.17896177 71c-1.3376667 0-1.17248202-1.0718983-1.17248202-1.0718983v-66.9281017l56.76947725 66.8553697s.8939729 1.1446303-.8895827 1.1446303c-13.6768531 0-40.5651886 0-54.70741253 0z"
                      fill="#fff"
                      fill-rule="nonzero"
                      stroke-linejoin="round"/>
                <path d="m.641975 71.317419h95.358025"
                      fill="none"
                      stroke-linecap="round"/>
                <g fill="#fff"
                   fill-rule="nonzero"
                   stroke-linejoin="round">
                    <path d="m70.8290288 62.1009943h1.9548906v8.0378132c0 .4736559.3770115.8611925.8378033.8611925h5.7250051c.4607918 0 .8378032-.3875366.8378032-.8611925v-5.884832h3.4908304v5.884832c0 .4736559.3770115.8611925.8378032.8611925h5.445721c.4607918 0 .8378033-.3875366.8378033-.8611925v-8.0378132h2.3737922c.3351213 0 .6422994-.2152981.7679699-.5310518.1256704-.3157536.0558371-.6889539-.1815076-.9329753l-10.9193852-11.3820768c-.3211744-.3301407-.8517502-.344477-1.1729245-.0143364l-11.4080709 11.3820768c-.251341.2440215-.3211744.6171711-.1955039.9473117.1256705.3300901.4328486.5310518.7679699.5310518z"/>
                    <path d="m37.0197127 29.2059717c.0012986.001523.0021643.0028285.0034629.0043516l4.1987357 5.0020077c1.4870883 1.771558 3.6635051 2.787669 5.9712948 2.787669 1.8385701 0 3.6262792-.6573172 5.0335049-1.8511932 1.5940046-1.3524938 2.5688038-3.2480739 2.7447612-5.3375202.1761737-2.0896638-.467921-4.1229737-1.8130314-5.72547-1.486439-1.7711228-3.6622066-2.7867987-5.9693469-2.7867987-.6443111 0-1.286458.0393825-1.8892146.231508-.523327.1666683-.7412717-.0772419-.8722116-.1771123-.9317298-.7086667-2.074262-1.1003155-3.2674388-1.1003155-1.2754201 0-2.5151293.4560533-3.4912271 1.2839553-.5731058.4860796-1.0202495 1.0672429-1.3384012 1.7012788-.119902.2386881-.4683538.6660205-.8488371.0872506l-1.7712605-2.109899c-.3735576-.4845566-.0376588-.7341239.1856966-.8287724.3997457-.1690617.7750347-.3979586 1.11115-.6832095.8903917-.755447 1.4349288-1.8144218 1.5331878-2.9817527.0984755-1.1675485-.261447-2.3035476-1.0131073-3.1986826-.449308-.5352534-1.4135022-.9773813-1.6524406-1.2175926-.1696808-.1705848-.4666223-1.307019-.9161468-1.8424899-.8304406-.98913078-2.0456933-1.55658634-3.3343156-1.55658634-.061466 0-.1227156.00130549-.1839652.00391648-.2224897.00913848-.684567.05309017-.9700378-.29417175l-3.8881591-4.631682c-.617041-.7352118-1.5197692-1.1566694-2.4772541-1.1566694-.763131 0-1.5050519.27284865-2.0885464.76806678-.0636303.05396049-.1246634.1103144-.1833159.16862655-.14306.14251664-.4376208.43016092-.7300173.04960885l-2.8122872-3.35033774c-.4625102-.55135445-1.2816965-.62141607-1.8296965-.15578918-.5482163.46497413-.6176903 1.28852449-.1549636 1.83966136z"/>
                </g>
            </g>
        </g>
        <path d="m91.499954 2.00009c-48.8771584 0-88.499956 39.6227419-88.499956 88.499956 0 48.877214 39.6227976 88.499956 88.499956 88.499956 48.877277 0 88.499956-39.622679 88.499956-88.499956 0-48.8772773-39.622679-88.499956-88.499956-88.499956z"/>
    </g>
</svg>