<svg height="182"
     viewBox="0 0 182 182"
     width="182"
     xmlns="http://www.w3.org/2000/svg">
    <mask id="a"
          fill="#fff">
        <path d="m73.838548 7.990345c11.530386 5.901157 19.840989 10.546155 30.617272 16.531152 10.429993 5.195984 12.551644 11.569789 12.527487 24.682496.000357 11.88694.035819 21.074101 0 34.458764.043554 13.371563-2.616691 15.569481-13.216259 22.493224-9.907821 5.764917-18.66634 10.80488-29.9285 17.130084-9.881046 6.409568-18.219019 6.147306-27.234935 0-11.010951-5.974386-18.961579-10.547989-29.928381-17.130084-10.595641-6.469173-14.45612-11.410755-14.641879-24.083171.029988-12.089466-.098056-20.74909 0-32.868817-.037485-12.424433 4.211767-19.033776 14.641879-24.081861 11.195996-7.044263 18.91743-11.477696 29.928381-17.131787 12.113129-6.641307 15.189636-6.691218 27.234935 0z"
              fill="#fff"
              fill-rule="evenodd"/>
    </mask>
    <g fill="none"
       fill-rule="evenodd"
       transform="translate(0 26)">
        <path d="m-9.001736 130.606976c.678598 0 1.233764-.553024 1.233764-1.22752v-59.091456c0-.537088.604928-.538368.604928-.538368h53.352787c.411162 0 .625361.338368.625361.338368l6.392193 9.00576c.391702.551424.225736 1.269888-.367933 1.596416l-9.129659 5.019136c-.593947.326464-.703896 1.000064-.244362 1.496384l17.118545 29.499136c.459395.496576.900164.35424.978838-.316224l1.454913-23.379328c.078952-.670464.64218-1.4624 1.251834-1.7584l11.669328-5.678336c.609515-.29632.91323-1.056512.674706-1.68864l-5.330511-14.134272h51.321302v59.629824c0 .674496.555027 1.22752 1.233625 1.22752h2.158809"
              fill="none"
              mask="url(#a)"
              stroke="#e85181"
              stroke-width="2"
              transform="translate(32)"/>
        <g fill="#e85181">
            <path d="m34.615175 79.338644h4.841685c.338625 0 .79236.220896 1.008.491004l3.056805 3.822138c.215595.26982.481905.219654.59166-.111834l1.52928-4.620978c.109755-.331164.47196-.551754.80523-.489132l4.25583.794772c.33336.062316.651735-.169488.70767-.514998l.876285-5.410746c.05598-.34551.2709-.401274.47754-.124002l7.717905 10.359774c.206685.27729.4563.230238.55449-.104994l2.529945-8.629722c.09828-.335232.35901-.391608.579285-.125856l3.96036 4.781412c.220275.266382.67761.48384 1.016235.48384h5.26221c.338625 0 .61569.286308.61569.636822v.254538c0 .350496-.277065.637128-.61569.637128h-5.94225c-.338625 0-.795915-.217476-1.016235-.483858l-2.648835-3.197772c-.220185-.266076-.48087-.209376-.579195.125856l-2.580525 8.801712c-.09819.335214-.34776.382572-.554445.1053l-7.4016-9.935136c-.206685-.277596-.42147-.221508-.47745.124002l-.563715 3.480984c-.055845.34551-.374355.577008-.70758.514998l-4.479255-.836514c-.33336-.062316-.695565.15795-.80532.489762l-1.97235 5.960628c-.109755.331182-.3762.381654-.59193.111546l-4.295295-5.370876c-.215955-.270108-.66969-.491004-1.008315-.491004h-4.146435c-.338625 0-.61569-.286632-.61569-.636822v-.254844c.000225-.350496.27738-.637128.616005-.637128z"/>
            <path d="m147.384915 79.338644h-4.84164c-.338625 0-.79236.220896-1.008225.491004l-3.05658 3.822138c-.21573.26982-.482175.219654-.591885-.111834l-1.52919-4.620978c-.10962-.331164-.47196-.551754-.805185-.489132l-4.25583.794772c-.33336.062316-.651735-.169488-.707715-.514998l-.876285-5.410746c-.055935-.34551-.270765-.401274-.47754-.124002l-7.71777 10.359774c-.20682.27729-.4563.230238-.55449-.104994l-2.53017-8.629722c-.09819-.335232-.358875-.391608-.57906-.125856l-3.96045 4.781412c-.22032.266382-.677745.48384-1.016235.48384h-5.26212c-.33876 0-.615825.286308-.615825.636822v.254538c0 .350496.277065.637128.615825.637128h5.942115c.338625 0 .79605-.217476 1.016235-.483858l2.648835-3.197772c.22032-.266076.48087-.209376.57906.125856l2.58066 8.801712c.098325.335214.34767.382572.55449.1053l7.401465-9.935136c.206775-.277596.421695-.221508.47754.124002l.56376 3.480984c.055935.34551.37422.577008.70767.514998l4.47921-.836514c.33327-.062316.695475.15795.80523.489762l1.972395 5.960628c.109755.331182.376155.381654.591975.111546l4.29534-5.370876c.21582-.270108.6696-.491004 1.008225-.491004h4.14639c.338535 0 .6156-.286632.6156-.636822v-.254844c-.000135-.350496-.277155-.637128-.615825-.637128z"/>
            <path d="m117.673579 21.77012 3.397279 12.678984 10.428781 5.50044c.48557.25704.67142.858654.413472 1.343142-.134166.254232-.363499.425898-.62245.495342-.23482.06264-.49324.041472-.724107-.081l-3.98722-2.102976 5.473607 20.427606-15.399059 4.126248-15.399177 4.126194-15.399177 4.126194-5.473253-20.426688-2.401536 3.814668c-.294351.464832-.909308.605988-1.374287.314982-.466041-.291924-.605753-.905688-.313703-1.371114l20.751775-32.964894 12.013226 6.33609-1.008664-3.764178zm-19.927073 2.626992-15.918259 25.286958 5.436732 20.290824 13.474302-3.610602-2.312859-8.631252c-.416658-1.555254.512002-3.159486 2.071254-3.577284l9.745679-2.611116c1.559134-.417798 3.165586.506898 3.582362 2.062476l2.312741 8.630982 13.474125-3.610602-5.437086-20.291472-2.402539-1.266786-6.871494-3.624264zm14.154277 29.72565c-.133045-.496314-.645283-.79137-1.142889-.65799l-9.745797 2.61144c-.497488.133326-.793786.644922-.660682 1.141182l2.312623 8.630982 11.549368-3.094632zm4.362401-29.916594-5.774684 1.547478.971966 3.627072 7.207794 3.801276z"/>
        </g>
        <path d="m91.499954-23.99991c-48.8771584 0-88.499956 39.6227419-88.499956 88.499956 0 48.877214 39.6227976 88.499956 88.499956 88.499956 48.877277 0 88.499956-39.622679 88.499956-88.499956 0-48.8772773-39.622679-88.499956-88.499956-88.499956z"
              stroke="#e85181"
              stroke-width="2"/>
    </g>
</svg>