<svg height="182"
     viewBox="0 0 182 182"
     width="182"
     xmlns="http://www.w3.org/2000/svg">
    <mask id="a"
          fill="#fff">
        <path d="m73.838429 7.990345c11.530386 5.901157 19.840989 10.546155 30.617272 16.531152 10.429993 5.195984 12.551763 11.569789 12.527606 24.682496.000238 11.88694.035819 21.074101 0 34.458764.043435 13.371563-2.616691 15.569481-13.216378 22.493224-9.907702 5.764917-18.666459 10.80488-29.9285 17.130084-9.881046 6.409568-18.219019 6.147306-27.234935 0-11.010832-5.974386-18.96146-10.547989-29.9285-17.130084-10.595522-6.469173-14.456001-11.410755-14.64176-24.083171.030107-12.089466-.098056-20.74909 0-32.868817-.037485-12.424433 4.211886-19.033776 14.64176-24.081861 11.196115-7.044263 18.917668-11.477696 29.9285-17.131787 12.113248-6.641307 15.189755-6.691218 27.234935 0z"
              fill="#fff"
              fill-rule="evenodd"/>
    </mask>
    <g fill="none"
       fill-rule="evenodd"
       stroke="#e85181"
       stroke-width="2"
       transform="translate(0 26)">
        <path d="m66.8848486 76.7466472-.0095654-.0985957.0382886.1933985zm-36.9538003-39.160455 10.4623774-.6769515.6763359 12.5293813 11.6909537 4.7324497.6671084 9.6103775c.0912204.014801.2285115.0295809.4187878.0327048.4507845.0074009.9583699-.049183 1.9488438-.2000742.0596301-.0090928.0596301-.0090928.1194708-.0182377 2.8297644-.432517 3.6707778-.4353364 4.3870909.6494191l.2285583.3461195-.0835171.4062789c-.4213023 2.0494758.6169481 3.4524041 2.7909066 4.4414572.692597.3151004 1.4441079.5562438 2.196855.7305.4501234.1042007.7946359.1619574.9776735.1838786l.6486863.0776886 1.7664686 5.830342.0382886.1933985 5.2882745 54.5088325-98.1735907.037319 1.2103631-56.4502899 10.4666225-6.0308491-1.6919765-13.2755327 14.21435837-1.2859807.72451103-6.7291307 16.2350742-1.4411963.8893053-11.5104984 3.3408475-4.6303282 7.8386091 1.7491408zm59.2498009 53.6765872.066029-.0228114-.2267231-.6562634-.0518933.0166538zm-1.8836516 7.8405009-.3357598.1152724-.2483918-.0407119c-1.8976651-.3110314-3.3826807-.9406696-4.4485169-1.9120575l-.4487654-.4089984 1.5108084-5.6874843 6.2323542-2.1531278.1002089.3109449.9013088-.3105788 2.6910825 8.3853979-5.2899496 1.8166209-.248429-.040715c-.1409943-.0231075-.2796417-.0479591-.4159503-.0745624zm15.2628544-28.0876081 2.691672 8.3858959-5.290209 1.8170262-.2484571-.0407196c-1.8975504-.3109892-3.3825381-.940663-4.4484787-1.9120138l-.4488408-.4090114 1.5109749-5.6875042zm-28.7325215-19.6627325.0037985-.0013299c3.892138-1.3539275 7.2724674-.46809 9.9251032 2.6034939 1.5735697 1.8337527 3.0798276 5.0384677 4.5609382 9.6361921.2581131.7672224.2256751 1.5656486-.0718982 2.4150189-.2718287.7233927-.6870519 1.4347266-1.2420404 2.1214796-.6077326.727224-1.2694163 1.3369121-2.0090372 1.825395-.7654582.5360328-1.5939587.955174-2.4711226 1.258739l-7.5362449 2.6058559-.366069-.8564253c-.1886178-.441275-1.4092295-1.683639-3.5396284-3.4969343-3.5329412-3.3122161-3.3473775-3.1346048-3.5158745-3.5503686-.5872806-1.8406809-.2421175-4.2274853.9613672-7.1705045 1.2084052-3.0460706 2.6729382-5.3816983 4.427859-6.9971594l.1511529-.1391411zm-15.2857323 13.8467694-.0007885-.0012867c-.0821709-.1343234-.1331757-.2194008-.1615349-.2699232-.0145302-.025821-.0145302-.025821-.0414967-.0797158-.0205293-.039314-.0205293-.039314-.073443-.2128531-.0887127-.176056-.0887127-.176056.3436564-.9942132 1.0564965-.2280172 1.0564965-.2280172 1.2245275-.0310287.2482843.2463059.2482843.2463059.2512192.2648833.052359.0756775.1621961.2444953.2802787.4296263.1472333.2308339.2254869.3565434.2626946.4297306.0162924.0312606.0162924.0312606.0547477.1281356.0321801.0788685.0321801.0788685.0484796.4524364l-.0345391.1647073-.175167.3354387-.5475309.3497358-.3740571.0184555-.1622283-.036664-.0607207-.021318c-.4519422-.3134484-.4519422-.3134484-.4386367-.3313815-.039152-.0529878-.039152-.0529878-.0722146-.1009502-.0478128-.0695584-.1238359-.1829774-.2497593-.3740934zm7.0696341-19.3389519 2.692356 8.3789254-5.2648452 1.8265775-.2448396-.0374165c-1.8940963-.2894565-3.3833686-.9232721-4.4692664-1.9141605l-.4488042-.4095367 1.5122504-5.6658793zm20.9050934-8.2479518 2.7015143 8.3867064-5.2713479 1.8167026-.2476467-.0398741c-1.9158905-.3084813-3.3979971-.935671-4.4689665-1.9124011l-.4493712-.4098291 1.5212576-5.6853326zm-17.6085102-7.6951391.0547328-.0186407c1.7810348-.6065782 3.083859.4736378 3.7861692 2.6965619.5565588 1.6856168.6760427 3.4281131.3599831 5.2442153-.324639 1.9010571-1.0326966 3.2676738-2.1577917 3.9590051l-.1742809.0850224c-.3887697.1449014-1.8858846.8006662-3.958257 1.7434726l-.1731059.0787529-2.706186.1383726-.313073-.3064983-1.2229504-1.1984829c-.8292762-.8824583-1.3337794-1.6245116-1.5525785-2.3616783-.746757-2.327273-.9614768-4.6737534-.6348393-7.0058652.3553647-2.5186002 1.3384455-4.1579737 3.0326689-4.7437585l.3496238-.1208839.3441225.1357552c.0481426.0189934.0481426.0189934.0962482.0379755 1.3030403.5141801 1.8497035.7238836 2.5201235.9583299.8860189.2855782 1.5876021.492542 2.0819569.6155907.0990926.0246649.1884652.0455928.2674338.0627537zm-18.8451437 3.2357099 5.7044576 2.0089753.1807398.2347586c.4985624.6475711.8425836 1.2829307.9922993 1.8196215.5865818 1.7759939-.174086 3.1989081-2.0137214 3.8435753l-4.3595108 1.4988773-3.0075931-3.6137938-.0595772-.1781701c-.6318483-1.8895897.1530858-3.6768269 2.1291439-5.2651856zm-1.7565626-11.8499633c1.4427267-.4949871 2.8359809-.3992166 4.1885067.274362 1.284918.6621457 2.143564 1.5713563 2.5585766 2.7509502.4684497 1.4987307-.2156437 3.2123999-1.8873827 5.1892924l-.2506823.296441-7.1114415.9167831-.2352892-7.5940297.3490569-.310752c.8679138-.7726702 1.6189326-1.2652034 2.3886557-1.5230463z"
              mask="url(#a)"
              transform="translate(30)"/>
        <path d="m90.500046-23.99991c-48.8771584 0-88.499956 39.6227419-88.499956 88.499956 0 48.877214 39.6227976 88.499956 88.499956 88.499956 48.877158 0 88.499956-39.622742 88.499956-88.499956 0-48.8772141-39.622798-88.499956-88.499956-88.499956z"/>
    </g>
</svg>