<svg height="131"
     viewBox="0 0 130 131"
     width="130"
     xmlns="http://www.w3.org/2000/svg">
    <mask id="a"
          fill="#fff">
        <path d="m64.64289 1.42857c35.3067 0 63.92854 28.62171 63.92854 63.92854s-28.62184 63.92854-63.92854 63.92854-63.92854-28.62171-63.92854-63.92854 28.62184-63.92854 63.92854-63.92854z"
              fill="#fff"
              fill-rule="evenodd"/>
    </mask>
    <g fill="#fff"
       fill-rule="evenodd">
        <path d="m95.576792 44.46395-8.649806-8.0122v-13.12635h-9.963896v3.8972l-9.96402-9.22945-28.576606 26.4708c-.402504.37355-.426374 1.0026-.051832 1.40545.373674.4016 1.004338.42435 1.409012.0514l3.307018-3.0632v21.14765h15.942246 15.942308 15.942308v-21.1486l3.307142 3.0632c.191332.1779.435426.26575.678528.26575.268026 0 .534068-.10655.729306-.31745.374666-.4016.350796-1.03065-.051708-1.4042zm-6.663268 17.5413h-43.826862v-20.9882087l21.9124317-20.2977068 11.9639963 11.0819835v-6.475918h5.963896v11.9999513l3.986538 3.692677z"
              fill-rule="nonzero"
              mask="url(#a)"/>
        <path d="m1.999998 64.000245v-2.000175h124.000133v2.000175z"
              mask="url(#a)"/>
        <g fill-rule="nonzero">
            <path d="m60.1793387 101.148104-1.9269839 16.267652-5.921092 5.325703 1.3374744 1.486998 6.4811263-5.829424 1.9600902-16.547137 6.9491746-10.5781137-24.1791285-10.0289079 12.6186989-17.1522789-1.6110004-1.185191-14.1306079 19.2073786 24.3036638 10.080562z"
                  mask="url(#a)"/>
            <path d="m82.3891542 63.5962028-1.6056678-1.1924056-15.1116164 20.3489792 27.1894594 11.1721826.7601336-1.849918-24.8105406-10.194682z"
                  mask="url(#a)"
                  transform="matrix(-1 0 0 1 159.293332 0)"/>
            <path d="m10.3829562 80.7560622-.76591236 1.8475331 8.08722106 3.352634 25.7408505-3.2844429-.2531406-1.9839153-25.2131872 3.217115z"
                  mask="url(#a)"/>
            <path d="m93.6723096 80.7774355-.8618268 1.8047865 15.6483692 7.4724544 13.442924-3.7563651-.538243-1.9262125-12.720106 3.5543877z"
                  mask="url(#a)"/>
            <path d="m60.9488772 102.48065 40.8965358 8.164248.391538-1.9613-40.8965359-8.164248z"
                  mask="url(#a)"/>
            <path d="m59.3671845 116.921281-23.2011091-3.907394-.3321508 1.972226 23.2011092 3.907394z"
                  mask="url(#a)"/>
            <path d="m16.6378506 85.5949505 5.4459648 20.2469185 1.9313543-.519491-5.4459648-20.2469183z"
                  mask="url(#a)"/>
        </g>
        <path d="m59.481202 42.245725c-.142818-.314982.010192-.472014.340132-.349272l5.166668 1.921347c.329914.122769.68731-.03645.794222-.353916l.973076 1.920429c-.107224.317466-.464282.476658-.794222.353916l-3.324048-1.236249c-.32981-.122742-.483054.034263-.340002.349569l3.9717164 8.7459914c.191344-.0016069.3869993.067008.5299236.2021326l3.596554 3.397788c.25805.243648.519428.164214.580788-.176013l.869856-4.820364c.061334-.340821.358072-.748332.659412-.905688l4.307446-2.252205c.301314-.157653.68653-.031482.856232.280071l.123266.226503c.169468.311553.061672.695385-.239538.852741l-3.68888 1.928826c-.301314.157329-.598078.56484-.659412.905688l-1.222572 6.773787c-.06123.340524-.322712.419661-.580554.176337l-3.9557114-3.7371029c-.0530526.1068828-.1907614.1511877-.3885766.1040639l-8.964384-2.131947c-.34138-.081324-.5174.114642-.390936.435861l1.519076 3.859218c.126802.321219.09568.82188-.068432 1.113183l-2.879214 5.110722c-.164112.291303-.549536.387882-.85683.21465l-.223028-.125874c-.307164-.173205-1.00685-.189405-.842738-.480708l3.132818-4.889538c.163982-.291303.195-.791964.068302-1.113183l-2.271412-5.770278c-.12623-.320895.049556-.517158.390936-.435861l8.78917 2.090205c.34138.081324.503542-.109971.360724-.424953z"/>
        <path d="m65.35711.71435c35.3067 0 63.92854 28.62171 63.92854 63.92854s-28.62184 63.92854-63.92854 63.92854-63.92854-28.62171-63.92854-63.92854 28.62184-63.92854 63.92854-63.92854zm0 4c-33.0976072 0-59.92854 26.8308952-59.92854 59.92854s26.8309328 59.92854 59.92854 59.92854 59.92854-26.8308952 59.92854-59.92854c0-33.0976448-26.8309328-59.92854-59.92854-59.92854z"
              fill-rule="nonzero"/>
    </g>
</svg>