<svg height="131"
     viewBox="0 0 130 131"
     width="130"
     xmlns="http://www.w3.org/2000/svg">
    <mask id="a"
          fill="#fff">
        <path d="m64.64289 1.42857c35.3067 0 63.92854 28.62171 63.92854 63.92854s-28.62184 63.92854-63.92854 63.92854-63.92854-28.62171-63.92854-63.92854 28.62184-63.92854 63.92854-63.92854z"
              fill="#fff"
              fill-rule="evenodd"/>
    </mask>
    <g fill="#fff"
       fill-rule="nonzero">
        <g mask="url(#a)">
            <g transform="translate(22 14)">
                <path d="m53.0965064 5.22603917c-.218873 0-.4360568.01501231-.6503693.04459891-1.0059242-1.42387801-2.5753373-2.36520995-4.3329326-2.53374268-.9517937-1.65918376-2.7117249-2.7368954-4.6811793-2.7368954-1.9753315 0-3.73959 1.08420512-4.6893685 2.75243398-1.6997665.20481928-3.2113701 1.13346474-4.1895504 2.51850627-.2142274-.02949953-.431268-.04443843-.6500012-.04443843-2.0928099 0-3.8885736 1.35956417-4.5510874 3.28108945-2.1363258.86991814-3.5282497 3.07672753-3.333897 5.50340933.2144009 2.6761292 2.357059 4.8251835 5.0095743 4.9796055 1.1877631.0696329 2.3296597-.2612389 3.2766399-.9069816.9610539.5916555 2.0733435.9163755 3.2340168.9163755 1.1094931 0 2.1754634-.2966774 3.108749-.8416117.8395344.5418813 1.8231679.8416117 2.852705.8416117 1.0295115 0 2.0130424-.2997464 2.8526224-.8414804.9325095.5445648 1.9990443.8414804 3.1092928.8414804 1.1603301 0 2.2720551-.3245133 3.2334989-.9163531.9470705.6458456 2.089091.9765796 3.2779187.9069147 2.6514312-.154402 4.7944235-2.3035705 5.0088093-4.979509.1937148-2.426622-1.1977536-4.6332392-3.3342806-5.50337307-.6623302-1.92113686-2.4582476-3.28164036-4.5511608-3.28164036zm3.3004942 4.97659433c1.5773945.365425 2.7324291 1.8812446 2.5913351 3.6486987-.135561 1.6920563-1.4879428 3.0469039-3.1321958 3.1426545-1.0577442.0619834-2.0154315-.383465-2.6664929-1.1221784-.2185575-.2479339-.5975748-.2618107-.8368814-.0346923-.7608013.7215986-1.775664 1.162884-2.8910447 1.162884-1.0618941 0-2.032492-.3996546-2.7794606-1.0606574-.23654-.2086161-.5920416-.1873382-.810138.040243-.6049523.6295485-1.4441391 1.0204144-2.3723166 1.0204144-.9277164 0-1.7669032-.3904034-2.3718554-1.0204144-.2185576-.2275812-.5740591-.2488591-.8101381-.040243-.7474296.6610028-1.7180275 1.0606574-2.7794605 1.0606574-1.1153807 0-2.1307045-.4412854-2.8910447-1.162884-.2397677-.2271184-.618785-.2132416-.8373425.0346923-.6506004.7382509-1.6087488 1.1841618-2.6660319 1.1221784-1.644714-.0957506-2.9966347-1.4505982-3.1321956-3.1426545-.1415552-1.7674541 1.0134794-3.2828112 2.5908739-3.6486987.2623612-.0610583.4716968-.26551123.5136562-.53287283.216252-1.38537686 1.3814306-2.44325885 2.786838-2.44325885.3661067 0 .7156142.07169733 1.036534.20260263.3292194.13460592.7086979-.00092507.8571693-.32564451.6464506-1.41451826 2.0412528-2.39376467 3.6592234-2.39376467.0539478 0 .1078955.00092518.1613822.00323797.2692775.01110152.5122728-.15033302.6035689-.40474273.4813797-1.34744674 1.7369323-2.30819051 3.2110423-2.30819051 1.4759544 0 2.7333514.96305656 3.2133478 2.31281608.0908351.2553349.3342915.4283336.6040301.4079807.0972904-.00740101.1950418-.01110151.2941765-.01110151 1.6175095 0 3.0127729.97924641 3.6592234 2.39376467.1480104.32425691.5274889.4597879.8571694.32564451.3209197-.1309053.6704273-.20306528 1.036534-.20306528 1.4049463 0 2.570125 1.05834464 2.786838 2.4437215.0419594.26689907.2508338.47181453.5136562.53287283z"/>
                <path d="m37.4362665 21.8312382 2.5 3.5c.321009.4494126.9455591.5535043 1.3949717.2324953s.5535043-.9455591.2324953-1.3949717l-2.5-3.5c-.321009-.4494126-.9455591-.5535043-1.3949717-.2324953s-.5535043.9455591-.2324953 1.3949717z"/>
                <path d="m48.1425071 21.4855042-2.25 3.75c-.2841482.4735803-.1305831 1.0878406.3429971 1.3719887.4735803.2841482 1.0878406.1305831 1.3719887-.3429971l2.25-3.75c.2841482-.4735803.1305831-1.0878406-.3429971-1.3719887-.4735803-.2841482-1.0878406-.1305831-1.3719887.3429971z"/>
                <path d="m43 23.1875v4.625c0 .5522847.4477153 1 1 1s1-.4477153 1-1v-4.625c0-.5522847-.4477153-1-1-1s-1 .4477153-1 1z"/>
                <path d="m74.5002007 64.7138866c-5.727312-6.6607569-9.8773387-13.4351863-12.7143745-20.249626-1.5829012-3.8020616-2.6634139-7.3913677-3.4088054-10.9361584-.4053772-1.9278159-1.0565948-6.1244302-1.0733698-6.2049378l.0003986.0019178c-.2811169-1.3557971-1.4757258-2.3250822-2.8585419-2.3250822h-.0729338c-.0789894 0-.1478958.0022195-.2331552.0064002l-.0396011.0020065c-.0140408.0008615-.0544472.0032503-.1331258.0079018-.0302002.0002877-.1326316.0084516-.2407982.0192649-.076705.0072435-.076705.0072435-.1738401.0183552-.0543821.0063908-.0543821.0063908-.0948947.0120746-2.8456397.3600312-5.2329098 2.3126317-6.1935258 4.9771416-.5570113.3435344-1.2008359.5298134-1.8761273.5298134h-3.8479456c-.2221122 0-.4410667-.0202889-.6552615-.0600973-.9310534-3.2270337-3.8980602-5.5121857-7.3343921-5.5121857h-.9954146c-1.382457 0-2.5773506.9682519-2.8585417 2.324407-.0167979.080549-.6680041 4.2758967-1.0732519 6.2030003-.7454623 3.5449494-1.825941 7.1341842-3.4087841 10.936193-4.3827226 10.5273542-11.8988738 20.9590616-23.52305984 31.0237266-1.40001642 1.2121878-.54273049 3.5119979 1.30914564 3.5119979h65.31997m1.0426422-2c-14.7838388 0-36.7949345 0-66.3626122 0 26.8336472-23.2335984 27.7757119-45.0555608 28.6542969-49.2688657.0884663-.4266637.4646168-.7304591.900195-.7304591h.9954146c2.7822984 0 5.147252 2.0293533 5.5693241 4.7783643l.0398436.260589c.7225872.340926 1.5289135.5333297 2.3804859.5333297h3.8479456c1.3681886 0 2.6215735-.4928238 3.5926766-1.3096958.5551091-2.2204069 2.429784-3.9223363 4.7501668-4.2160052.0195841-.0027005.0391682-.0054009.0587525-.0074262.045246-.0054008.0904921-.0101266.1357383-.0141771.0742846-.0074261.1478939-.013502.2228539-.0175527.0074285-.000675.014857-.000675.0222854-.000675.0675316-.0033755.1343877-.0074262.2025947-.0074262h.0729338c.4355784 0 .8117289.3044706.9001953.7311343.7356391 3.5305133 2.2717253 19.9184953 18.293498 38.6471301"/>
                <path d="m58.273096 57.6622242c-.2248638-1.0236415-.6319283-1.9974969-1.2014815-2.8747446l-5.4174446-8.3359923c-.4779336-.7347395-.7398629-1.5896821-.7559718-2.4674045l-.1980411-10.5373993c-.0060316-.3267917.0309871-.6497727.1092604-.9656736.4665036-1.8827505-1.7511474-3.2606175-3.2324637-2.0083886-.6431019.5436454-1.4481486.8446132-2.3043672.8446132h-3.8503313c-.5340754 0-1.0499712-.1180674-1.5255176-.3435484l-.7198304 1.5181444-.1769072.0269154-1.9770842.3018912 1.9268554 12.6189702c.2387733 1.5645157.9000047 3.0341335 1.9119808 4.2484884l7.3458119 8.8152522c.4414061.5299576.7610661 1.1534517.9343587 1.8231993l1.9951949 7.7061249c.7369662 2.8472433 1.8196279 5.5928381 3.2237821 8.1754643l1.49278 2.7468532c.350002.6440361 1.0242727 1.0450104 1.7572692 1.0450104h12.3890512v-4c-4.501999 0-8.4003628-3.1486069-9.3695524-7.5732177zm11.726904 20.3377758h-12.3890512l-1.492958-2.7471806c-1.3260226-2.4389207-2.3485873-5.0319715-3.0447154-7.7214385l-1.9951165-7.7058215c-.2473619-.9560135-.7035623-1.8454861-1.3341326-2.6025565l-7.3458402-8.8152861c-.778582-.9342859-1.2874989-2.0654779-1.4713307-3.2700006l-1.9268554-12.6189703.0398753.262089c.7231621.3428884 1.53013.5363996 2.3823799.5363996h3.8503313c1.369953 0 2.6236593-.4956605 3.595535-1.3172345-.1175982.4746118-.1770732.9716302-.1676114 1.4842651l.1980247 10.5365178c.0229791 1.2520517.3967255 2.472191 1.0786605 3.5205467l5.4169574 8.3352424c.4386282.6755919.7522238 1.4258723.925242 2.213497l2.3573733 10.7646574c1.1699007 5.3409103 5.8799163 9.1452736 11.323232 9.1452736z"/>
            </g>
        </g>
        <g mask="url(#a)">
            <path d="m2.20428684 17.3345331c0 .9175496.74543797 1.6654669 1.66326089 1.6654669h4.53229575c.91782292 0 1.66326092-.7479173 1.66326092-1.6654669v-3.5473702h.763574v3.5473702c0 .9175496.745438 1.6654669 1.6632609 1.6654669h4.3111958c.9178229 0 1.6632609-.7479173 1.6632609-1.6654669v-5.2110375h.8792522c.672077 0 1.2810939-.4126553 1.5339555-1.032784.2512007-.6160556.1102246-1.33115692-.3613199-1.80436801l-8.6396748-8.7903521c-.6469793-.64916568-1.7017392-.66649426-2.3500365-.01604067l-9.02078825 8.78476209c-.48684781.46123406-.63492691 1.18052589-.38875389 1.81175949.24947241.6395956.86255033 1.0470232 1.53963473 1.0470232h.54762175zm.28618214-7.2110375 8.19783792-7.98336738 7.8465219 7.98336738h-1.0704328c-.5522848 0-1 .4477153-1 1v5.8765044h-3.6377176v-4.2128371c0-.5522848-.4477152-1-1-1h-2.76357403c-.55228475 0-1 .4477152-1 1v4.2128371h-3.85881753v-5.8765044c0-.5522847-.44771525-1-1-1z"
                  transform="translate(89 76)"/>
        </g>
        <path d="m65.35711.71435c35.30683 0 63.92854 28.62171 63.92854 63.92854s-28.62171 63.92854-63.92854 63.92854c-35.3067 0-63.92854-28.62171-63.92854-63.92854s28.62184-63.92854 63.92854-63.92854zm0 4c-33.0976072 0-59.92854 26.8308952-59.92854 59.92854s26.8309328 59.92854 59.92854 59.92854c33.097691 0 59.92854-26.830849 59.92854-59.92854 0-33.097691-26.830849-59.92854-59.92854-59.92854z"/>
    </g>
</svg>