<svg height="55"
     viewBox="0 0 159 55"
     width="159"
     xmlns="http://www.w3.org/2000/svg">
    <g fill="none">
        <path d="m15.43375.5006241c-8.24875 0-14.935 6.68875-14.935 14.935 0 8.25 6.68625 14.93625 14.935 14.93625 8.25125 0 14.93875-6.68625 14.93875-14.93625 0-8.24625-6.6875-14.935-14.93875-14.935zm0 10.4175c-1.47625 0-2.67375 1.0825-2.67375 2.41875 0 .4225.11875.8175.32875 1.1625-1.4275-.40375-2.28-1.08125-2.34375-2.15125-.11375-1.98375 1.80625-4.03875 4.68875-4.03875 2.885 0 4.80375 2.055 4.68625 4.03875-.06125 1.07-.91125 1.7475-2.34125 2.15125.21-.345.32875-.74.32875-1.1625 0-1.33625-1.19875-2.41875-2.67375-2.41875zm6.63625.8c.0175-.19125.03-.385.03-.5825 0-3.1725-2.98625-5.74375-6.66625-5.74375-3.6825 0-6.66375 2.57125-6.66375 5.74375 0 .1975.00875.39125.0325.5825-.64125-.895-1.00875-1.9275-1.00875-3.02875 0-3.375 3.41875-6.10625 7.64-6.10625s7.6425 2.73125 7.6425 6.10625c0 1.10125-.3675 2.13375-1.00625 3.02875z"
              fill="#ae6117"/>
        <g fill="#005b7f">
            <path d="m34.755 15.4481241h4.2775v10.5325h.08375c.9225-1.3875 2.2675-2.1825 3.94375-2.1825 2.055 0 3.105.795 3.815 1.92875.54625.88.67125 2.09625.67125 5.1575v8.0975c0 2.35-.21 3.64875-.70875 4.5725-.75875 1.38625-2.02 2.0125-3.7375 2.0125-2.13625 0-2.975-.965-4.0675-2.18v1.93125h-4.2775zm8.51375 15.14625c0-1.345-.46125-2.52-2.09875-2.52-1.215 0-2.1375.96875-2.1375 2.30875v8.26625c0 1.55125.84 2.6375 2.1375 2.6375 1.47 0 2.09875-1.17125 2.09875-2.895z"/>
            <path d="m51.06875 24.0481241h4.2825v2.26875c1.76-1.55625 3.18375-2.51875 5.66-2.51875v4.53125c-.4175-.17125-.83625-.255-1.3-.255-1.80375 0-4.36 1.13125-4.36 4.61625v12.6275h-4.2825z"/>
            <path d="m67.01125 47.7918741c.04375 1.00625.7975 2.09625 2.265 2.09625 1.38375 0 1.96875-.96625 1.96875-2.30875v-4.1925h-.08125c-.9225 1.38375-2.265 2.18-3.98375 2.18-1.72 0-2.98-.62625-3.73375-2.0125-.505-.92375-.71625-2.2225-.71625-4.5725v-8.0975c0-3.06125.1275-4.2775.6725-5.1575.715-1.13375 1.7625-1.92875 3.8175-1.92875 2.1 0 2.9375.9625 4.025 2.1825v-1.9325h4.28v23.87c0 2.895-1.89 6.25125-6.4175 6.25125-2.6 0-5.83-1.5125-6.3775-6.3775zm0-9.01875c0 1.3425.46125 2.51375 2.09625 2.51375 1.21625 0 2.1375-.95875 2.1375-2.305v-8.2625c0-1.55125-.835-2.645-2.1375-2.645-1.46875 0-2.09625 1.175-2.09625 2.89625z"/>
            <path d="m79.0475 24.0481241h4.28v2.0575h.08125c.88375-1.345 2.05875-2.3075 4.03-2.3075 1.84625 0 3.0625 1.09 3.8125 2.14 1.055-1.1775 2.18375-2.14 4.45125-2.14 2.13875 0 4.65375 1.3825 4.65375 5.20125v16.31875h-4.28v-14.72375c0-1.55125-.75125-2.52-2.09625-2.52-1.5925 0-2.1375 1.0525-2.1375 2.94v14.30375h-4.27875v-14.72375c0-1.55125-.755-2.52-2.09625-2.52-1.5925 0-2.14 1.0525-2.14 2.94v14.30375h-4.28z"/>
            <path d="m47.71 13.9606241v-3.63125c0-1.0575.7925-1.60625 1.57875-1.60625.7825 0 1.58.54875 1.58 1.60625v.2725c-.11625 0-.7225 0-.83875 0 0-.0925 0-.2725 0-.2725 0-.46875-.2925-.77-.74125-.77-.45 0-.74.30125-.74.77v3.63125c0 .46875.29.77.74.77.44875 0 .74125-.30125.74125-.77v-1.36875s-.66375 0-.785 0c0-.11125 0-.61 0-.72h1.62375v2.08875c0 1.0575-.7975 1.60625-1.58 1.60625-.78625 0-1.57875-.54875-1.57875-1.60625"/>
            <path d="m54.39625 8.7493741c-.19.2-1.10125 1.175-1.14125 1.215-.04375 0-.31625 0-.47 0 .11625-.185.73625-1.15625.77625-1.215z"/>
            <path d="m52.0575 14.9018741c-.11625-.21625-.17375-.53-.17375-.95875v-1.61625c0-.42875.0575-.74375.17375-.95875.23375-.42375.6775-.665 1.22-.665.82125 0 1.3975.595 1.3975 1.45125v1.28c-.13625 0-1.95375 0-1.95375 0v.7375c0 .345.21375.55875.55625.55875.2175 0 .475-.0975.54-.4925h.84375c-.015.35375-.14.6875-.3625.91875-.26375.2725-.60625.41-1.02125.41-.5425 0-.98625-.24125-1.22-.665zm.66375-2.7275v.6325h1.11625v-.6325c0-.3975-.21125-.6375-.56-.6375-.3475 0-.55625.24-.55625.6375z"/>
            <path d="m55.7775 14.9018741c-.11625-.2175-.17375-.53875-.17375-.95875v-1.61625c0-.425.0575-.73875.17375-.95875.23125-.42375.6775-.665 1.22375-.665.54375 0 .98875.24125 1.22.665.11625.215.17375.5325.17375.95875v1.61625c0 .42875-.0575.74125-.17375.95875-.23125.42375-.67625.665-1.22.665-.54625 0-.9925-.24125-1.22375-.665zm.66625-2.7275v1.92125c0 .3975.20875.635.5575.635.345 0 .55375-.2375.55375-.635v-1.92125c0-.3975-.20875-.6375-.55375-.6375-.34875 0-.5575.24-.5575.6375z"/>
            <path d="m61.20125 14.1831241c0-.3225-.16375-.5225-.54375-.66625-.00125-.00125-.47375-.175-.47375-.175-.60875-.22875-.9475-.68625-.9475-1.28375 0-.76.60375-1.355 1.375-1.355.73 0 1.26.5375 1.30375 1.2825-.1325 0-.68625 0-.7775 0-.0425-.29875-.26-.505-.5625-.505-.3625 0-.55625.29375-.55625.56625 0 .2025.0525.41125.46125.57375l.58.22875c.6175.2375.91875.6675.91875 1.31375 0 .78875-.61375 1.40375-1.395 1.40375-.78875 0-1.315-.5225-1.38-1.32875h.78375c.08875.44375.3625.54875.5875.54875.3075 0 .62625-.22625.62625-.60375"/>
            <path d="m63.04625 14.9018741c-.11875-.2175-.17625-.53-.17625-.95875v-1.61625c0-.42625.0575-.74375.17625-.95875.23125-.42375.675-.665 1.22-.665.80875 0 1.34875.56875 1.3825 1.41625-.1325 0-.74125 0-.84 0-.0325-.49125-.345-.5825-.5425-.5825-.34875 0-.5575.24-.5575.6375v1.9975c0 .345.2125.55875.5575.55875.215 0 .4725-.0975.53875-.4925h.84125c-.01375.35125-.13875.685-.36.91875-.26125.2725-.60625.41-1.02.41-.545 0-.98875-.24125-1.22-.665"/>
            <path d="m67.3225 8.7781241v.83875c-.11625 0-.7225 0-.8375 0 0-.11375 0-.7225 0-.83875z"/>
            <path d="m67.3225 10.7581241v4.7525c-.11625 0-.7225 0-.8375 0 0-.13875 0-4.61 0-4.7525z"/>
            <path d="m68.465 14.9018741c-.11625-.2175-.17375-.53-.17375-.95875v-1.61625c0-.42625.0575-.74375.17375-.95875.23125-.42375.6775-.665 1.2225-.665.82125 0 1.395.595 1.395 1.45125v1.28c-.13375 0-1.95125 0-1.95125 0v.7375c0 .345.2125.55875.55625.55875.2175 0 .4725-.0975.5375-.4925h.84375c-.0175.35375-.1375.6875-.3625.91875-.26375.2725-.60875.41-1.01875.41-.545 0-.99125-.24125-1.2225-.665zm.66625-2.7275v.6325h1.11125v-.6325c0-.3975-.20875-.6375-.555-.6375-.3475 0-.55625.24-.55625.6375z"/>
            <path d="m79.61875 14.9018741c-.12125-.2175-.17625-.53-.17625-.95875v-1.61625c0-.42625.055-.74375.17625-.95875.22625-.42375.6725-.665 1.2175-.665.82125 0 1.3975.595 1.3975 1.45125v1.28c-.13625 0-1.95125 0-1.95125 0v.7375c0 .345.21125.55875.55375.55875.2175 0 .4725-.0975.54-.4925h.84375c-.02.35375-.14.6875-.3625.91875-.265.2725-.60625.41-1.02125.41-.545 0-.99125-.24125-1.2175-.665zm.66375-2.7275v.6325h1.11125v-.6325c0-.3975-.20875-.6375-.5575-.6375-.3475 0-.55375.24-.55375.6375z"/>
            <path d="m73.04 11.1993741c.22875-.345.49625-.49625.87-.49625.455 0 .94125.29375.94125 1.12375v3.68375c-.1175 0-.72375 0-.84 0 0-.13875 0-3.31625 0-3.31625 0-.40375-.2125-.6575-.55625-.6575-.505 0-.56375.43125-.56375.75375v3.22c-.1175 0-.72625 0-.8425 0 0-.13875 0-4.61 0-4.7525h.8425v.645z"/>
            <path d="m76.09 14.9018741c-.11625-.2175-.17625-.53875-.17625-.95875v-1.61625c0-.425.0575-.73875.17625-.95875.23-.42375.67625-.665 1.22125-.665.80875 0 1.35125.56875 1.3825 1.41625-.1325 0-.73625 0-.835 0-.02625-.36625-.2175-.5825-.5475-.5825-.34625 0-.555.24-.555.6375v1.9975c0 .345.2125.55875.555.55875.30625 0 .49-.17875.54125-.4925h.84125c-.0175.35375-.14125.6875-.365.91875-.26125.2725-.60375.41-1.0175.41-.545 0-.99125-.24125-1.22125-.665"/>
            <path d="m85.0375 14.1831241c0-.3225-.16125-.5225-.53875-.66625 0-.00125-.47875-.175-.47875-.175-.60875-.22875-.945-.68625-.945-1.28375 0-.76.60625-1.355 1.3775-1.355.7275 0 1.25875.5375 1.30375 1.2825-.135 0-.69 0-.7825 0-.0375-.29875-.2575-.505-.56-.505-.36125 0-.55875.29375-.55875.56625 0 .2025.05875.41125.46375.57375l.58.22875c.62125.2375.91875.6675.91875 1.31375 0 .78875-.61375 1.40375-1.39375 1.40375-.78625 0-1.31375-.5225-1.38125-1.32875h.78625c.0875.44375.3625.54875.585.54875.3075 0 .62375-.22625.62375-.60375"/>
            <path d="m99.21 10.7581241v4.7525c-.1175 0-.72375 0-.8375 0 0-.10625 0-.64625 0-.64625l-.15625.20625c-.22625.3425-.4925.49625-.865.49625-.4575 0-.94125-.29625-.94125-1.125 0 0 0-3.54125 0-3.68375h.84v3.32c0 .40125.2125.6525.55375.6525.5075 0 .56875-.42875.56875-.75 0 0 0-3.08 0-3.2225z"/>
            <path d="m94.04375 15.5668741c.5475 0 .99125-.24125 1.22-.665.11625-.2175.1775-.53875.1775-.95875v-1.61625c0-.425-.0575-.73875-.1775-.95875-.22875-.42375-.6725-.665-1.22-.665-.5425 0-.98875.24125-1.22.665-.11625.215-.1775.5325-.1775.95875v1.61625c0 .42875.06125.74125.1775.95875.23125.42375.6775.665 1.22.665zm0-4.03c.35 0 .5575.24.5575.6375v1.92125c0 .3975-.2075.635-.5575.635-.3475 0-.55625-.2375-.55625-.635v-1.92125c0-.3975.20875-.6375.55625-.6375z"/>
            <path d="m89.85375 11.1731241c.24625-.2725.42-.47.87625-.47.37875 0 .6375.135.79625.42375.11125.2025.155.49625.155 1.0175v1.865c0 .72125-.0325.96875-.1425 1.15125-.18.28625-.42625.40625-.8175.40625-.3475 0-.64125-.16-.8475-.4675l-.13625-.2-.0175.24125v2.34875c-.1175 0-.72125 0-.8375 0 0-.1425 0-6.58875 0-6.73125h.8375v.56625zm-.13375 1.0475v1.9025c0 .3475.24375.6075.56625.6075.35875 0 .55625-.23375.55625-.6525v-1.7975c0-.47125-.2025-.74375-.55625-.74375-.33375 0-.56625.28125-.56625.68375z"/>
            <path d="m101.225 11.2631241c.39875-.35375.705-.53625 1.18125-.55375v.8725c-.09375-.0175-.22625-.045-.22625-.045-.51875 0-1.07625.35875-1.07625 1.13875v2.835c-.11625 0-.7225 0-.84 0 0-.13875 0-4.61 0-4.7525h.84v.6125z"/>
            <path d="m107.79 10.7581241v4.7525c-.11625 0-.7225 0-.84 0 0-.10625 0-.64375 0-.64375l-.15375.20375c-.2275.3425-.49375.49625-.865.49625-.4575 0-.945-.29625-.945-1.125 0 0 0-3.54125 0-3.68375h.83875v3.32c0 .40125.21625.6525.55875.6525.5075 0 .56625-.42875.56625-.75 0 0 0-3.08 0-3.2225z"/>
            <path d="m109.8375 11.1993741c.22375-.345.495-.49625.86875-.49625.45375 0 .94.29375.94 1.12375v3.68375c-.11875 0-.725 0-.84125 0 0-.13875 0-3.31625 0-3.31625 0-.40375-.21375-.6575-.55875-.6575-.505 0-.5625.43125-.5625.75375v3.22c-.11625 0-.7225 0-.83875 0 0-.13875 0-4.61 0-4.7525h.83875v.6475z"/>
            <path d="m120.80625 8.7781241v.78125c-.13 0-1.14 0-1.14 0v5.95125c-.11625 0-.725 0-.84125 0 0-.14375 0-5.95125 0-5.95125s-1.01125 0-1.13875 0c0-.11375 0-.6675 0-.78125z"/>
            <path d="m125.41125 11.2631241c.405-.35375.70875-.53625 1.185-.55375v.8725c-.09625-.0175-.22625-.045-.22625-.045-.51875 0-1.07875.35875-1.07875 1.13875v2.835c-.11625 0-.7225 0-.84 0 0-.13875 0-4.61 0-4.7525h.84v.6125z"/>
            <path d="m128.10125 11.2631241c.4-.35375.70375-.53625 1.1825-.55375v.8725c-.09875-.0175-.23125-.045-.23125-.045-.51625 0-1.07375.35875-1.07375 1.13875v2.835c-.11625 0-.72375 0-.8375 0 0-.13875 0-4.61 0-4.7525h.8375v.6125z"/>
            <path d="m142.24125 10.7581241v4.7525c-.1175 0-.725 0-.8425 0 0-.10625 0-.64375 0-.64375l-.15125.20375c-.22625.3425-.49375.49625-.87.49625-.45 0-.93625-.29625-.93625-1.125 0 0 0-3.54125 0-3.68375h.8375v3.32c0 .40125.2125.6525.5575.6525.50375 0 .5625-.42875.5625-.75 0 0 0-3.08 0-3.2225z"/>
            <path d="m138.385 8.7781241v6.7325c-.11625 0-.72375 0-.84 0 0-.10375 0-.56125 0-.56125l-.13375.15c-.24625.2725-.4225.4675-.87875.4675-.3775 0-.6375-.1375-.79375-.42375-.11-.20375-.1575-.49625-.1575-1.02v-1.8625c0-.71.035-.96875.14625-1.15125.17875-.28625.425-.40625.8175-.40625.35 0 .64375.1625.84625.47l.13625.20125.0175-.24375s0-2.215 0-2.3525zm-1.9625 3.41625v1.7925c0 .4725.2025.74375.5575.74375.33875 0 .565-.2725.565-.68125v-1.905c0-.345-.24375-.6075-.565-.6075-.25375 0-.5575.115-.5575.6575z"/>
            <path d="m144.25625 11.2631241c.40125-.35375.7075-.53625 1.18125-.55375v.8725c-.09625-.0175-.22625-.045-.22625-.045-.51875 0-1.07625.35875-1.07625 1.13875v2.835c-.11625 0-.725 0-.84125 0 0-.13875 0-4.61 0-4.7525h.84125v.6125z"/>
            <path d="m146.205 11.0931241c.255-.25625.61-.39 1.01875-.39.68 0 1.40625.38375 1.40625 1.47125v3.33625c-.11625 0-.72625 0-.84125 0-.0025-.10625-.0125-.64875-.0125-.64875l-.13.17625c-.26375.36-.46375.52875-.89625.52875-.45125 0-.98875-.2125-.98875-1.23 0-1.03.2375-1.58875 1.485-1.58875l.23.01375.315.02125-.0025-.07875v-.51c0-.42375-.2-.6575-.565-.6575-.29375 0-.53125.205-.6125.495-.08125 0-.675 0-.81125 0 .0375-.3775.17125-.705.405-.93875zm.3925 3.0525c0 .42375.23125.70125.585.70125.37625 0 .60625-.26875.60625-.70125v-.73125l-.3425-.04c-.545 0-.84875.275-.84875.77125z"/>
            <path d="m150.43625 8.7781241v2.59625l.15375-.20125c.205-.3075.4975-.47.84625-.47.39375 0 .64.12.8175.4075.1125.18125.1425.42625.1425 1.15v1.8625c0 .52375-.04625.8175-.155 1.02-.155.28625-.41375.42375-.79625.42375-.455 0-.63-.195-.8725-.4675l-.1275-.1425-.00875.18375v.37c-.11625 0-.725 0-.84125 0 0-.14375 0-6.59 0-6.7325zm0 3.36625v1.905c0 .40875.22875.68125.5675.68125.35125 0 .55375-.27125.55375-.74375v-1.7925c0-.5425-.30375-.6575-.55375-.6575-.325 0-.5675.2625-.5675.6075z"/>
            <path d="m154.1125 8.8481241v5.425c0 .37625.13.52125.48625.57125v.79125c-.8375-.01375-1.32375-.2425-1.32375-1.295 0 0 0-5.35 0-5.4925z"/>
            <path d="m155.3875 14.9018741c-.1175-.2175-.17625-.53875-.17625-.95875v-1.61625c0-.425.0575-.73875.17625-.95875.23-.42375.67375-.665 1.21875-.665.8225 0 1.395.595 1.395 1.45125v1.28c-.135 0-1.9525 0-1.9525 0v.7375c0 .345.2125.55875.5575.55875.30625 0 .49-.17875.54125-.4925h.84125c-.015.35375-.13875.6875-.3625.91875-.26375.2725-.605.41-1.02.41-.545 0-.98875-.24125-1.21875-.665zm.66125-2.7275v.6325h1.11375v-.6325c0-.3975-.20875-.6375-.55625-.6375-.34875 0-.5575.24-.5575.6375z"/>
            <path d="m130.00875 14.9018741c-.11625-.2175-.17375-.53875-.17375-.95875v-1.61625c0-.425.0575-.73875.17375-.95875.23-.42375.67625-.665 1.22375-.665.82125 0 1.3925.595 1.3925 1.45125v1.28c-.13125 0-1.94875 0-1.94875 0v.7375c0 .345.21375.55875.55625.55875.30375 0 .4875-.17875.53875-.4925h.84375c-.0175.35375-.14375.6875-.3625.91875-.26625.2725-.6075.41-1.02.41-.5475 0-.99375-.24125-1.22375-.665zm.6675-2.7275v.6325h1.1125v-.6325c0-.3975-.20875-.6375-.55625-.6375-.34875 0-.55625.24-.55625.6375z"/>
            <path d="m120.8675 14.9018741c-.11625-.2175-.1725-.53875-.1725-.95875v-1.61625c0-.425.05375-.73875.1725-.95875.23125-.42375.675-.665 1.2225-.665.82125 0 1.395.595 1.395 1.45125v1.28c-.13625 0-1.95375 0-1.95375 0v.7375c0 .345.21375.55875.55875.55875.305 0 .49125-.17875.54-.4925h.84125c-.0175.35375-.1375.6875-.36375.91875-.2625.2725-.6075.41-1.0175.41-.5475 0-.99125-.24125-1.2225-.665zm.66375-2.7275v.6325h1.11375v-.6325c0-.3975-.20875-.6375-.555-.6375-.3475 0-.55875.24-.55875.6375z"/>
            <path d="m112.78625 14.9018741c-.11875-.2175-.175-.53875-.175-.95875v-1.61625c0-.425.05625-.73875.175-.95875.23125-.42375.6775-.665 1.2225-.665.82375 0 1.395.595 1.395 1.45125v1.28c-.13625 0-1.95375 0-1.95375 0v.7375c0 .345.21375.55875.55875.55875.3025 0 .4875-.17875.5375-.4925h.84625c-.02.35375-.145.6875-.365.91875-.26375.2725-.60625.41-1.01875.41-.545 0-.99125-.24125-1.2225-.665zm.66375-2.7275v.6325h1.11375v-.6325c0-.3975-.20875-.6375-.555-.6375-.35 0-.55875.24-.55875.6375z"/>
        </g>
    </g>
</svg>