<svg height="86"
     viewBox="0 0 429 86"
     width="429"
     xmlns="http://www.w3.org/2000/svg">
    <g fill="none"
       fill-rule="evenodd"
       transform="translate(6 7)">
        <path d="m31.0099604 57.8430853c-2.477206.7712765-5.1909718 1.1569147-8.1425105 1.1569147-3.4986592 0-6.6527902-.5358089-9.4636062-1.6074266-2.810816-1.0716178-5.21159495-2.5733243-7.20233687-4.5051195-1.99195505-1.9317952-3.52292172-4.2492286-4.59532627-6.9523003-1.07119141-2.7030717-1.60618056-5.6776519-1.60618056-8.9213379 0-3.2821297.51921849-6.2759317 1.56129485-8.9790034 1.04086324-2.7030717 2.52209169-5.0205051 4.44247223-6.9535017 1.92159367-1.9317952 4.25686372-3.4286963 7.00702332-4.4907031 2.7489465-1.0608055 5.821798-1.5906075 9.2185545-1.5906075 1.7190014 0 3.3166901.1237406 4.7918529.3748259 1.4763759.249884 2.8411442.6102936 4.0943047 1.0812287 1.2543736.4697338 2.4165496 1.0415836 3.487741 1.7119454 1.0724046.6703618 2.0720215 1.4260205 3.0024901 2.2669761l-1.66805 2.6442048c-.2620355.4000546-.6017112.654744-1.0153876.7652696-.4148895.1105256-.8746648.0156178-1.3805389-.2847235-.4852509-.2811195-1.0408632-.6211058-1.66805-1.0223618-.6259737-.4000546-1.3902439-.7844915-2.2891713-1.1557133-.9001404-.3700205-1.9616268-.6859795-3.1844592-.9466758-1.2240454-.2594949-2.6737326-.3904437-4.3527008-.3904437-2.4456647 0-4.659622.3964505-6.641872 1.1869488-1.9810369.7916997-3.6697102 1.9221843-5.0648066 3.3938567-1.39388326 1.4716723-2.4662878 3.2544983-3.21357423 5.3460751-.74849955 2.0927781-1.12335589 4.4402457-1.12335589 7.0424027 0 2.7030717.38941387 5.1214198 1.1682416 7.253843.77761461 2.1324232 1.89005236 3.9440819 3.33610012 5.4361775 1.4460478 1.4920955 3.1990167 2.6273856 5.2613332 3.408273 2.0623164.7820888 4.3769633 1.1713311 6.946367 1.1713311 1.010535 0 1.9555612-.0600683 2.8350785-.1790034.8795173-.1213379 1.7226408-.285925 2.5317967-.4961639s1.5879837-.4697338 2.3352701-.7808873c.7484995-.3111536 1.5067041-.6655563 2.2746137-1.065611v-9.4919863h-6.7619717c-.3845613 0-.6939088-.1093242-.9256161-.3291741-.2329204-.2210512-.3493807-.4913583-.3493807-.8109215v-3.3037542h13.3444005v16.5187713c-2.1836292 1.5617747-4.5128336 2.727099-6.9900396 3.4983754"
              fill="#636262"
              stroke="#636262"
              stroke-linejoin="round"
              stroke-width="3"/>
        <path d="m73.4117647 0-9.9570136 8.64673866c-.3054298.28423326-.6010859.45356372-.8857466.51524838-.2846606.06047516-.6316289.08950324-1.0384615.08950324h-3.9095023l7.0554299-8.28388769c.3457466-.44267818.6976018-.71602592 1.0531222-.81641468.356742-.10038877.8710859-.15118791 1.5430316-.15118791zm1.5576923 15.6695464v4.7775378h-21.0441176v14.3930886h17.0429864v4.5961123h-17.0429864v14.7861771h21.0746606l-.030543 4.7775378h-26.969457v-43.3304536z"
              fill="#636262"
              stroke="#636262"
              stroke-linejoin="round"
              stroke-width="3"/>
        <g stroke="#d83b6d">
            <path d="m119 4c18.777714 0 34 15.2222857 34 34s-15.222286 34-34 34-34-15.2222857-34-34 15.222286-34 34-34z"
                  stroke-width="5"/>
            <path d="m171.831917 36.825462h6.164306c1.692162 0 3.188517-.205242 4.487856-.6157261 1.299339-.4092837 2.387158-.9902026 3.263456-1.7403561.876299-.7501535 1.535033-1.6455368 1.978622-2.6849495.443588-1.0394127.664778-2.1904483.664778-3.4507062 0-2.5613242-.846081-4.4901189-2.538244-5.7911852-1.692162-1.299866-4.230406-1.9503991-7.614731-1.9503991h-6.406043zm0 4.2296656v17.9448724h-5.831917v-43h12.23796c2.738886 0 5.106705.2760565 7.101039.825769 1.994334.5509127 3.641775 1.3454753 4.939906 2.3848881 1.299339 1.0406129 2.261454 2.2960699 2.886345 3.7663708.624892 1.4703009.936733 3.1170379.936733 4.93541 0 1.5219115-.241737 2.9406018-.725212 4.2620722-.483475 1.3202702-1.183305 2.5049127-2.100699 3.5551276-.916185 1.0502149-2.034221 1.9503991-3.352899 2.7005527-1.319887.7501535-2.816242 1.3058672-4.487857 1.6659409.765099.4800983 1.410539 1.089823 1.9339 1.8303746l12.630784 17.0734941h-5.197356c-1.06848 0-1.852918-.410484-2.356941-1.231452l-11.240793-15.3631441c-.343267-.478898-.709499-.8245688-1.103531-1.0346117-.391615-.210043-1.002002-.3156646-1.827536-.3156646z"
                  fill="#d83b6d"
                  stroke-linejoin="round"
                  stroke-width="3"/>
            <path d="m205 59h6v-43h-6z"
                  fill="#d83b6d"
                  stroke-linejoin="round"
                  stroke-width="3"/>
            <path d="m292.937338 37.2618223c0-2.6715644-.366319-5.0722063-1.095305-7.1982808-.730204-2.1260745-1.765875-3.9216962-3.104582-5.39051-1.338706-1.4675988-2.962191-2.5974556-4.868022-3.3859255-1.907048-.7908997-4.036808-1.1857421-6.38928-1.1857421-2.331782 0-4.451806.3948424-6.358854 1.1857421-1.905831.7884699-3.534184 1.9183267-4.88141 3.3859255-1.350876 1.4688138-2.388982 3.2644355-3.119185 5.39051-.73142 2.1260745-1.095305 4.5267164-1.095305 7.1982808 0 2.6727794.363885 5.0685617 1.095305 7.1837021.730203 2.1151404 1.768309 3.9083323 3.119185 5.3759312 1.347226 1.4688137 2.975579 2.592596 4.88141 3.3713467 1.907048.7799656 4.027072 1.1687335 6.358854 1.1687335 2.352472 0 4.482232-.3887679 6.38928-1.1687335 1.905831-.7787507 3.529316-1.902533 4.868022-3.3713467 1.338707-1.4675989 2.374378-3.2607908 3.104582-5.3759312.728986-2.1151404 1.095305-4.5109227 1.095305-7.1837021m6.054603 0c0 2.0458912-.209325 3.9945903-.624324 5.8460975-.416216 1.8539369-1.018634 3.5693753-1.809688 5.1499599-.79227 1.5793696-1.754922 3.0165959-2.890388 4.3128939-1.136683 1.2950831-2.415756 2.4188654-3.834785 3.3701318l11.167244 12.0590946h-4.868023c-.73142 0-1.381301-.1020516-1.948426-.3037249-.567124-.2028883-1.084352-.557639-1.550465-1.0630373l-7.63671-8.3232779c-1.157372.3644699-2.358557.6487564-3.605988.8504298-1.248647.2016733-2.550843.3037249-3.910239.3037249-3.204376 0-6.125189-.5406304-8.761223-1.6255358-2.637251-1.0812607-4.899665-2.6059599-6.786024-4.5692378-1.885141-1.9644929-3.346765-4.3080344-4.38122-7.0318396-1.034455-2.7238051-1.551682-5.7148882-1.551682-8.9756791 0-3.2595759.517227-6.2518739 1.551682-8.9744641 1.034455-2.7238052 2.496079-5.0734212 4.38122-7.0476333 1.886359-1.974212 4.148773-3.5062005 6.786024-4.6008252 2.636034-1.0934097 5.556847-1.6388997 8.761223-1.6388997 3.205593 0 6.131275.54549 8.778262 1.6388997 2.646987 1.0946247 4.913052 2.6266132 6.800627 4.6008252 1.885142 1.9742121 3.346766 4.3238281 4.380004 7.0476333 1.034454 2.7225902 1.552899 5.7148882 1.552899 8.9744641"
                  fill="#d83b6d"
                  stroke-linejoin="round"
                  stroke-width="3"/>
            <path d="m325.514724 54.8122483c1.819696 0 3.44552-.3034483 4.878699-.9103449 1.430725-.6068965 2.64181-1.4565517 3.633256-2.5501793.991446-1.0912 1.748528-2.3960275 2.271246-3.9132689.520263-1.5172414.781622-3.1862069.781622-5.0068966v-26.4315586h5.920453v26.4315586c0 2.5076966-.403695 4.834538-1.211085 6.9793104-.808618 2.1435586-1.963259 4.000662-3.46638 5.5676689-1.504347 1.5682207-3.339994 2.7965793-5.506941 3.6875035-2.168174.8897103-4.601388 1.3339586-7.30087 1.3339586-2.699481 0-5.133922-.4442483-7.300869-1.3339586-2.168174-.8909242-4.008729-2.1192828-5.521666-3.6875035-1.514163-1.5670069-2.67494-3.4241103-3.482331-5.5676689-.80739-2.1447724-1.209858-4.4716138-1.209858-6.9793104v-26.4315586h5.919226v26.4c0 1.8206897.261359 3.4896552.781622 5.0068966.521491 1.5172413 1.278573 2.8232827 2.271246 3.9156965.991445 1.0912 2.207439 1.9469241 3.650434 2.563531 1.440542.6178207 3.072501.9261242 4.892196.9261242"
                  fill="#d83b6d"
                  stroke-linejoin="round"
                  stroke-width="3"/>
            <path d="m380.970677 16v4.7411026h-21.046291v14.284522h17.046201v4.5598604h-17.046201v14.6734124h21.075614l-.029323 4.7411026h-26.970677v-43z"
                  fill="#d83b6d"
                  stroke-linejoin="round"
                  stroke-width="3"/>
            <path d="m413.618945 22.2081911c-.18084.3003413-.376146.5249966-.587126.6751673-.210979.1501706-.467772.2258566-.769171.2258566-.341184 0-.743854-.1705938-1.205597-.5117816-.461744-.3399863-1.039225-.7148122-1.733649-1.1256791-.692013-.4096656-1.526287-.7856929-2.50041-1.1268806-.974122-.3399863-2.155608-.5105802-3.540839-.5105802-1.306868 0-2.457008.1766007-3.452831.526198-.993412.3507986-1.827686.8253379-2.500409 1.4260204-.672724.6006826-1.181486 1.3070854-1.52267 2.1180069-.342389.8109215-.511173 1.6867167-.511173 2.628587 0 1.2013652.295371 2.1972969.88732 2.9877952.593154.7916997 1.377998 1.4680683 2.35212 2.0267031.974123.5610375 2.079656 1.0475904 3.315393 1.457256 1.235737.4108669 2.501615.8373515 3.797632 1.2770512 1.296017.4396996 2.561894.9358634 3.796426 1.4860887 1.235738.5514266 2.34127 1.2458157 3.315393 2.0867713.975328.842157 1.758967 1.8729284 2.352121 3.0947168.591948 1.220587.888525 2.7222935.888525 4.5051194 0 1.8813379-.320689 3.6485461-.963272 5.3004232-.643789 1.6518771-1.58295 3.0887099-2.818687 4.3104983-1.236943 1.220587-2.752379 2.1816792-4.55113 2.8832765-1.799957.7003959-3.843445 1.0511945-6.13408 1.0511945-2.812659 0-5.364909-.5057747-7.655544-1.5173242-2.290635-1.0103482-4.24973-2.3775017-5.877287-4.1002594l1.687836-2.7631399c.160345-.2186485.355652-.4048601.588332-.5550308.230269-.1501706.485856-.2246553.767965-.2246553.261615 0 .558192.1045188.889731.3147577.330334.2102389.707686.4757406 1.129645.7965051.423165.3195632.904198.6703618 1.446717 1.0511946.542519.3796314 1.16099.73043 1.853003 1.0511945.694424.3195632 1.48168.5850649 2.366588.7953038.883703.2102389 1.879526.315959 2.983854.315959 1.386437 0 2.62338-.191017 3.707212-.5706484 1.085037-.3796314 2.004908-.9166417 2.758407-1.6074267.753498-.6907849 1.330979-1.5173242 1.733649-2.477215.400258-.9610921.602798-2.0327099.602798-3.2136519 0-1.3010785-.296577-2.3678907-.890936-3.1992355-.593154-.8313447-1.369559-1.5269351-2.335242-2.0879727-.964478-.5586348-2.070011-1.0355767-3.315393-1.4260204s-2.512465-.7904983-3.797632-1.2013652c-1.286373-.4096655-2.55225-.8854062-3.797632-1.4272219-1.246588-.5406143-2.350915-1.2410102-3.315393-2.102389-.964478-.8589761-1.743294-1.9366007-2.335242-3.2280683-.593154-1.2914676-.889731-2.8868805-.889731-4.789843 0-1.5221297.296577-2.993802.889731-4.4150171.591948-1.4224163 1.456362-2.6838498 2.590829-3.7855017 1.135673-1.1004505 2.53296-1.9810512 4.190656-2.6430034 1.657697-.6607508 3.561335-.9899249 5.710915-.9899249 2.411195 0 4.605383.3796314 6.586179 1.1400956 1.978385.7616655 3.722885 1.8633174 5.229882 3.3037542z"
                  fill="#d83b6d"
                  stroke-linejoin="round"
                  stroke-width="3"/>
            <path d="m246.618945 22.2081911c-.18084.3003413-.376146.5249966-.587126.6751673-.210979.1501706-.467772.2258566-.769171.2258566-.341184 0-.743854-.1705938-1.205597-.5117816-.461744-.3399863-1.039225-.7148122-1.733649-1.1256791-.692013-.4096656-1.526287-.7856929-2.50041-1.1268806-.974122-.3399863-2.155608-.5105802-3.540839-.5105802-1.306868 0-2.457008.1766007-3.452831.526198-.993412.3507986-1.827686.8253379-2.500409 1.4260204-.672724.6006826-1.181486 1.3070854-1.52267 2.1180069-.342389.8109215-.511173 1.6867167-.511173 2.628587 0 1.2013652.295371 2.1972969.88732 2.9877952.593154.7916997 1.377998 1.4680683 2.35212 2.0267031.974123.5610375 2.079656 1.0475904 3.315393 1.457256 1.235737.4108669 2.501615.8373515 3.797632 1.2770512 1.296017.4396996 2.561894.9358634 3.796426 1.4860887 1.235738.5514266 2.34127 1.2458157 3.315393 2.0867713.975328.842157 1.758967 1.8729284 2.352121 3.0947168.591948 1.220587.888525 2.7222935.888525 4.5051194 0 1.8813379-.320689 3.6485461-.963272 5.3004232-.643789 1.6518771-1.58295 3.0887099-2.818687 4.3104983-1.236943 1.220587-2.752379 2.1816792-4.55113 2.8832765-1.799957.7003959-3.843445 1.0511945-6.13408 1.0511945-2.812659 0-5.364909-.5057747-7.655544-1.5173242-2.290635-1.0103482-4.24973-2.3775017-5.877287-4.1002594l1.687836-2.7631399c.160345-.2186485.355652-.4048601.588332-.5550308.230269-.1501706.485856-.2246553.767965-.2246553.261615 0 .558192.1045188.889731.3147577.330334.2102389.707686.4757406 1.129645.7965051.423165.3195632.904198.6703618 1.446717 1.0511946.542519.3796314 1.16099.73043 1.853003 1.0511945.694424.3195632 1.48168.5850649 2.366588.7953038.883703.2102389 1.879526.315959 2.983854.315959 1.386437 0 2.62338-.191017 3.707212-.5706484 1.085037-.3796314 2.004908-.9166417 2.758407-1.6074267.753498-.6907849 1.330979-1.5173242 1.733649-2.477215.400258-.9610921.602798-2.0327099.602798-3.2136519 0-1.3010785-.296577-2.3678907-.890936-3.1992355-.593154-.8313447-1.369559-1.5269351-2.335242-2.0879727-.964478-.5586348-2.070011-1.0355767-3.315393-1.4260204s-2.512465-.7904983-3.797632-1.2013652c-1.286373-.4096655-2.55225-.8854062-3.797632-1.4272219-1.246588-.5406143-2.350915-1.2410102-3.315393-2.102389-.964478-.8589761-1.743294-1.9366007-2.335242-3.2280683-.593154-1.2914676-.889731-2.8868805-.889731-4.789843 0-1.5221297.296577-2.993802.889731-4.4150171.591948-1.4224163 1.456362-2.6838498 2.590829-3.7855017 1.135673-1.1004505 2.53296-1.9810512 4.190656-2.6430034 1.657697-.6607508 3.561335-.9899249 5.710915-.9899249 2.411195 0 4.605383.3796314 6.586179 1.1400956 1.978385.7616655 3.722885 1.8633174 5.229882 3.3037542z"
                  fill="#d83b6d"
                  stroke-linejoin="round"
                  stroke-width="3"/>
        </g>
        <path d="m123.26 24v10.2707182c0 .5386741-.013333 1.0665746-.04 1.5801105-.026667.514733-.06 1.0330571-.1 1.5525783-.04.5219153-.090667 1.054604-.150667 1.5992633-.06.5446594-.129333 1.1288214-.209333 1.7512892h-2.4c-.08-.6224678-.150667-1.2066298-.210667-1.7512892-.06-.5446593-.109333-1.077348-.149333-1.5992633-.04-.5195212-.073333-1.0378453-.1-1.5525783-.028-.5135359-.04-1.0414364-.04-1.5801105v-10.2707182zm-4.26 23.7555249c0-.3112339.062667-.604512.189333-.8786372.126667-.2765194.304-.514733.530667-.7194291.226667-.2034991.489333-.3639043.789333-.4836096.3-.1209024.630667-.179558.990667-.179558.346667 0 .669333.0586556.969333.179558.3.1197053.564.2801105.790667.4836096.226667.2046961.406667.4429097.54.7194291.133333.2741252.2.5674033.2.8786372 0 .3244014-.066667.6200736-.2.8894106-.133333.2693371-.313333.5051566-.54.7086557-.226667.2046961-.490667.3627071-.790667.4764272s-.622666.1699816-.969333.1699816c-.36 0-.690667-.0562615-.990667-.1699816s-.562666-.2717311-.789333-.4764272c-.226667-.2034991-.404-.4393186-.530667-.7086557-.126666-.269337-.189333-.5650092-.189333-.8894106z"
              fill="#d83b6d"/>
        <path d="m118.063053 60.1744872c-3.395527-.6796923-8.307842-2.0704103-12.444211-4.8253334.104105-.1807692.624632-1.1267948 1.187526-2.8537435.577421-1.7715385 1.318264-4.7530257 1.571264-8.8950513.004842-.0759231.021789-.0879744.021789-.0879744.138 0 .683947 1.0737692 1.131842 2.1137949l.072632-.0228974c-.006053-.0349488-.590737-3.5707949-2.496106-7.2488462-1.119736-2.162-2.469473-3.9516154-4.011684-5.3170256-1.922316-1.7004359-4.1508945-2.7452821-6.6239997-3.1056154l-.4721053-3.3791795 5.960632-1.2111539c.207.0903847 3.193368 1.3822821 4.780368 1.3822821.335316 0 .590737-.056641.761421-.1699231 1.067684-.7074102-.813474-5.0374359-1.065263-5.6050513h2.123263c.107737.2422308 1.053158 2.2596154 2.680105 2.3186667.037527 0 .075053.0012051.111369.0012051 2.014316 0 2.269737-2.0414872 2.295158-2.3246923.414-.0590513 4.230789-.6555897 4.822736-2.5428205.561685-1.7847949.383737-3.5093333.349843-3.7828974l3.728421-.6182308c.198526.2060769 2.473105 2.5452308 5.877105 4.9096923 3.258737 2.2632308 8.249737 5.0121282 13.54821 5.2881026-.336526.404923-2.135368 2.8344615-1.918684 8.4021538-.313526.2096923-4.462 3.0537949-4.658105 6.7258205-.002421.0506154.010895.0915898.038737.121718.032684.0361538.088368.0542307.161.0542307.493895 0 1.884789-.8134615 2.146263-.968923l1.879947 5.6701282c-.122263.2157179-1.428421 2.5994615-.605263 4.3842564.451526.977359 1.453842 1.607641 2.982737 1.870359-.265105.5820769-3.044474 6.5064871-6.189421 6.5064871-.539895 0-1.067684-.1759487-1.570053-.5218205-.019368-.0144615-2.18621-1.7510513-4.920789-1.7510513-.815895 0-1.61.1542565-2.358105.4579488-.953895.385641-2.159579 1.3003333-2.491264 3.459923-.175526 1.1388462-.030263 2.162.007264 2.3909744-.377685-.0144615-2.98879-.1385897-6.414579-.8255128z"
              stroke="#636262"
              stroke-width="2"/>
    </g>
</svg>